M48
METRIC,LZ,000.000
;FILE_FORMAT=3:3
;TYPE=PLATED
;Layer: PTH_Through
;EasyEDA v6.5.46, 2024-08-18 09:58:02
;236360ae96044019aedb561fcd3bba06,230f2a6ff4724a6391133640ca874918,10
;Gerber Generator version 0.2
;Holesize 1 = 0.310 mm
T01C0.310
;Holesize 2 = 0.800 mm
T02C0.800
;Holesize 3 = 0.889 mm
T03C0.889
;Holesize 4 = 0.901 mm
T04C0.901
;Holesize 5 = 0.915 mm
T05C0.915
;Holesize 6 = 1.000 mm
T06C1.000
;Holesize 7 = 1.301 mm
T07C1.301
%
G05
G90
T01
X065786Y044323
X064516Y044323
X063500Y044323
X062484Y044323
X066294Y039370
X061214Y039497
X061087Y036703
X047625Y058928
X061087Y034163
X046863Y057404
X070993Y043942
X048387Y035560
X054610Y022225
X048387Y033401
X047625Y025019
X060960Y017780
X044323Y033655
X044323Y049784
X016510Y033147
X055880Y027432
X042291Y036449
X037846Y055753
X042291Y044196
X039243Y028448
X047625Y029083
X039243Y027559
X048387Y028702
X039243Y026035
X048387Y026162
X039243Y025019
X039243Y023368
X039243Y022479
X040640Y020828
X041021Y019939
X030988Y030480
X053086Y020320
X039243Y031623
X053975Y039243
X039751Y030226
X048514Y037084
X040005Y029083
X056261Y041910
X038608Y052324
X057531Y016256
X060452Y014859
T02
X072390Y014879
X072390Y004679
X041168Y006985
X030968Y006985
X015494Y004806
X015494Y015006
X083947Y004679
X083947Y014879
X080095Y004679
X080095Y014879
X076242Y004679
X076242Y014879
X087799Y004679
X087799Y014879
X091652Y004679
X091652Y014879
X095504Y004679
X095504Y014879
X035560Y067564
X035560Y065024
X035560Y062484
X035560Y059944
X035560Y057404
X035560Y054864
X035560Y052324
X035560Y049784
X035560Y047244
X035560Y044704
X035560Y042164
X035560Y039624
X035560Y037084
X035560Y034544
X035560Y032004
X035560Y029464
X035560Y026924
X035560Y024384
X035560Y021844
X035560Y019304
X035560Y016764
X050546Y067564
X050546Y065024
X050546Y062484
X050546Y059944
X050546Y057404
X050546Y054864
X050546Y052324
X050546Y049784
X050546Y047244
X050546Y044704
X050546Y042164
X050546Y039624
X050546Y037084
X050546Y034544
X050546Y032004
X050546Y029464
X050546Y026924
X050546Y024384
X050546Y021844
X050546Y019304
X050546Y016764
X086487Y045080
X083947Y045080
X081407Y045080
X089027Y045080
X078867Y045080
X089027Y066680
X086487Y066680
X083947Y066680
X081407Y066680
X078867Y066680
X068199Y047625
X068199Y050165
X068199Y052705
X068199Y055245
X068199Y057785
X068199Y060325
X068199Y062865
X068199Y065405
X060579Y047625
X060579Y050165
X060579Y052705
X060579Y055245
X060579Y057785
X060579Y060325
X060579Y062865
X060579Y065405
T03
X018923Y069342
X021463Y069342
X024003Y069342
X026543Y069342
X026670Y057404
X026670Y054864
X026670Y052324
X026670Y049784
X026670Y047244
X026670Y044704
X026670Y042164
X026670Y039624
X019304Y057404
X019304Y054864
X019304Y052324
X019304Y049784
X019304Y047244
X019304Y044704
X019304Y042164
X019304Y039624
X026670Y015113
X026670Y017653
X026670Y020193
X026670Y022733
X026670Y025273
X026670Y027813
X026670Y030353
X026670Y032893
X019304Y032893
X019304Y030353
X019304Y027813
X019304Y025273
X019304Y022733
X019304Y020193
X019304Y017653
X019304Y015113
X032893Y010795
X035433Y010795
X011938Y015113
X011938Y017653
X011938Y020193
X011938Y022733
X011938Y025273
X011938Y027813
X011938Y030353
X011938Y032893
X011938Y048641
X011938Y051181
X011938Y053721
X011938Y056261
X011938Y058801
X011938Y061341
X011938Y063881
X011938Y066421
T04
X083800Y036830
X081300Y036830
X083800Y030416
X081300Y030416
X083800Y024003
X081300Y024003
X094341Y036766
X091841Y036766
X094341Y030416
X091841Y030416
X094341Y024066
X091841Y024066
X061889Y069215
X066889Y069215
X067437Y015407
X067437Y020407
X055626Y016296
X055626Y021296
T05
X037973Y010795
T06
X077216Y038100
X077216Y035560
X077216Y033020
X077216Y030480
X077216Y027940
X077216Y025400
X077216Y022860
X077216Y020320
X069596Y020320
X069596Y022860
X069596Y025400
X069596Y027940
X069596Y030480
X069596Y033020
X069596Y035560
X069596Y038100
X065151Y038100
X065151Y035560
X065151Y033020
X065151Y030480
X065151Y027940
X065151Y025400
X065151Y022860
X065151Y020320
X057531Y020320
X057531Y022860
X057531Y025400
X057531Y027940
X057531Y030480
X057531Y033020
X057531Y035560
X057531Y038100
T07
X050240Y005497
X050240Y009997
X043740Y009997
X043740Y005497
X026999Y005243
X026999Y009743
X020499Y009743
X020499Y005243
X061162Y005497
X061162Y009997
X054662Y009997
X054662Y005497
M30
