M48
METRIC,LZ,000.000
;FILE_FORMAT=3:3
;TYPE=PLATED
;Layer: PTH_Through_Via
;EasyEDA v6.5.46, 2024-08-18 09:58:02
;236360ae96044019aedb561fcd3bba06,230f2a6ff4724a6391133640ca874918,10
;Gerber Generator version 0.2
;Holesize 1 = 0.310 mm
T01C0.310
%
G05
G90
T01
X065786Y044323
X064516Y044323
X063500Y044323
X062484Y044323
X066294Y039370
X061214Y039497
X061087Y036703
X047625Y058928
X061087Y034163
X046863Y057404
X070993Y043942
X048387Y035560
X054610Y022225
X048387Y033401
X047625Y025019
X060960Y017780
X044323Y033655
X044323Y049784
X016510Y033147
X055880Y027432
X042291Y036449
X037846Y055753
X042291Y044196
X039243Y028448
X047625Y029083
X039243Y027559
X048387Y028702
X039243Y026035
X048387Y026162
X039243Y025019
X039243Y023368
X039243Y022479
X040640Y020828
X041021Y019939
X030988Y030480
X053086Y020320
X039243Y031623
X053975Y039243
X039751Y030226
X048514Y037084
X040005Y029083
X056261Y041910
X038608Y052324
X057531Y016256
X060452Y014859
M30
