G04 Layer: TopSolderMaskLayer*
G04 EasyEDA v6.5.46, 2024-08-18 09:58:02*
G04 236360ae96044019aedb561fcd3bba06,230f2a6ff4724a6391133640ca874918,10*
G04 Gerber Generator version 0.2*
G04 Scale: 100 percent, Rotated: No, Reflected: No *
G04 Dimensions in millimeters *
G04 leading zeros omitted , absolute positions ,4 integer and 5 decimal *
%FSLAX45Y45*%
%MOMM*%

%AMMACRO1*4,1,8,-0.8085,-0.8382,-0.8382,-0.8084,-0.8382,0.8085,-0.8085,0.8382,0.8084,0.8382,0.8382,0.8085,0.8382,-0.8084,0.8084,-0.8382,-0.8085,-0.8382,0*%
%AMMACRO2*4,1,8,-0.8211,-0.7508,-0.8508,-0.721,-0.8508,0.7211,-0.8211,0.7508,0.821,0.7508,0.8508,0.7211,0.8508,-0.721,0.821,-0.7508,-0.8211,-0.7508,0*%
%AMMACRO3*4,1,8,-0.8211,-0.8508,-0.8508,-0.821,-0.8508,0.8211,-0.8211,0.8508,0.821,0.8508,0.8508,0.8211,0.8508,-0.821,0.821,-0.8508,-0.8211,-0.8508,0*%
%ADD10C,1.7526*%
%ADD11MACRO1*%
%ADD12C,1.6764*%
%ADD13C,1.8016*%
%ADD14C,2.1016*%
%ADD15C,1.5016*%
%ADD16MACRO2*%
%ADD17C,1.7016*%
%ADD18MACRO3*%
%ADD19O,1.92659X1.561592*%

%LPD*%
D10*
G01*
X8379993Y3683000D03*
G01*
X8130006Y3683000D03*
G01*
X8379993Y3041650D03*
G01*
X8130006Y3041650D03*
G01*
X8379993Y2400300D03*
G01*
X8130006Y2400300D03*
G01*
X9434093Y3676650D03*
G01*
X9184106Y3676650D03*
G01*
X9434093Y3041650D03*
G01*
X9184106Y3041650D03*
G01*
X9434093Y2406650D03*
G01*
X9184106Y2406650D03*
D11*
G01*
X1892300Y6934200D03*
D12*
G01*
X2146300Y6934200D03*
G01*
X2400300Y6934200D03*
G01*
X2654300Y6934200D03*
D13*
G01*
X6188913Y6921500D03*
G01*
X6688912Y6921500D03*
G01*
X6743700Y1540687D03*
G01*
X6743700Y2040686D03*
G01*
X5562600Y1629587D03*
G01*
X5562600Y2129586D03*
D14*
G01*
X5023993Y549706D03*
G01*
X5023993Y999693D03*
G01*
X4374006Y999693D03*
G01*
X4374006Y549706D03*
G01*
X2699893Y524306D03*
G01*
X2699893Y974293D03*
G01*
X2049906Y974293D03*
G01*
X2049906Y524306D03*
D15*
G01*
X7239000Y1487906D03*
G01*
X7239000Y467893D03*
G01*
X4116806Y698500D03*
G01*
X3096793Y698500D03*
G01*
X1549400Y480593D03*
G01*
X1549400Y1500606D03*
D11*
G01*
X2667000Y5740400D03*
D12*
G01*
X2667000Y5486400D03*
G01*
X2667000Y5232400D03*
G01*
X2667000Y4978400D03*
G01*
X2667000Y4724400D03*
G01*
X2667000Y4470400D03*
G01*
X2667000Y4216400D03*
G01*
X2667000Y3962400D03*
D11*
G01*
X1930400Y5740400D03*
D12*
G01*
X1930400Y5486400D03*
G01*
X1930400Y5232400D03*
G01*
X1930400Y4978400D03*
G01*
X1930400Y4724400D03*
G01*
X1930400Y4470400D03*
G01*
X1930400Y4216400D03*
G01*
X1930400Y3962400D03*
D11*
G01*
X2667000Y1511300D03*
D12*
G01*
X2667000Y1765300D03*
G01*
X2667000Y2019300D03*
G01*
X2667000Y2273300D03*
G01*
X2667000Y2527300D03*
G01*
X2667000Y2781300D03*
G01*
X2667000Y3035300D03*
G01*
X2667000Y3289300D03*
D11*
G01*
X1930400Y3289300D03*
D12*
G01*
X1930400Y3035300D03*
G01*
X1930400Y2781300D03*
G01*
X1930400Y2527300D03*
G01*
X1930400Y2273300D03*
G01*
X1930400Y2019300D03*
G01*
X1930400Y1765300D03*
G01*
X1930400Y1511300D03*
D11*
G01*
X3289300Y1079500D03*
D12*
G01*
X3543300Y1079500D03*
G01*
X3797300Y1079500D03*
D14*
G01*
X6116193Y549706D03*
G01*
X6116193Y999693D03*
G01*
X5466206Y999693D03*
G01*
X5466206Y549706D03*
D15*
G01*
X8394700Y467893D03*
G01*
X8394700Y1487906D03*
G01*
X8009458Y467893D03*
G01*
X8009458Y1487906D03*
G01*
X7624241Y467893D03*
G01*
X7624241Y1487906D03*
G01*
X8779916Y467893D03*
G01*
X8779916Y1487906D03*
G01*
X9165158Y467893D03*
G01*
X9165158Y1487906D03*
G01*
X9550400Y467893D03*
G01*
X9550400Y1487906D03*
D11*
G01*
X1193800Y1511300D03*
D12*
G01*
X1193800Y1765300D03*
G01*
X1193800Y2019300D03*
G01*
X1193800Y2273300D03*
G01*
X1193800Y2527300D03*
G01*
X1193800Y2781300D03*
G01*
X1193800Y3035300D03*
G01*
X1193800Y3289300D03*
D11*
G01*
X1193800Y4864100D03*
D12*
G01*
X1193800Y5118100D03*
G01*
X1193800Y5372100D03*
G01*
X1193800Y5626100D03*
G01*
X1193800Y5880100D03*
G01*
X1193800Y6134100D03*
G01*
X1193800Y6388100D03*
G01*
X1193800Y6642100D03*
D16*
G01*
X3556000Y6756400D03*
D15*
G01*
X3556000Y6502400D03*
G01*
X3556000Y6248400D03*
G01*
X3556000Y5994400D03*
G01*
X3556000Y5740400D03*
G01*
X3556000Y5486400D03*
G01*
X3556000Y5232400D03*
G01*
X3556000Y4978400D03*
G01*
X3556000Y4724400D03*
G01*
X3556000Y4470400D03*
G01*
X3556000Y4216400D03*
G01*
X3556000Y3962400D03*
G01*
X3556000Y3708400D03*
G01*
X3556000Y3454400D03*
G01*
X3556000Y3200400D03*
G01*
X3556000Y2946400D03*
G01*
X3556000Y2692400D03*
G01*
X3556000Y2438400D03*
G01*
X3556000Y2184400D03*
G01*
X3556000Y1930400D03*
G01*
X3556000Y1676400D03*
D16*
G01*
X5054600Y6756400D03*
D15*
G01*
X5054600Y6502400D03*
G01*
X5054600Y6248400D03*
G01*
X5054600Y5994400D03*
G01*
X5054600Y5740400D03*
G01*
X5054600Y5486400D03*
G01*
X5054600Y5232400D03*
G01*
X5054600Y4978400D03*
G01*
X5054600Y4724400D03*
G01*
X5054600Y4470400D03*
G01*
X5054600Y4216400D03*
G01*
X5054600Y3962400D03*
G01*
X5054600Y3708400D03*
G01*
X5054600Y3454400D03*
G01*
X5054600Y3200400D03*
G01*
X5054600Y2946400D03*
G01*
X5054600Y2692400D03*
G01*
X5054600Y2438400D03*
G01*
X5054600Y2184400D03*
G01*
X5054600Y1930400D03*
G01*
X5054600Y1676400D03*
D17*
G01*
X8648700Y4507992D03*
G01*
X8394700Y4507992D03*
G01*
X8140700Y4507992D03*
G01*
X8902700Y4507992D03*
G01*
X7886700Y4507992D03*
G01*
X8902700Y6668008D03*
G01*
X8648700Y6668008D03*
G01*
X8394700Y6668008D03*
G01*
X8140700Y6668008D03*
G01*
X7886700Y6668008D03*
G01*
X7721600Y3810000D03*
G01*
X7721600Y3556000D03*
G01*
X7721600Y3302000D03*
G01*
X7721600Y3048000D03*
G01*
X7721600Y2794000D03*
G01*
X7721600Y2540000D03*
G01*
X7721600Y2286000D03*
G01*
X7721600Y2032000D03*
G01*
X6959600Y2032000D03*
G01*
X6959600Y2286000D03*
G01*
X6959600Y2540000D03*
G01*
X6959600Y2794000D03*
G01*
X6959600Y3048000D03*
G01*
X6959600Y3302000D03*
G01*
X6959600Y3556000D03*
D18*
G01*
X6959602Y3810007D03*
D17*
G01*
X6515100Y3810000D03*
G01*
X6515100Y3556000D03*
G01*
X6515100Y3302000D03*
G01*
X6515100Y3048000D03*
G01*
X6515100Y2794000D03*
G01*
X6515100Y2540000D03*
G01*
X6515100Y2286000D03*
G01*
X6515100Y2032000D03*
G01*
X5753100Y2032000D03*
G01*
X5753100Y2286000D03*
G01*
X5753100Y2540000D03*
G01*
X5753100Y2794000D03*
G01*
X5753100Y3048000D03*
G01*
X5753100Y3302000D03*
G01*
X5753100Y3556000D03*
D18*
G01*
X5753102Y3810007D03*
D19*
G01*
X6819900Y4762500D03*
G01*
X6819900Y5016500D03*
G01*
X6819900Y5270500D03*
G01*
X6819900Y5524500D03*
G01*
X6819900Y5778500D03*
G01*
X6819900Y6032500D03*
G01*
X6819900Y6286500D03*
G01*
X6819900Y6540500D03*
G01*
X6057900Y4762500D03*
G01*
X6057900Y5016500D03*
G01*
X6057900Y5270500D03*
G01*
X6057900Y5524500D03*
G01*
X6057900Y5778500D03*
G01*
X6057900Y6032500D03*
G01*
X6057900Y6286500D03*
G01*
X6057900Y6540500D03*
M02*
