G04 Layer: TopSilkscreenLayer*
G04 EasyEDA v6.5.46, 2024-08-18 09:58:02*
G04 236360ae96044019aedb561fcd3bba06,230f2a6ff4724a6391133640ca874918,10*
G04 Gerber Generator version 0.2*
G04 Scale: 100 percent, Rotated: No, Reflected: No *
G04 Dimensions in millimeters *
G04 leading zeros omitted , absolute positions ,4 integer and 5 decimal *
%FSLAX45Y45*%
%MOMM*%

%ADD10C,0.1524*%
%ADD11C,0.2540*%
%ADD12C,0.2032*%
%ADD13C,0.2030*%
%ADD14C,0.2000*%
%ADD15C,0.5000*%
%ADD16C,1.3700*%
%ADD17C,1.0000*%
%ADD18C,0.3000*%
%ADD19C,0.0152*%

%LPD*%
G36*
X8486140Y2171192D02*
G01*
X8452612Y2161794D01*
X8452612Y2155190D01*
X8470646Y2153412D01*
X8470595Y2044700D01*
X8470138Y2015998D01*
X8453628Y2013457D01*
X8453628Y2006600D01*
X8504682Y2006600D01*
X8504682Y2013457D01*
X8489188Y2015998D01*
X8488934Y2086356D01*
X8497620Y2093366D01*
X8505545Y2097938D01*
X8513165Y2100376D01*
X8520684Y2101088D01*
X8525154Y2100783D01*
X8528964Y2099716D01*
X8532215Y2097938D01*
X8534857Y2095246D01*
X8536889Y2091588D01*
X8538311Y2086965D01*
X8539175Y2081174D01*
X8539480Y2074164D01*
X8539429Y2044598D01*
X8538972Y2015998D01*
X8522462Y2013457D01*
X8522462Y2006600D01*
X8573516Y2006600D01*
X8573516Y2013457D01*
X8558276Y2015998D01*
X8557768Y2053336D01*
X8557768Y2074418D01*
X8557310Y2084527D01*
X8555939Y2093112D01*
X8553704Y2100122D01*
X8550554Y2105710D01*
X8546541Y2109876D01*
X8541562Y2112822D01*
X8535771Y2114499D01*
X8529066Y2115058D01*
X8523630Y2114651D01*
X8518194Y2113534D01*
X8512810Y2111756D01*
X8507526Y2109317D01*
X8502396Y2106269D01*
X8497468Y2102713D01*
X8492794Y2098700D01*
X8488426Y2094230D01*
X8488426Y2137918D01*
X8489188Y2169668D01*
G37*
G36*
X8750300Y2171192D02*
G01*
X8716518Y2161794D01*
X8716518Y2155190D01*
X8734552Y2153412D01*
X8734501Y2044700D01*
X8734281Y2027428D01*
X8752840Y2027428D01*
X8752840Y2091182D01*
X8761323Y2097887D01*
X8768689Y2101697D01*
X8775039Y2103475D01*
X8780526Y2103882D01*
X8784691Y2103577D01*
X8788603Y2102612D01*
X8792260Y2101037D01*
X8795664Y2098852D01*
X8798763Y2096007D01*
X8801506Y2092553D01*
X8803894Y2088489D01*
X8805926Y2083765D01*
X8807551Y2078482D01*
X8808770Y2072589D01*
X8809482Y2066036D01*
X8809736Y2058924D01*
X8809431Y2051507D01*
X8808618Y2044852D01*
X8807246Y2038908D01*
X8805468Y2033727D01*
X8803233Y2029206D01*
X8800642Y2025345D01*
X8797747Y2022195D01*
X8794546Y2019604D01*
X8791092Y2017674D01*
X8787434Y2016302D01*
X8783675Y2015489D01*
X8779764Y2015236D01*
X8773210Y2015896D01*
X8766505Y2017979D01*
X8759698Y2021789D01*
X8752840Y2027428D01*
X8734281Y2027428D01*
X8734044Y2015998D01*
X8717534Y2013457D01*
X8717534Y2006600D01*
X8750554Y2004314D01*
X8752332Y2019554D01*
X8760104Y2011832D01*
X8768080Y2007006D01*
X8776055Y2004517D01*
X8783828Y2003806D01*
X8788755Y2004060D01*
X8793429Y2004872D01*
X8797950Y2006142D01*
X8802166Y2007920D01*
X8806180Y2010206D01*
X8809939Y2012899D01*
X8813393Y2015998D01*
X8816543Y2019554D01*
X8819438Y2023465D01*
X8821928Y2027783D01*
X8824112Y2032457D01*
X8825941Y2037435D01*
X8827363Y2042769D01*
X8828430Y2048408D01*
X8829090Y2054301D01*
X8829294Y2060448D01*
X8828938Y2068728D01*
X8827820Y2076399D01*
X8826042Y2083460D01*
X8823604Y2089861D01*
X8820607Y2095550D01*
X8817051Y2100630D01*
X8812987Y2104948D01*
X8808466Y2108504D01*
X8803589Y2111349D01*
X8798306Y2113381D01*
X8792718Y2114651D01*
X8786876Y2115058D01*
X8782405Y2114804D01*
X8777935Y2114092D01*
X8773515Y2112822D01*
X8769146Y2111095D01*
X8764778Y2108809D01*
X8760561Y2105964D01*
X8756396Y2102561D01*
X8752332Y2098548D01*
X8752332Y2137918D01*
X8753094Y2169668D01*
G37*
G36*
X8877300Y2171192D02*
G01*
X8843772Y2161794D01*
X8843772Y2155190D01*
X8861806Y2153412D01*
X8861755Y2044700D01*
X8861535Y2027428D01*
X8880094Y2027428D01*
X8880094Y2091182D01*
X8888577Y2097887D01*
X8895842Y2101697D01*
X8902192Y2103475D01*
X8907780Y2103882D01*
X8911945Y2103577D01*
X8915857Y2102612D01*
X8919514Y2101037D01*
X8922918Y2098852D01*
X8926017Y2096007D01*
X8928760Y2092553D01*
X8931148Y2088489D01*
X8933180Y2083765D01*
X8934805Y2078482D01*
X8936024Y2072589D01*
X8936736Y2066036D01*
X8936990Y2058924D01*
X8936685Y2051507D01*
X8935872Y2044852D01*
X8934500Y2038908D01*
X8932722Y2033727D01*
X8930487Y2029206D01*
X8927896Y2025345D01*
X8924950Y2022195D01*
X8921699Y2019604D01*
X8918244Y2017674D01*
X8914536Y2016302D01*
X8910726Y2015489D01*
X8906764Y2015236D01*
X8900363Y2015896D01*
X8893708Y2017979D01*
X8886952Y2021789D01*
X8880094Y2027428D01*
X8861535Y2027428D01*
X8861298Y2015998D01*
X8844788Y2013457D01*
X8844788Y2006600D01*
X8877808Y2004314D01*
X8879586Y2019554D01*
X8887206Y2011832D01*
X8895130Y2007006D01*
X8903055Y2004517D01*
X8910828Y2003806D01*
X8915755Y2004060D01*
X8920530Y2004872D01*
X8925052Y2006142D01*
X8929319Y2007920D01*
X8933383Y2010206D01*
X8937142Y2012899D01*
X8940596Y2015998D01*
X8943797Y2019554D01*
X8946642Y2023465D01*
X8949182Y2027783D01*
X8951366Y2032457D01*
X8953195Y2037435D01*
X8954617Y2042769D01*
X8955684Y2048408D01*
X8956344Y2054301D01*
X8956548Y2060448D01*
X8956192Y2068728D01*
X8955074Y2076399D01*
X8953296Y2083460D01*
X8950858Y2089861D01*
X8947810Y2095550D01*
X8944254Y2100630D01*
X8940190Y2104948D01*
X8935669Y2108504D01*
X8930741Y2111349D01*
X8925407Y2113381D01*
X8919768Y2114651D01*
X8913876Y2115058D01*
X8909507Y2114804D01*
X8905087Y2114092D01*
X8900718Y2112822D01*
X8896350Y2111095D01*
X8892032Y2108809D01*
X8887815Y2105964D01*
X8883650Y2102561D01*
X8879586Y2098548D01*
X8879586Y2137918D01*
X8880348Y2169668D01*
G37*
G36*
X9223248Y2167890D02*
G01*
X9217558Y2166924D01*
X9212986Y2164181D01*
X9209887Y2159965D01*
X9208770Y2154428D01*
X9209887Y2148840D01*
X9212986Y2144369D01*
X9217558Y2141474D01*
X9223248Y2140458D01*
X9228683Y2141474D01*
X9233204Y2144420D01*
X9236303Y2148840D01*
X9237472Y2154428D01*
X9236303Y2159965D01*
X9233204Y2164181D01*
X9228683Y2166924D01*
G37*
G36*
X8392160Y2159000D02*
G01*
X8385708Y2158746D01*
X8379510Y2158034D01*
X8373465Y2156866D01*
X8367623Y2155291D01*
X8361984Y2153259D01*
X8356650Y2150821D01*
X8351570Y2147976D01*
X8346744Y2144725D01*
X8342223Y2141118D01*
X8338007Y2137206D01*
X8334146Y2132888D01*
X8330590Y2128266D01*
X8327440Y2123338D01*
X8324596Y2118106D01*
X8322208Y2112619D01*
X8320176Y2106828D01*
X8318550Y2100783D01*
X8317433Y2094484D01*
X8316722Y2087981D01*
X8316468Y2081275D01*
X8316671Y2074418D01*
X8317382Y2067814D01*
X8318500Y2061413D01*
X8320024Y2055317D01*
X8321954Y2049475D01*
X8324342Y2043938D01*
X8327034Y2038705D01*
X8330184Y2033727D01*
X8333638Y2029155D01*
X8337448Y2024837D01*
X8341614Y2020925D01*
X8346084Y2017369D01*
X8350910Y2014169D01*
X8355990Y2011375D01*
X8361375Y2008936D01*
X8367014Y2006955D01*
X8372957Y2005380D01*
X8379104Y2004212D01*
X8385505Y2003552D01*
X8392160Y2003298D01*
X8398052Y2003450D01*
X8403844Y2003907D01*
X8409533Y2004720D01*
X8415121Y2005888D01*
X8420658Y2007412D01*
X8426094Y2009292D01*
X8431428Y2011578D01*
X8436610Y2014220D01*
X8437118Y2046732D01*
X8424926Y2046732D01*
X8419338Y2018538D01*
X8412988Y2015998D01*
X8406536Y2014372D01*
X8400034Y2013457D01*
X8393684Y2013204D01*
X8387842Y2013457D01*
X8382253Y2014270D01*
X8376920Y2015642D01*
X8371840Y2017572D01*
X8367064Y2020011D01*
X8362594Y2022957D01*
X8358479Y2026462D01*
X8354720Y2030475D01*
X8351316Y2035048D01*
X8348319Y2040077D01*
X8345728Y2045665D01*
X8343595Y2051761D01*
X8341868Y2058416D01*
X8340598Y2065528D01*
X8339836Y2073148D01*
X8339581Y2081275D01*
X8339886Y2089302D01*
X8340699Y2096871D01*
X8342020Y2103983D01*
X8343849Y2110536D01*
X8346186Y2116632D01*
X8348929Y2122220D01*
X8352078Y2127300D01*
X8355634Y2131872D01*
X8359495Y2135936D01*
X8363762Y2139442D01*
X8368284Y2142439D01*
X8373109Y2144928D01*
X8378190Y2146858D01*
X8383524Y2148230D01*
X8389010Y2149094D01*
X8394700Y2149348D01*
X8400288Y2148992D01*
X8405926Y2147976D01*
X8411616Y2146249D01*
X8417306Y2143760D01*
X8422894Y2115312D01*
X8435086Y2115312D01*
X8434578Y2148078D01*
X8429142Y2150973D01*
X8423605Y2153310D01*
X8418118Y2155240D01*
X8412683Y2156663D01*
X8407349Y2157730D01*
X8402116Y2158492D01*
X8397036Y2158898D01*
G37*
G36*
X9127236Y2115058D02*
G01*
X9121546Y2114804D01*
X9116161Y2113991D01*
X9111132Y2112619D01*
X9106458Y2110790D01*
X9102191Y2108403D01*
X9098381Y2105558D01*
X9095079Y2102205D01*
X9092336Y2098446D01*
X9090101Y2094179D01*
X9088475Y2089454D01*
X9087459Y2084324D01*
X9087118Y2078482D01*
X9104630Y2078482D01*
X9105036Y2084628D01*
X9106204Y2090166D01*
X9108135Y2095144D01*
X9110726Y2099360D01*
X9114028Y2102764D01*
X9117939Y2105304D01*
X9122410Y2106879D01*
X9127490Y2107438D01*
X9132468Y2106879D01*
X9136837Y2105355D01*
X9140596Y2102866D01*
X9143796Y2099513D01*
X9146286Y2095398D01*
X9148114Y2090623D01*
X9149232Y2085187D01*
X9149588Y2079243D01*
X9149181Y2072995D01*
X9148064Y2067306D01*
X9146184Y2062225D01*
X9143593Y2057907D01*
X9140342Y2054352D01*
X9136430Y2051761D01*
X9131858Y2050084D01*
X9126728Y2049525D01*
X9121851Y2050034D01*
X9117482Y2051608D01*
X9113723Y2054047D01*
X9110522Y2057450D01*
X9107982Y2061616D01*
X9106154Y2066543D01*
X9105036Y2072182D01*
X9104630Y2078482D01*
X9087118Y2078482D01*
X9087408Y2073300D01*
X9088323Y2068322D01*
X9089745Y2063750D01*
X9091726Y2059584D01*
X9094165Y2055825D01*
X9097060Y2052523D01*
X9100413Y2049678D01*
X9104122Y2047239D01*
X9097010Y2039975D01*
X9092336Y2033676D01*
X9089694Y2027986D01*
X9088882Y2022602D01*
X9089847Y2016658D01*
X9092692Y2011781D01*
X9097264Y2007971D01*
X9103360Y2005330D01*
X9093352Y1999742D01*
X9086646Y1993849D01*
X9082938Y1987600D01*
X9082285Y1983739D01*
X9099042Y1983739D01*
X9099600Y1989328D01*
X9101226Y1994357D01*
X9104071Y1999183D01*
X9108186Y2004060D01*
X9119108Y2003552D01*
X9144762Y2003552D01*
X9154972Y2002180D01*
X9161830Y1998370D01*
X9165640Y1992731D01*
X9166860Y1985772D01*
X9166250Y1980996D01*
X9164421Y1976526D01*
X9161322Y1972564D01*
X9157055Y1969160D01*
X9151620Y1966315D01*
X9145016Y1964182D01*
X9137192Y1962861D01*
X9128252Y1962404D01*
X9121952Y1962708D01*
X9116314Y1963674D01*
X9111284Y1965248D01*
X9107068Y1967534D01*
X9103664Y1970532D01*
X9101124Y1974189D01*
X9099600Y1978609D01*
X9099042Y1983739D01*
X9082285Y1983739D01*
X9081770Y1980692D01*
X9082074Y1976780D01*
X9082938Y1973122D01*
X9084462Y1969668D01*
X9086596Y1966468D01*
X9089390Y1963572D01*
X9092793Y1960981D01*
X9096959Y1958695D01*
X9101734Y1956816D01*
X9107271Y1955292D01*
X9113520Y1954174D01*
X9120530Y1953514D01*
X9128252Y1953260D01*
X9136938Y1953666D01*
X9144914Y1954784D01*
X9152128Y1956562D01*
X9158630Y1958898D01*
X9164320Y1961845D01*
X9169298Y1965198D01*
X9173514Y1968957D01*
X9176969Y1973072D01*
X9179661Y1977491D01*
X9181592Y1982063D01*
X9182709Y1986788D01*
X9183116Y1991614D01*
X9182557Y1997862D01*
X9180931Y2003399D01*
X9178188Y2008225D01*
X9174327Y2012289D01*
X9169349Y2015489D01*
X9163202Y2017877D01*
X9155836Y2019300D01*
X9147302Y2019807D01*
X9117838Y2019807D01*
X9110878Y2020519D01*
X9106509Y2022551D01*
X9104274Y2025802D01*
X9103614Y2030222D01*
X9104020Y2034032D01*
X9105138Y2037537D01*
X9107068Y2041042D01*
X9109710Y2044700D01*
X9113824Y2043531D01*
X9118092Y2042617D01*
X9122562Y2042109D01*
X9127236Y2041906D01*
X9132925Y2042160D01*
X9138310Y2043023D01*
X9143339Y2044395D01*
X9148013Y2046274D01*
X9152280Y2048662D01*
X9156090Y2051557D01*
X9159392Y2054961D01*
X9162135Y2058822D01*
X9164370Y2063140D01*
X9165996Y2067915D01*
X9167012Y2073097D01*
X9167368Y2078736D01*
X9166961Y2084933D01*
X9165793Y2090572D01*
X9163913Y2095601D01*
X9161526Y2100072D01*
X9184132Y2099564D01*
X9184132Y2112772D01*
X9180830Y2114804D01*
X9155430Y2106422D01*
X9149740Y2110232D01*
X9143034Y2112924D01*
X9135516Y2114550D01*
G37*
G36*
X9339580Y2115058D02*
G01*
X9334398Y2114702D01*
X9329166Y2113635D01*
X9323933Y2111908D01*
X9318802Y2109520D01*
X9313722Y2106574D01*
X9308846Y2103069D01*
X9304121Y2099005D01*
X9299702Y2094484D01*
X9297924Y2112772D01*
X9294876Y2114804D01*
X9263380Y2102612D01*
X9263380Y2096007D01*
X9281160Y2094230D01*
X9281617Y2080971D01*
X9281414Y2015998D01*
X9264904Y2013457D01*
X9264904Y2006600D01*
X9316212Y2006600D01*
X9316212Y2013457D01*
X9300718Y2015998D01*
X9300210Y2053336D01*
X9300210Y2086356D01*
X9308592Y2093061D01*
X9316415Y2097633D01*
X9323933Y2100275D01*
X9331452Y2101088D01*
X9335973Y2100732D01*
X9339783Y2099716D01*
X9342932Y2097836D01*
X9345472Y2095144D01*
X9347352Y2091486D01*
X9348724Y2086813D01*
X9349486Y2081072D01*
X9349740Y2074164D01*
X9349486Y2015998D01*
X9332976Y2013457D01*
X9332976Y2006600D01*
X9384284Y2006600D01*
X9384284Y2013457D01*
X9368536Y2015998D01*
X9368028Y2053336D01*
X9368028Y2074672D01*
X9367570Y2084628D01*
X9366250Y2093112D01*
X9364065Y2100072D01*
X9360966Y2105609D01*
X9356953Y2109825D01*
X9352076Y2112772D01*
X9346285Y2114499D01*
G37*
G36*
X9444228Y2115058D02*
G01*
X9438538Y2114804D01*
X9433153Y2113991D01*
X9428073Y2112619D01*
X9423450Y2110790D01*
X9419183Y2108403D01*
X9415373Y2105558D01*
X9412071Y2102205D01*
X9409328Y2098446D01*
X9407093Y2094179D01*
X9405467Y2089454D01*
X9404451Y2084324D01*
X9404110Y2078482D01*
X9421622Y2078482D01*
X9422028Y2084628D01*
X9423196Y2090166D01*
X9425127Y2095144D01*
X9427718Y2099360D01*
X9431020Y2102764D01*
X9434931Y2105304D01*
X9439402Y2106879D01*
X9444482Y2107438D01*
X9449460Y2106879D01*
X9453829Y2105355D01*
X9457588Y2102866D01*
X9460788Y2099513D01*
X9463278Y2095398D01*
X9465106Y2090623D01*
X9466224Y2085187D01*
X9466580Y2079243D01*
X9466173Y2072995D01*
X9465056Y2067306D01*
X9463176Y2062225D01*
X9460585Y2057907D01*
X9457334Y2054352D01*
X9453422Y2051761D01*
X9448850Y2050084D01*
X9443720Y2049525D01*
X9438843Y2050034D01*
X9434474Y2051608D01*
X9430715Y2054047D01*
X9427514Y2057450D01*
X9424974Y2061616D01*
X9423146Y2066543D01*
X9422028Y2072182D01*
X9421622Y2078482D01*
X9404110Y2078482D01*
X9404400Y2073300D01*
X9405315Y2068322D01*
X9406737Y2063750D01*
X9408718Y2059584D01*
X9411157Y2055825D01*
X9414052Y2052523D01*
X9417405Y2049678D01*
X9421114Y2047239D01*
X9414002Y2039975D01*
X9409277Y2033676D01*
X9406686Y2027986D01*
X9405874Y2022602D01*
X9406839Y2016658D01*
X9409684Y2011781D01*
X9414256Y2007971D01*
X9420352Y2005330D01*
X9410344Y1999742D01*
X9403638Y1993849D01*
X9399930Y1987600D01*
X9399277Y1983739D01*
X9416034Y1983739D01*
X9416592Y1989328D01*
X9418218Y1994357D01*
X9421063Y1999183D01*
X9425178Y2004060D01*
X9436100Y2003552D01*
X9461754Y2003552D01*
X9471964Y2002180D01*
X9478822Y1998370D01*
X9482632Y1992731D01*
X9483852Y1985772D01*
X9483242Y1980996D01*
X9481413Y1976526D01*
X9478314Y1972564D01*
X9474047Y1969160D01*
X9468612Y1966315D01*
X9462008Y1964182D01*
X9454184Y1962861D01*
X9445244Y1962404D01*
X9438944Y1962708D01*
X9433306Y1963674D01*
X9428276Y1965248D01*
X9424060Y1967534D01*
X9420656Y1970532D01*
X9418116Y1974189D01*
X9416592Y1978609D01*
X9416034Y1983739D01*
X9399277Y1983739D01*
X9398762Y1980692D01*
X9399066Y1976780D01*
X9399930Y1973122D01*
X9401454Y1969668D01*
X9403588Y1966468D01*
X9406382Y1963572D01*
X9409836Y1960981D01*
X9413951Y1958695D01*
X9418726Y1956816D01*
X9424263Y1955292D01*
X9430512Y1954174D01*
X9437522Y1953514D01*
X9445244Y1953260D01*
X9453930Y1953666D01*
X9461906Y1954784D01*
X9469120Y1956562D01*
X9475622Y1958898D01*
X9481312Y1961845D01*
X9486290Y1965198D01*
X9490506Y1968957D01*
X9493961Y1973072D01*
X9496653Y1977491D01*
X9498584Y1982063D01*
X9499701Y1986788D01*
X9500108Y1991614D01*
X9499549Y1997862D01*
X9497923Y2003399D01*
X9495180Y2008225D01*
X9491370Y2012289D01*
X9486341Y2015489D01*
X9480194Y2017877D01*
X9472828Y2019300D01*
X9464294Y2019807D01*
X9434830Y2019807D01*
X9427870Y2020519D01*
X9423552Y2022551D01*
X9421266Y2025802D01*
X9420606Y2030222D01*
X9421012Y2034032D01*
X9422130Y2037537D01*
X9424009Y2041042D01*
X9426702Y2044700D01*
X9430816Y2043531D01*
X9435084Y2042617D01*
X9439554Y2042109D01*
X9444228Y2041906D01*
X9449917Y2042160D01*
X9455302Y2043023D01*
X9460331Y2044395D01*
X9465005Y2046274D01*
X9469272Y2048662D01*
X9473031Y2051557D01*
X9476384Y2054961D01*
X9479127Y2058822D01*
X9481362Y2063140D01*
X9482988Y2067915D01*
X9484004Y2073097D01*
X9484360Y2078736D01*
X9483953Y2084933D01*
X9482785Y2090572D01*
X9480905Y2095601D01*
X9478518Y2100072D01*
X9501124Y2099564D01*
X9501124Y2112772D01*
X9497822Y2114804D01*
X9472422Y2106422D01*
X9466732Y2110232D01*
X9460026Y2112924D01*
X9452508Y2114550D01*
G37*
G36*
X9565132Y2115058D02*
G01*
X9560052Y2114804D01*
X9555073Y2114042D01*
X9550247Y2112772D01*
X9545574Y2111044D01*
X9541154Y2108911D01*
X9536938Y2106269D01*
X9532975Y2103221D01*
X9529318Y2099716D01*
X9525965Y2095855D01*
X9523018Y2091588D01*
X9520377Y2086965D01*
X9518192Y2081936D01*
X9516414Y2076602D01*
X9515144Y2070912D01*
X9514859Y2068830D01*
X9533636Y2068830D01*
X9535058Y2078024D01*
X9537446Y2085898D01*
X9540646Y2092401D01*
X9544608Y2097633D01*
X9549028Y2101646D01*
X9553905Y2104491D01*
X9558985Y2106117D01*
X9564116Y2106676D01*
X9569246Y2106117D01*
X9573920Y2104542D01*
X9578086Y2102104D01*
X9581642Y2098852D01*
X9584537Y2094992D01*
X9586671Y2090623D01*
X9588042Y2085797D01*
X9588500Y2080768D01*
X9588042Y2075738D01*
X9586264Y2071776D01*
X9582607Y2069236D01*
X9576562Y2068322D01*
X9533636Y2068830D01*
X9514859Y2068830D01*
X9514332Y2064969D01*
X9514078Y2058670D01*
X9514332Y2052320D01*
X9514992Y2046325D01*
X9516160Y2040686D01*
X9517735Y2035403D01*
X9519716Y2030526D01*
X9522053Y2026005D01*
X9524847Y2021890D01*
X9527946Y2018182D01*
X9531400Y2014880D01*
X9535210Y2011984D01*
X9539325Y2009546D01*
X9543745Y2007463D01*
X9548469Y2005888D01*
X9553448Y2004720D01*
X9558680Y2004060D01*
X9564116Y2003806D01*
X9571278Y2004263D01*
X9577933Y2005584D01*
X9584029Y2007666D01*
X9589566Y2010613D01*
X9594596Y2014270D01*
X9599066Y2018588D01*
X9602927Y2023618D01*
X9606280Y2029206D01*
X9601708Y2032254D01*
X9595561Y2025700D01*
X9588652Y2020620D01*
X9580473Y2017420D01*
X9570466Y2016252D01*
X9565233Y2016556D01*
X9560255Y2017471D01*
X9555632Y2018995D01*
X9551365Y2021179D01*
X9547504Y2023922D01*
X9544050Y2027326D01*
X9541052Y2031288D01*
X9538512Y2035911D01*
X9536480Y2041093D01*
X9534956Y2046935D01*
X9533991Y2053386D01*
X9533636Y2060448D01*
X9605010Y2060193D01*
X9606280Y2065629D01*
X9606788Y2072639D01*
X9606432Y2078989D01*
X9605365Y2084882D01*
X9603638Y2090318D01*
X9601301Y2095246D01*
X9598355Y2099716D01*
X9594900Y2103678D01*
X9590938Y2107031D01*
X9586518Y2109876D01*
X9581692Y2112111D01*
X9576511Y2113737D01*
X9570974Y2114702D01*
G37*
G36*
X9693656Y2115058D02*
G01*
X9688982Y2114550D01*
X9684359Y2113127D01*
X9679838Y2110740D01*
X9675520Y2107438D01*
X9671405Y2103323D01*
X9667595Y2098344D01*
X9664141Y2092604D01*
X9661144Y2086102D01*
X9658858Y2112772D01*
X9655810Y2114804D01*
X9624568Y2102612D01*
X9624568Y2096007D01*
X9642348Y2094230D01*
X9642856Y2065020D01*
X9642348Y2015998D01*
X9626092Y2013457D01*
X9626092Y2006600D01*
X9680194Y2006600D01*
X9680194Y2013457D01*
X9661652Y2016252D01*
X9661398Y2070862D01*
X9664954Y2080158D01*
X9669221Y2088083D01*
X9674453Y2094738D01*
X9680702Y2100326D01*
X9683242Y2097786D01*
X9686493Y2095195D01*
X9689846Y2093163D01*
X9693402Y2091893D01*
X9697212Y2091436D01*
X9702901Y2092553D01*
X9706762Y2095601D01*
X9708946Y2100427D01*
X9709658Y2106676D01*
X9707067Y2110232D01*
X9703257Y2112873D01*
X9698685Y2114499D01*
G37*
G36*
X9229852Y2114804D02*
G01*
X9195816Y2102866D01*
X9195816Y2096262D01*
X9213850Y2094484D01*
X9214408Y2080818D01*
X9214612Y2065020D01*
X9214104Y2015998D01*
X9197086Y2013457D01*
X9197086Y2006600D01*
X9248140Y2006600D01*
X9248140Y2013457D01*
X9232900Y2015998D01*
X9232646Y2083307D01*
X9232900Y2112772D01*
G37*
G36*
X8618220Y2113788D02*
G01*
X8585454Y2110486D01*
X8585454Y2103882D01*
X8601456Y2100580D01*
X8600948Y2043938D01*
X8601354Y2033676D01*
X8602827Y2025142D01*
X8605266Y2018182D01*
X8608568Y2012746D01*
X8612733Y2008682D01*
X8617712Y2005888D01*
X8623452Y2004314D01*
X8629904Y2003806D01*
X8635136Y2004161D01*
X8640368Y2005126D01*
X8645550Y2006803D01*
X8650681Y2009089D01*
X8655659Y2012086D01*
X8660485Y2015693D01*
X8665108Y2019960D01*
X8669528Y2024888D01*
X8671560Y2004822D01*
X8702548Y2006600D01*
X8702548Y2013204D01*
X8687308Y2015743D01*
X8687308Y2080006D01*
X8687816Y2111502D01*
X8685784Y2113788D01*
X8653780Y2110232D01*
X8653780Y2103628D01*
X8669528Y2100580D01*
X8669020Y2032762D01*
X8661501Y2026412D01*
X8653780Y2021890D01*
X8645855Y2019198D01*
X8637778Y2018284D01*
X8633460Y2018639D01*
X8629751Y2019655D01*
X8626551Y2021484D01*
X8623909Y2024176D01*
X8621877Y2027834D01*
X8620404Y2032406D01*
X8619540Y2038096D01*
X8619236Y2044954D01*
X8619236Y2080006D01*
X8620252Y2111502D01*
G37*
G36*
X8964676Y2112010D02*
G01*
X8964676Y2105152D01*
X8977122Y2103628D01*
X9018524Y1999996D01*
X9015526Y1992731D01*
X9011158Y1983333D01*
X9008668Y1978964D01*
X9005925Y1974850D01*
X9002979Y1971039D01*
X8999728Y1967585D01*
X8996172Y1964436D01*
X8994394Y1966214D01*
X8990279Y1969719D01*
X8986469Y1972259D01*
X8982557Y1973834D01*
X8978138Y1974342D01*
X8973464Y1973783D01*
X8969197Y1972157D01*
X8965895Y1969312D01*
X8963914Y1965198D01*
X8965539Y1959457D01*
X8969959Y1955088D01*
X8976360Y1952243D01*
X8983980Y1951228D01*
X8987993Y1951532D01*
X8991955Y1952498D01*
X8995765Y1954174D01*
X8999575Y1956511D01*
X9003334Y1959610D01*
X9006992Y1963470D01*
X9010650Y1968144D01*
X9014256Y1973630D01*
X9017863Y1979930D01*
X9021470Y1987143D01*
X9025077Y1995271D01*
X9028684Y2004314D01*
X9066022Y2103120D01*
X9078468Y2105152D01*
X9078468Y2112010D01*
X9035288Y2112010D01*
X9035288Y2105152D01*
X9055354Y2102866D01*
X9027414Y2023872D01*
X8998204Y2103120D01*
X9017508Y2105152D01*
X9017508Y2112010D01*
G37*
G36*
X9185402Y1955292D02*
G01*
X9180931Y1955038D01*
X9176512Y1954275D01*
X9172194Y1953006D01*
X9167977Y1951228D01*
X9163913Y1948840D01*
X9160052Y1945843D01*
X9156395Y1942287D01*
X9152940Y1938070D01*
X9149791Y1933193D01*
X9146997Y1927656D01*
X9144508Y1921408D01*
X9142374Y1914448D01*
X9140698Y1906778D01*
X9139428Y1898345D01*
X9138666Y1889099D01*
X9138412Y1879092D01*
X9158224Y1879092D01*
X9158478Y1891639D01*
X9159240Y1902612D01*
X9160459Y1912112D01*
X9162084Y1920239D01*
X9164116Y1927098D01*
X9166504Y1932736D01*
X9169146Y1937308D01*
X9172041Y1940814D01*
X9175140Y1943404D01*
X9178442Y1945132D01*
X9181896Y1946097D01*
X9185402Y1946402D01*
X9188805Y1946097D01*
X9192107Y1945132D01*
X9195308Y1943404D01*
X9198356Y1940814D01*
X9201150Y1937308D01*
X9203740Y1932736D01*
X9206026Y1927098D01*
X9208008Y1920239D01*
X9209633Y1912112D01*
X9210802Y1902612D01*
X9211564Y1891639D01*
X9211818Y1879092D01*
X9211564Y1866087D01*
X9210802Y1854657D01*
X9209633Y1844802D01*
X9208008Y1836318D01*
X9206026Y1829155D01*
X9203740Y1823262D01*
X9201150Y1818538D01*
X9198356Y1814880D01*
X9195308Y1812137D01*
X9192107Y1810359D01*
X9188805Y1809292D01*
X9185402Y1808988D01*
X9182760Y1809140D01*
X9180169Y1809699D01*
X9177629Y1810715D01*
X9175140Y1812137D01*
X9172803Y1814068D01*
X9170568Y1816506D01*
X9168434Y1819554D01*
X9166504Y1823161D01*
X9164675Y1827479D01*
X9163050Y1832457D01*
X9161678Y1838198D01*
X9160459Y1844649D01*
X9159494Y1851964D01*
X9158833Y1860092D01*
X9158376Y1869135D01*
X9158224Y1879092D01*
X9138412Y1879092D01*
X9138666Y1868728D01*
X9139428Y1859178D01*
X9140698Y1850440D01*
X9142374Y1842516D01*
X9144508Y1835353D01*
X9146997Y1828901D01*
X9149791Y1823212D01*
X9152940Y1818233D01*
X9156395Y1813915D01*
X9160052Y1810257D01*
X9163913Y1807210D01*
X9167977Y1804771D01*
X9172194Y1802892D01*
X9176512Y1801622D01*
X9180931Y1800860D01*
X9185402Y1800606D01*
X9189770Y1800860D01*
X9194088Y1801622D01*
X9198356Y1802892D01*
X9202521Y1804771D01*
X9206534Y1807210D01*
X9210395Y1810257D01*
X9214002Y1813915D01*
X9217406Y1818233D01*
X9220504Y1823212D01*
X9223349Y1828901D01*
X9225788Y1835353D01*
X9227921Y1842516D01*
X9229598Y1850440D01*
X9230868Y1859178D01*
X9231630Y1868728D01*
X9231884Y1879092D01*
X9231630Y1889099D01*
X9230868Y1898345D01*
X9229598Y1906778D01*
X9227921Y1914448D01*
X9225788Y1921408D01*
X9223349Y1927656D01*
X9220504Y1933193D01*
X9217406Y1938070D01*
X9214002Y1942287D01*
X9210395Y1945843D01*
X9206534Y1948840D01*
X9202521Y1951228D01*
X9198356Y1953006D01*
X9194088Y1954275D01*
X9189770Y1955038D01*
G37*
G36*
X9362440Y1955292D02*
G01*
X9356953Y1955038D01*
X9351670Y1954377D01*
X9346539Y1953209D01*
X9341713Y1951583D01*
X9337141Y1949450D01*
X9332925Y1946910D01*
X9329115Y1943862D01*
X9325762Y1940407D01*
X9322917Y1936445D01*
X9320580Y1932025D01*
X9318853Y1927098D01*
X9317736Y1921764D01*
X9319717Y1918970D01*
X9322206Y1916836D01*
X9325152Y1915414D01*
X9328404Y1914906D01*
X9332417Y1915668D01*
X9335719Y1918055D01*
X9338462Y1922424D01*
X9340596Y1928875D01*
X9345168Y1945132D01*
X9351619Y1946300D01*
X9357106Y1946656D01*
X9363100Y1946097D01*
X9368434Y1944370D01*
X9373057Y1941626D01*
X9376968Y1937918D01*
X9380118Y1933346D01*
X9382404Y1927910D01*
X9383826Y1921764D01*
X9384284Y1914906D01*
X9384080Y1910486D01*
X9383420Y1906016D01*
X9382353Y1901596D01*
X9380829Y1897075D01*
X9378899Y1892452D01*
X9376511Y1887778D01*
X9373666Y1882902D01*
X9370364Y1877872D01*
X9362389Y1867204D01*
X9352534Y1855470D01*
X9318752Y1817116D01*
X9318752Y1803400D01*
X9410192Y1803400D01*
X9410192Y1820672D01*
X9332976Y1820672D01*
X9359138Y1847596D01*
X9374022Y1863394D01*
X9385503Y1876501D01*
X9390126Y1882241D01*
X9393986Y1887575D01*
X9397136Y1892604D01*
X9399625Y1897380D01*
X9401556Y1902002D01*
X9402826Y1906574D01*
X9403588Y1911197D01*
X9403842Y1915922D01*
X9403588Y1921560D01*
X9402775Y1926843D01*
X9401403Y1931822D01*
X9399473Y1936394D01*
X9396984Y1940560D01*
X9393885Y1944268D01*
X9390227Y1947519D01*
X9385909Y1950212D01*
X9381032Y1952396D01*
X9375495Y1953971D01*
X9369298Y1954936D01*
G37*
G36*
X9016492Y1908810D02*
G01*
X9016492Y1901443D01*
X9029192Y1899666D01*
X9069324Y1801875D01*
X9078468Y1801875D01*
X9114790Y1898650D01*
X9127236Y1901443D01*
X9127236Y1908810D01*
X9086342Y1908810D01*
X9086342Y1901443D01*
X9104630Y1898650D01*
X9078722Y1824228D01*
X9050528Y1899412D01*
X9069832Y1901443D01*
X9069832Y1908810D01*
G37*
G36*
X9274302Y1830832D02*
G01*
X9268409Y1829612D01*
X9263684Y1826310D01*
X9260484Y1821383D01*
X9259316Y1815338D01*
X9260484Y1809699D01*
X9263684Y1805025D01*
X9268409Y1801825D01*
X9274302Y1800606D01*
X9280194Y1801825D01*
X9285071Y1805025D01*
X9288322Y1809699D01*
X9289542Y1815338D01*
X9288322Y1821383D01*
X9285071Y1826310D01*
X9280194Y1829612D01*
G37*
G36*
X3328670Y6844030D02*
G01*
X3282950Y6832092D01*
X3282950Y6824472D01*
X3312668Y6827266D01*
X3312617Y6730949D01*
X3312160Y6704330D01*
X3280664Y6699758D01*
X3280664Y6692900D01*
X3362706Y6692900D01*
X3362706Y6699758D01*
X3331464Y6704330D01*
X3330956Y6739890D01*
X3330956Y6809740D01*
X3331718Y6841744D01*
G37*
G36*
X2900934Y1574292D02*
G01*
X2896412Y1574038D01*
X2891993Y1573276D01*
X2887624Y1572006D01*
X2883408Y1570228D01*
X2879344Y1567840D01*
X2875483Y1564843D01*
X2871825Y1561287D01*
X2868371Y1557070D01*
X2865272Y1552194D01*
X2862427Y1546656D01*
X2859989Y1540408D01*
X2857906Y1533448D01*
X2856230Y1525778D01*
X2854960Y1517345D01*
X2854198Y1508099D01*
X2853944Y1498092D01*
X2873756Y1498092D01*
X2874010Y1510639D01*
X2874772Y1521612D01*
X2875991Y1531112D01*
X2877616Y1539240D01*
X2879648Y1546098D01*
X2882036Y1551736D01*
X2884678Y1556308D01*
X2887573Y1559814D01*
X2890672Y1562404D01*
X2893974Y1564132D01*
X2897428Y1565097D01*
X2900934Y1565402D01*
X2904286Y1565097D01*
X2907588Y1564132D01*
X2910738Y1562404D01*
X2913786Y1559814D01*
X2916580Y1556308D01*
X2919171Y1551736D01*
X2921508Y1546098D01*
X2923489Y1539240D01*
X2925114Y1531112D01*
X2926334Y1521612D01*
X2927096Y1510639D01*
X2927350Y1498092D01*
X2927096Y1485087D01*
X2926334Y1473657D01*
X2925114Y1463802D01*
X2923489Y1455318D01*
X2921508Y1448155D01*
X2919171Y1442262D01*
X2916580Y1437538D01*
X2913786Y1433880D01*
X2910738Y1431137D01*
X2907588Y1429359D01*
X2904286Y1428292D01*
X2900934Y1427988D01*
X2898292Y1428140D01*
X2895701Y1428699D01*
X2893161Y1429715D01*
X2890672Y1431137D01*
X2888335Y1433068D01*
X2886100Y1435506D01*
X2883966Y1438554D01*
X2882036Y1442161D01*
X2880207Y1446479D01*
X2878582Y1451457D01*
X2877210Y1457198D01*
X2875991Y1463649D01*
X2875026Y1470964D01*
X2874365Y1479092D01*
X2873908Y1488135D01*
X2873756Y1498092D01*
X2853944Y1498092D01*
X2854198Y1487728D01*
X2854960Y1478178D01*
X2856230Y1469440D01*
X2857906Y1461516D01*
X2859989Y1454353D01*
X2862427Y1447901D01*
X2865272Y1442212D01*
X2868371Y1437233D01*
X2871825Y1432915D01*
X2875483Y1429258D01*
X2879344Y1426210D01*
X2883408Y1423771D01*
X2887624Y1421892D01*
X2891993Y1420622D01*
X2896412Y1419860D01*
X2900934Y1419606D01*
X2905302Y1419860D01*
X2909620Y1420622D01*
X2913888Y1421892D01*
X2918002Y1423771D01*
X2922016Y1426210D01*
X2925826Y1429258D01*
X2929432Y1432915D01*
X2932836Y1437233D01*
X2935884Y1442212D01*
X2938678Y1447901D01*
X2941167Y1454353D01*
X2943250Y1461516D01*
X2944876Y1469440D01*
X2946146Y1478178D01*
X2946908Y1487728D01*
X2947162Y1498092D01*
X2946908Y1508099D01*
X2946146Y1517345D01*
X2944876Y1525778D01*
X2943250Y1533448D01*
X2941167Y1540408D01*
X2938678Y1546656D01*
X2935884Y1552194D01*
X2932836Y1557070D01*
X2929432Y1561287D01*
X2925826Y1564843D01*
X2922016Y1567840D01*
X2918002Y1570228D01*
X2913888Y1572006D01*
X2909620Y1573276D01*
X2905302Y1574038D01*
G37*
G36*
X2881376Y3400044D02*
G01*
X2881376Y3382772D01*
X2959354Y3382772D01*
X2900172Y3253232D01*
X2902204Y3251200D01*
X2919222Y3251200D01*
X2971800Y3389122D01*
X2971800Y3400044D01*
G37*
G36*
X2900934Y5816092D02*
G01*
X2896412Y5815838D01*
X2891993Y5815076D01*
X2887624Y5813806D01*
X2883408Y5812028D01*
X2879344Y5809640D01*
X2875483Y5806643D01*
X2871825Y5803087D01*
X2868371Y5798870D01*
X2865272Y5793994D01*
X2862427Y5788456D01*
X2859989Y5782208D01*
X2857906Y5775248D01*
X2856230Y5767578D01*
X2854960Y5759145D01*
X2854198Y5749899D01*
X2853944Y5739892D01*
X2873756Y5739892D01*
X2874010Y5752439D01*
X2874772Y5763412D01*
X2875991Y5772912D01*
X2877616Y5781040D01*
X2879648Y5787898D01*
X2882036Y5793536D01*
X2884678Y5798108D01*
X2887573Y5801614D01*
X2890672Y5804204D01*
X2893974Y5805932D01*
X2897428Y5806897D01*
X2900934Y5807202D01*
X2904286Y5806897D01*
X2907588Y5805932D01*
X2910738Y5804204D01*
X2913786Y5801614D01*
X2916580Y5798108D01*
X2919171Y5793536D01*
X2921508Y5787898D01*
X2923489Y5781040D01*
X2925114Y5772912D01*
X2926334Y5763412D01*
X2927096Y5752439D01*
X2927350Y5739892D01*
X2927096Y5726887D01*
X2926334Y5715457D01*
X2925114Y5705602D01*
X2923489Y5697118D01*
X2921508Y5689955D01*
X2919171Y5684062D01*
X2916580Y5679338D01*
X2913786Y5675680D01*
X2910738Y5672937D01*
X2907588Y5671159D01*
X2904286Y5670092D01*
X2900934Y5669788D01*
X2898292Y5669940D01*
X2895701Y5670499D01*
X2893161Y5671515D01*
X2890672Y5672937D01*
X2888335Y5674868D01*
X2886100Y5677306D01*
X2883966Y5680354D01*
X2882036Y5683961D01*
X2880207Y5688279D01*
X2878582Y5693257D01*
X2877210Y5698998D01*
X2875991Y5705449D01*
X2875026Y5712764D01*
X2874365Y5720892D01*
X2873908Y5729935D01*
X2873756Y5739892D01*
X2853944Y5739892D01*
X2854198Y5729528D01*
X2854960Y5719978D01*
X2856230Y5711240D01*
X2857906Y5703316D01*
X2859989Y5696153D01*
X2862427Y5689701D01*
X2865272Y5684012D01*
X2868371Y5679033D01*
X2871825Y5674715D01*
X2875483Y5671058D01*
X2879344Y5668010D01*
X2883408Y5665571D01*
X2887624Y5663692D01*
X2891993Y5662422D01*
X2896412Y5661660D01*
X2900934Y5661406D01*
X2905302Y5661660D01*
X2909620Y5662422D01*
X2913888Y5663692D01*
X2918002Y5665571D01*
X2922016Y5668010D01*
X2925826Y5671058D01*
X2929432Y5674715D01*
X2932836Y5679033D01*
X2935884Y5684012D01*
X2938678Y5689701D01*
X2941167Y5696153D01*
X2943250Y5703316D01*
X2944876Y5711240D01*
X2946146Y5719978D01*
X2946908Y5729528D01*
X2947162Y5739892D01*
X2946908Y5749899D01*
X2946146Y5759145D01*
X2944876Y5767578D01*
X2943250Y5775248D01*
X2941167Y5782208D01*
X2938678Y5788456D01*
X2935884Y5793994D01*
X2932836Y5798870D01*
X2929432Y5803087D01*
X2925826Y5806643D01*
X2922016Y5809640D01*
X2918002Y5812028D01*
X2913888Y5813806D01*
X2909620Y5815076D01*
X2905302Y5815838D01*
G37*
G36*
X2881376Y4035044D02*
G01*
X2881376Y4017772D01*
X2959354Y4017772D01*
X2900172Y3888232D01*
X2902204Y3886200D01*
X2919222Y3886200D01*
X2971800Y4024122D01*
X2971800Y4035044D01*
G37*
G36*
X2138934Y5828792D02*
G01*
X2134412Y5828538D01*
X2129993Y5827776D01*
X2125624Y5826506D01*
X2121408Y5824728D01*
X2117344Y5822340D01*
X2113483Y5819343D01*
X2109825Y5815787D01*
X2106371Y5811570D01*
X2103272Y5806694D01*
X2100427Y5801156D01*
X2097989Y5794908D01*
X2095906Y5787948D01*
X2094230Y5780278D01*
X2092960Y5771845D01*
X2092198Y5762599D01*
X2091943Y5752592D01*
X2111756Y5752592D01*
X2112010Y5765139D01*
X2112772Y5776112D01*
X2113991Y5785612D01*
X2115616Y5793740D01*
X2117648Y5800598D01*
X2120036Y5806236D01*
X2122678Y5810808D01*
X2125573Y5814314D01*
X2128672Y5816904D01*
X2131974Y5818632D01*
X2135428Y5819597D01*
X2138934Y5819902D01*
X2142286Y5819597D01*
X2145588Y5818632D01*
X2148738Y5816904D01*
X2151786Y5814314D01*
X2154580Y5810808D01*
X2157171Y5806236D01*
X2159508Y5800598D01*
X2161489Y5793740D01*
X2163114Y5785612D01*
X2164334Y5776112D01*
X2165096Y5765139D01*
X2165350Y5752592D01*
X2165096Y5739587D01*
X2164334Y5728157D01*
X2163114Y5718302D01*
X2161489Y5709818D01*
X2159508Y5702655D01*
X2157171Y5696762D01*
X2154580Y5692038D01*
X2151786Y5688380D01*
X2148738Y5685637D01*
X2145588Y5683859D01*
X2142286Y5682792D01*
X2138934Y5682488D01*
X2136292Y5682640D01*
X2133701Y5683199D01*
X2131161Y5684215D01*
X2128672Y5685637D01*
X2126335Y5687568D01*
X2124100Y5690006D01*
X2121966Y5693054D01*
X2120036Y5696661D01*
X2118207Y5700979D01*
X2116582Y5705957D01*
X2115210Y5711698D01*
X2113991Y5718149D01*
X2113026Y5725464D01*
X2112365Y5733592D01*
X2111908Y5742635D01*
X2111756Y5752592D01*
X2091943Y5752592D01*
X2092198Y5742228D01*
X2092960Y5732678D01*
X2094230Y5723940D01*
X2095906Y5716016D01*
X2097989Y5708853D01*
X2100427Y5702401D01*
X2103272Y5696712D01*
X2106371Y5691733D01*
X2109825Y5687415D01*
X2113483Y5683758D01*
X2117344Y5680710D01*
X2121408Y5678271D01*
X2125624Y5676392D01*
X2129993Y5675122D01*
X2134412Y5674360D01*
X2138934Y5674106D01*
X2143302Y5674360D01*
X2147620Y5675122D01*
X2151888Y5676392D01*
X2156002Y5678271D01*
X2160016Y5680710D01*
X2163826Y5683758D01*
X2167432Y5687415D01*
X2170836Y5691733D01*
X2173884Y5696712D01*
X2176678Y5702401D01*
X2179167Y5708853D01*
X2181250Y5716016D01*
X2182876Y5723940D01*
X2184146Y5732678D01*
X2184908Y5742228D01*
X2185162Y5752592D01*
X2184908Y5762599D01*
X2184146Y5771845D01*
X2182876Y5780278D01*
X2181250Y5787948D01*
X2179167Y5794908D01*
X2176678Y5801156D01*
X2173884Y5806694D01*
X2170836Y5811570D01*
X2167432Y5815787D01*
X2163826Y5819343D01*
X2160016Y5822340D01*
X2156002Y5824728D01*
X2151888Y5826506D01*
X2147620Y5827776D01*
X2143302Y5828538D01*
G37*
G36*
X2119376Y4047744D02*
G01*
X2119376Y4030472D01*
X2197354Y4030472D01*
X2138172Y3900932D01*
X2140204Y3898900D01*
X2157222Y3898900D01*
X2209800Y4036822D01*
X2209800Y4047744D01*
G37*
G36*
X2164334Y3390392D02*
G01*
X2159812Y3390137D01*
X2155393Y3389376D01*
X2151024Y3388106D01*
X2146808Y3386328D01*
X2142744Y3383940D01*
X2138883Y3380943D01*
X2135225Y3377387D01*
X2131771Y3373170D01*
X2128672Y3368294D01*
X2125827Y3362756D01*
X2123389Y3356508D01*
X2121306Y3349548D01*
X2119630Y3341878D01*
X2118360Y3333445D01*
X2117598Y3324199D01*
X2117344Y3314192D01*
X2137156Y3314192D01*
X2137410Y3326739D01*
X2138172Y3337712D01*
X2139391Y3347212D01*
X2141016Y3355340D01*
X2143048Y3362198D01*
X2145436Y3367836D01*
X2148078Y3372408D01*
X2150973Y3375914D01*
X2154072Y3378504D01*
X2157374Y3380232D01*
X2160828Y3381197D01*
X2164334Y3381501D01*
X2167686Y3381197D01*
X2170988Y3380232D01*
X2174138Y3378504D01*
X2177186Y3375914D01*
X2179980Y3372408D01*
X2182571Y3367836D01*
X2184908Y3362198D01*
X2186889Y3355340D01*
X2188514Y3347212D01*
X2189734Y3337712D01*
X2190496Y3326739D01*
X2190750Y3314192D01*
X2190496Y3301187D01*
X2189734Y3289757D01*
X2188514Y3279901D01*
X2186889Y3271418D01*
X2184908Y3264255D01*
X2182571Y3258362D01*
X2179980Y3253638D01*
X2177186Y3249980D01*
X2174138Y3247237D01*
X2170988Y3245459D01*
X2167686Y3244392D01*
X2164334Y3244088D01*
X2161692Y3244240D01*
X2159101Y3244799D01*
X2156561Y3245815D01*
X2154072Y3247237D01*
X2151735Y3249168D01*
X2149500Y3251606D01*
X2147366Y3254654D01*
X2145436Y3258261D01*
X2143607Y3262579D01*
X2141982Y3267557D01*
X2140610Y3273298D01*
X2139391Y3279749D01*
X2138426Y3287064D01*
X2137765Y3295192D01*
X2137308Y3304235D01*
X2137156Y3314192D01*
X2117344Y3314192D01*
X2117598Y3303828D01*
X2118360Y3294278D01*
X2119630Y3285540D01*
X2121306Y3277615D01*
X2123389Y3270453D01*
X2125827Y3264001D01*
X2128672Y3258312D01*
X2131771Y3253333D01*
X2135225Y3249015D01*
X2138883Y3245358D01*
X2142744Y3242310D01*
X2146808Y3239871D01*
X2151024Y3237992D01*
X2155393Y3236722D01*
X2159812Y3235960D01*
X2164334Y3235706D01*
X2168702Y3235960D01*
X2173020Y3236722D01*
X2177288Y3237992D01*
X2181402Y3239871D01*
X2185416Y3242310D01*
X2189226Y3245358D01*
X2192832Y3249015D01*
X2196236Y3253333D01*
X2199284Y3258312D01*
X2202078Y3264001D01*
X2204567Y3270453D01*
X2206650Y3277615D01*
X2208276Y3285540D01*
X2209546Y3294278D01*
X2210308Y3303828D01*
X2210562Y3314192D01*
X2210308Y3324199D01*
X2209546Y3333445D01*
X2208276Y3341878D01*
X2206650Y3349548D01*
X2204567Y3356508D01*
X2202078Y3362756D01*
X2199284Y3368294D01*
X2196236Y3373170D01*
X2192832Y3377387D01*
X2189226Y3380943D01*
X2185416Y3383940D01*
X2181402Y3386328D01*
X2177288Y3388106D01*
X2173020Y3389376D01*
X2168702Y3390137D01*
G37*
G36*
X2144776Y1609344D02*
G01*
X2144776Y1592072D01*
X2222754Y1592072D01*
X2163572Y1462532D01*
X2165604Y1460500D01*
X2182622Y1460500D01*
X2235200Y1598422D01*
X2235200Y1609344D01*
G37*
G36*
X1079246Y4631944D02*
G01*
X1074674Y4562602D01*
X1080262Y4560824D01*
X1085646Y4562144D01*
X1091031Y4563110D01*
X1096365Y4563668D01*
X1101598Y4563872D01*
X1106779Y4563618D01*
X1111605Y4562805D01*
X1116076Y4561433D01*
X1120190Y4559604D01*
X1123848Y4557217D01*
X1127150Y4554321D01*
X1129944Y4550968D01*
X1132281Y4547158D01*
X1134160Y4542891D01*
X1135532Y4538116D01*
X1136345Y4532934D01*
X1136650Y4527296D01*
X1136396Y4521606D01*
X1135684Y4516323D01*
X1134465Y4511395D01*
X1132738Y4506925D01*
X1130554Y4502810D01*
X1127963Y4499254D01*
X1124864Y4496104D01*
X1121359Y4493514D01*
X1117346Y4491431D01*
X1112977Y4489907D01*
X1108100Y4488992D01*
X1102868Y4488688D01*
X1099312Y4488840D01*
X1092352Y4489856D01*
X1088898Y4490720D01*
X1083056Y4510989D01*
X1080668Y4515256D01*
X1077468Y4517491D01*
X1073150Y4518152D01*
X1069746Y4517694D01*
X1066800Y4516424D01*
X1064412Y4514189D01*
X1062736Y4511040D01*
X1064818Y4503877D01*
X1067866Y4497679D01*
X1071778Y4492396D01*
X1076604Y4488078D01*
X1082243Y4484674D01*
X1088745Y4482236D01*
X1096060Y4480814D01*
X1104138Y4480306D01*
X1109929Y4480509D01*
X1115415Y4481220D01*
X1120648Y4482287D01*
X1125575Y4483811D01*
X1130147Y4485741D01*
X1134465Y4488027D01*
X1138377Y4490720D01*
X1141984Y4493717D01*
X1145184Y4497120D01*
X1148029Y4500829D01*
X1150467Y4504842D01*
X1152499Y4509109D01*
X1154125Y4513732D01*
X1155242Y4518609D01*
X1155954Y4523689D01*
X1156208Y4529074D01*
X1155801Y4536236D01*
X1154582Y4542840D01*
X1152652Y4548936D01*
X1150010Y4554423D01*
X1146657Y4559300D01*
X1142695Y4563567D01*
X1138123Y4567275D01*
X1132941Y4570272D01*
X1127252Y4572711D01*
X1121105Y4574387D01*
X1114501Y4575454D01*
X1107440Y4575810D01*
X1101496Y4575606D01*
X1095908Y4574997D01*
X1090422Y4573981D01*
X1085088Y4572508D01*
X1087882Y4614672D01*
X1152144Y4614672D01*
X1152144Y4631944D01*
G37*
G36*
X1168400Y4631944D02*
G01*
X1168400Y4624324D01*
X1185418Y4622546D01*
X1237488Y4481576D01*
X1246632Y4481576D01*
X1293368Y4621784D01*
X1312672Y4624578D01*
X1312672Y4631944D01*
X1261872Y4631944D01*
X1261872Y4623562D01*
X1282192Y4621530D01*
X1246124Y4509770D01*
X1207008Y4621784D01*
X1228852Y4623562D01*
X1228852Y4631944D01*
G37*
G36*
X1013714Y3644900D02*
G01*
X1007110Y3644646D01*
X1000709Y3643934D01*
X994562Y3642766D01*
X988669Y3641140D01*
X982980Y3639058D01*
X977595Y3636619D01*
X972464Y3633724D01*
X967689Y3630472D01*
X963168Y3626865D01*
X959002Y3622903D01*
X955141Y3618585D01*
X951636Y3613962D01*
X948486Y3609035D01*
X945743Y3603802D01*
X943356Y3598265D01*
X941374Y3592525D01*
X939800Y3586530D01*
X938682Y3580282D01*
X938021Y3573830D01*
X937768Y3567176D01*
X937971Y3560419D01*
X938682Y3553866D01*
X939749Y3547567D01*
X941273Y3541522D01*
X943254Y3535679D01*
X945540Y3530193D01*
X948283Y3524910D01*
X951382Y3519982D01*
X954786Y3515360D01*
X958596Y3511042D01*
X962710Y3507079D01*
X967181Y3503472D01*
X971956Y3500221D01*
X976985Y3497376D01*
X982370Y3494938D01*
X987958Y3492906D01*
X993851Y3491331D01*
X999998Y3490163D01*
X1006348Y3489451D01*
X1012952Y3489198D01*
X1019657Y3489401D01*
X1026058Y3490061D01*
X1032256Y3491128D01*
X1038250Y3492652D01*
X1044143Y3494481D01*
X1049934Y3496716D01*
X1055674Y3499256D01*
X1061466Y3502151D01*
X1061618Y3533698D01*
X1061974Y3554476D01*
X1075436Y3555746D01*
X1075436Y3563365D01*
X1017524Y3563365D01*
X1017524Y3555746D01*
X1041146Y3553968D01*
X1041400Y3503422D01*
X1035354Y3501440D01*
X1029258Y3500120D01*
X1023010Y3499358D01*
X1016508Y3499104D01*
X1010259Y3499408D01*
X1004366Y3500272D01*
X998728Y3501745D01*
X993444Y3503726D01*
X988517Y3506317D01*
X983945Y3509365D01*
X979728Y3513023D01*
X975918Y3517137D01*
X972515Y3521760D01*
X969518Y3526891D01*
X966927Y3532479D01*
X964793Y3538524D01*
X963117Y3545027D01*
X961898Y3551986D01*
X961136Y3559403D01*
X960882Y3567176D01*
X961136Y3575050D01*
X961948Y3582517D01*
X963218Y3589477D01*
X964996Y3596030D01*
X967232Y3602075D01*
X969873Y3607714D01*
X972972Y3612794D01*
X976426Y3617417D01*
X980287Y3621532D01*
X984503Y3625087D01*
X989025Y3628136D01*
X993902Y3630676D01*
X999032Y3632657D01*
X1004468Y3634079D01*
X1010107Y3634943D01*
X1016000Y3635248D01*
X1022654Y3634841D01*
X1029055Y3633673D01*
X1035202Y3631590D01*
X1041146Y3628644D01*
X1046480Y3600958D01*
X1058672Y3600958D01*
X1058164Y3633978D01*
X1053490Y3636568D01*
X1048664Y3638804D01*
X1043635Y3640683D01*
X1038301Y3642207D01*
X1032713Y3643376D01*
X1026769Y3644239D01*
X1020470Y3644747D01*
G37*
G36*
X1088390Y3641344D02*
G01*
X1088390Y3633724D01*
X1104392Y3631692D01*
X1106424Y3628898D01*
X1106170Y3502914D01*
X1087374Y3500120D01*
X1087374Y3492500D01*
X1139952Y3492500D01*
X1139952Y3500120D01*
X1116330Y3503168D01*
X1115822Y3615944D01*
X1206754Y3490976D01*
X1214628Y3490976D01*
X1214882Y3631184D01*
X1233424Y3633724D01*
X1233424Y3641344D01*
X1180846Y3641344D01*
X1180846Y3633724D01*
X1204722Y3630929D01*
X1204976Y3527551D01*
X1122680Y3641344D01*
G37*
G36*
X1250442Y3641344D02*
G01*
X1250442Y3633724D01*
X1271016Y3631437D01*
X1271422Y3609340D01*
X1271524Y3547922D01*
X1291844Y3547821D01*
X1291945Y3610254D01*
X1292352Y3632708D01*
X1311656Y3632708D01*
X1317752Y3632454D01*
X1323543Y3631641D01*
X1328978Y3630320D01*
X1334058Y3628440D01*
X1338783Y3626104D01*
X1343101Y3623208D01*
X1347063Y3619804D01*
X1350670Y3615893D01*
X1353820Y3611524D01*
X1356614Y3606596D01*
X1359001Y3601212D01*
X1360932Y3595319D01*
X1362506Y3588918D01*
X1363573Y3582060D01*
X1364284Y3574745D01*
X1364488Y3566922D01*
X1364284Y3559352D01*
X1363573Y3552240D01*
X1362456Y3545484D01*
X1360932Y3539236D01*
X1358950Y3533394D01*
X1356512Y3528009D01*
X1353667Y3523081D01*
X1350416Y3518611D01*
X1346708Y3514648D01*
X1342593Y3511194D01*
X1338122Y3508248D01*
X1333195Y3505809D01*
X1327912Y3503879D01*
X1322171Y3502507D01*
X1316075Y3501694D01*
X1309624Y3501390D01*
X1292352Y3501390D01*
X1291844Y3547821D01*
X1271523Y3547821D01*
X1271320Y3517137D01*
X1271016Y3502406D01*
X1250442Y3500120D01*
X1250442Y3492500D01*
X1311148Y3492500D01*
X1317701Y3492703D01*
X1324051Y3493312D01*
X1330147Y3494278D01*
X1336090Y3495649D01*
X1341729Y3497427D01*
X1347165Y3499561D01*
X1352296Y3502050D01*
X1357172Y3504946D01*
X1361694Y3508197D01*
X1365961Y3511804D01*
X1369872Y3515766D01*
X1373428Y3520084D01*
X1376629Y3524758D01*
X1379423Y3529787D01*
X1381861Y3535172D01*
X1383893Y3540861D01*
X1385468Y3546856D01*
X1386636Y3553256D01*
X1387348Y3559911D01*
X1387602Y3566922D01*
X1387398Y3573983D01*
X1386738Y3580688D01*
X1385671Y3587038D01*
X1384198Y3593084D01*
X1382369Y3598824D01*
X1380134Y3604158D01*
X1377543Y3609187D01*
X1374546Y3613861D01*
X1371244Y3618179D01*
X1367586Y3622141D01*
X1363624Y3625748D01*
X1359357Y3628948D01*
X1354785Y3631844D01*
X1349908Y3634333D01*
X1344726Y3636467D01*
X1339342Y3638194D01*
X1333652Y3639565D01*
X1327708Y3640531D01*
X1321562Y3641140D01*
X1315212Y3641344D01*
G37*
G36*
X2347468Y1270000D02*
G01*
X2340610Y1269695D01*
X2334107Y1268780D01*
X2327960Y1267256D01*
X2322220Y1265174D01*
X2316937Y1262481D01*
X2312212Y1259281D01*
X2308098Y1255522D01*
X2304592Y1251204D01*
X2301748Y1246428D01*
X2299665Y1241145D01*
X2298395Y1235354D01*
X2297938Y1229106D01*
X2298242Y1223721D01*
X2299157Y1218692D01*
X2300681Y1214069D01*
X2302764Y1209751D01*
X2305354Y1205738D01*
X2308453Y1202029D01*
X2312009Y1198575D01*
X2316073Y1195374D01*
X2320544Y1192428D01*
X2325420Y1189634D01*
X2336292Y1184656D01*
X2351633Y1178153D01*
X2357526Y1175258D01*
X2362403Y1172210D01*
X2366314Y1168958D01*
X2369261Y1165402D01*
X2371293Y1161440D01*
X2372461Y1156970D01*
X2372868Y1151890D01*
X2372207Y1145540D01*
X2370328Y1139952D01*
X2367229Y1135227D01*
X2363063Y1131265D01*
X2357932Y1128217D01*
X2351887Y1125982D01*
X2344978Y1124661D01*
X2337308Y1124204D01*
X2330602Y1124508D01*
X2324658Y1125423D01*
X2319223Y1127099D01*
X2313940Y1129538D01*
X2308098Y1157478D01*
X2296668Y1157478D01*
X2295398Y1126236D01*
X2299462Y1123848D01*
X2304084Y1121562D01*
X2309114Y1119581D01*
X2314498Y1117803D01*
X2320239Y1116330D01*
X2326182Y1115212D01*
X2332329Y1114552D01*
X2338578Y1114298D01*
X2346147Y1114602D01*
X2353208Y1115618D01*
X2359863Y1117193D01*
X2365959Y1119428D01*
X2371547Y1122222D01*
X2376474Y1125626D01*
X2380792Y1129538D01*
X2384399Y1133957D01*
X2387295Y1138936D01*
X2389428Y1144422D01*
X2390698Y1150315D01*
X2391156Y1156716D01*
X2390902Y1161745D01*
X2390190Y1166469D01*
X2388971Y1170889D01*
X2387142Y1175054D01*
X2384806Y1178915D01*
X2381859Y1182624D01*
X2378354Y1186129D01*
X2374138Y1189431D01*
X2369312Y1192631D01*
X2363774Y1195730D01*
X2357526Y1198727D01*
X2341372Y1205230D01*
X2335682Y1207719D01*
X2330704Y1210411D01*
X2326386Y1213408D01*
X2322779Y1216761D01*
X2319985Y1220470D01*
X2317902Y1224534D01*
X2316632Y1229106D01*
X2316226Y1234186D01*
X2316835Y1240180D01*
X2318562Y1245463D01*
X2321356Y1249934D01*
X2325065Y1253642D01*
X2329637Y1256538D01*
X2334971Y1258671D01*
X2340965Y1259941D01*
X2347468Y1260348D01*
X2352344Y1260094D01*
X2356866Y1259281D01*
X2361184Y1257858D01*
X2365502Y1255776D01*
X2371090Y1229106D01*
X2382774Y1229106D01*
X2384044Y1258316D01*
X2380335Y1260856D01*
X2376424Y1263142D01*
X2372258Y1265123D01*
X2367838Y1266850D01*
X2363216Y1268171D01*
X2358237Y1269187D01*
X2353005Y1269796D01*
G37*
G36*
X2016506Y1266444D02*
G01*
X2016506Y1258824D01*
X2037334Y1256538D01*
X2037588Y1195578D01*
X2057907Y1195578D01*
X2058009Y1235506D01*
X2058416Y1257808D01*
X2077720Y1257808D01*
X2085898Y1257300D01*
X2092909Y1255826D01*
X2098751Y1253337D01*
X2103526Y1249984D01*
X2107133Y1245666D01*
X2109724Y1240536D01*
X2111248Y1234592D01*
X2111756Y1227836D01*
X2111197Y1221130D01*
X2109520Y1214983D01*
X2106726Y1209497D01*
X2102815Y1204772D01*
X2097836Y1200912D01*
X2091740Y1198016D01*
X2084527Y1196187D01*
X2076196Y1195578D01*
X2037588Y1195578D01*
X2037334Y1127506D01*
X2016506Y1125220D01*
X2016506Y1117600D01*
X2079243Y1117600D01*
X2079243Y1125220D01*
X2058416Y1127760D01*
X2057958Y1156817D01*
X2057907Y1187196D01*
X2069846Y1187196D01*
X2076297Y1186992D01*
X2081733Y1186281D01*
X2086356Y1184960D01*
X2090216Y1182878D01*
X2093366Y1179931D01*
X2096007Y1176070D01*
X2098243Y1171041D01*
X2100072Y1164844D01*
X2109216Y1129538D01*
X2111857Y1122934D01*
X2116226Y1118514D01*
X2122728Y1116076D01*
X2131822Y1115314D01*
X2136749Y1115466D01*
X2141169Y1115872D01*
X2145131Y1116584D01*
X2148586Y1117600D01*
X2148586Y1125220D01*
X2131314Y1126998D01*
X2120900Y1161796D01*
X2118868Y1167841D01*
X2116582Y1173073D01*
X2113991Y1177493D01*
X2111044Y1181252D01*
X2107641Y1184300D01*
X2103780Y1186738D01*
X2099411Y1188618D01*
X2094484Y1189990D01*
X2100580Y1191310D01*
X2106117Y1193038D01*
X2111146Y1195222D01*
X2115667Y1197762D01*
X2119630Y1200658D01*
X2123084Y1203858D01*
X2125980Y1207312D01*
X2128367Y1211021D01*
X2130196Y1214932D01*
X2131517Y1218996D01*
X2132330Y1223264D01*
X2132584Y1227582D01*
X2132177Y1233525D01*
X2130958Y1239012D01*
X2128977Y1244041D01*
X2126183Y1248613D01*
X2122678Y1252677D01*
X2118461Y1256233D01*
X2113534Y1259332D01*
X2107895Y1261821D01*
X2101596Y1263853D01*
X2094687Y1265275D01*
X2087118Y1266139D01*
X2078989Y1266444D01*
G37*
G36*
X2161540Y1266444D02*
G01*
X2161540Y1258824D01*
X2182368Y1256538D01*
X2182825Y1227124D01*
X2182825Y1164234D01*
X2182368Y1127506D01*
X2161540Y1125220D01*
X2161540Y1117600D01*
X2276348Y1117600D01*
X2277364Y1157224D01*
X2266442Y1157224D01*
X2260600Y1127252D01*
X2203450Y1127252D01*
X2203196Y1188974D01*
X2236724Y1188974D01*
X2239772Y1167384D01*
X2248916Y1167384D01*
X2248916Y1219708D01*
X2239772Y1219708D01*
X2236724Y1197864D01*
X2203196Y1197864D01*
X2203450Y1256792D01*
X2256282Y1256792D01*
X2262124Y1227328D01*
X2273300Y1227328D01*
X2272030Y1266444D01*
G37*
G36*
X2408428Y1266444D02*
G01*
X2408428Y1258824D01*
X2429256Y1256538D01*
X2429713Y1227124D01*
X2429713Y1164234D01*
X2429256Y1127506D01*
X2408428Y1125220D01*
X2408428Y1117600D01*
X2523236Y1117600D01*
X2524252Y1157224D01*
X2513330Y1157224D01*
X2507488Y1127252D01*
X2450338Y1127252D01*
X2450084Y1188974D01*
X2483612Y1188974D01*
X2486660Y1167384D01*
X2495804Y1167384D01*
X2495804Y1219708D01*
X2486660Y1219708D01*
X2483612Y1197864D01*
X2450084Y1197864D01*
X2450338Y1256792D01*
X2503170Y1256792D01*
X2509012Y1227328D01*
X2520188Y1227328D01*
X2518918Y1266444D01*
G37*
G36*
X2538984Y1266444D02*
G01*
X2537206Y1226820D01*
X2548382Y1226820D01*
X2554478Y1256792D01*
X2589276Y1256792D01*
X2589682Y1234694D01*
X2589784Y1171600D01*
X2589580Y1142288D01*
X2589276Y1127760D01*
X2566416Y1125220D01*
X2566416Y1117600D01*
X2633472Y1117600D01*
X2633472Y1125220D01*
X2610612Y1127760D01*
X2610154Y1157071D01*
X2610205Y1234694D01*
X2610612Y1256792D01*
X2645410Y1256792D01*
X2651760Y1226820D01*
X2662428Y1226820D01*
X2661158Y1266444D01*
G37*
G36*
X4301236Y1320292D02*
G01*
X4293768Y1319885D01*
X4286707Y1318564D01*
X4280204Y1316380D01*
X4274312Y1313281D01*
X4269181Y1309319D01*
X4264964Y1304442D01*
X4261713Y1298600D01*
X4259580Y1291844D01*
X4261408Y1288135D01*
X4263847Y1285697D01*
X4266742Y1284376D01*
X4269994Y1283970D01*
X4274616Y1284782D01*
X4278071Y1287272D01*
X4280662Y1291488D01*
X4282694Y1297432D01*
X4286250Y1310386D01*
X4292092Y1311402D01*
X4297172Y1311656D01*
X4303318Y1311198D01*
X4308754Y1309776D01*
X4313428Y1307439D01*
X4317390Y1304239D01*
X4320489Y1300175D01*
X4322724Y1295247D01*
X4324146Y1289507D01*
X4324604Y1282954D01*
X4324045Y1275943D01*
X4322368Y1269746D01*
X4319625Y1264462D01*
X4315866Y1260043D01*
X4311192Y1256538D01*
X4305655Y1253998D01*
X4299254Y1252474D01*
X4292092Y1251966D01*
X4283456Y1251966D01*
X4283456Y1242060D01*
X4294124Y1242060D01*
X4302150Y1241450D01*
X4309160Y1239672D01*
X4315104Y1236776D01*
X4319981Y1232865D01*
X4323740Y1227988D01*
X4326483Y1222248D01*
X4328109Y1215644D01*
X4328668Y1208278D01*
X4328109Y1201064D01*
X4326432Y1194460D01*
X4323689Y1188618D01*
X4319879Y1183589D01*
X4315104Y1179525D01*
X4309364Y1176528D01*
X4302709Y1174648D01*
X4295140Y1173988D01*
X4288840Y1174394D01*
X4282186Y1175766D01*
X4278630Y1188974D01*
X4276496Y1195527D01*
X4274058Y1200048D01*
X4270857Y1202639D01*
X4266438Y1203452D01*
X4263034Y1203045D01*
X4260138Y1201826D01*
X4257598Y1199591D01*
X4255516Y1196340D01*
X4257598Y1188872D01*
X4260799Y1182522D01*
X4264964Y1177239D01*
X4270095Y1172972D01*
X4276039Y1169720D01*
X4282744Y1167384D01*
X4290161Y1166063D01*
X4298188Y1165606D01*
X4305401Y1165961D01*
X4312208Y1167028D01*
X4318508Y1168755D01*
X4324299Y1171143D01*
X4329531Y1174038D01*
X4334205Y1177544D01*
X4338269Y1181557D01*
X4341672Y1185976D01*
X4344365Y1190904D01*
X4346346Y1196187D01*
X4347565Y1201826D01*
X4347972Y1207770D01*
X4347718Y1212697D01*
X4347006Y1217320D01*
X4345838Y1221740D01*
X4344162Y1225854D01*
X4341977Y1229715D01*
X4339285Y1233271D01*
X4336034Y1236472D01*
X4332325Y1239367D01*
X4328058Y1241856D01*
X4323232Y1244041D01*
X4317847Y1245768D01*
X4311904Y1247140D01*
X4319066Y1249781D01*
X4325416Y1253083D01*
X4330801Y1256995D01*
X4335272Y1261465D01*
X4338777Y1266444D01*
X4341317Y1271879D01*
X4342892Y1277772D01*
X4343400Y1283970D01*
X4343044Y1289253D01*
X4342079Y1294231D01*
X4340453Y1298854D01*
X4338218Y1303070D01*
X4335424Y1306931D01*
X4332020Y1310335D01*
X4328109Y1313281D01*
X4323689Y1315720D01*
X4318762Y1317701D01*
X4313377Y1319123D01*
X4307484Y1319987D01*
G37*
G36*
X4479798Y1320292D02*
G01*
X4472279Y1319885D01*
X4465167Y1318564D01*
X4458665Y1316380D01*
X4452772Y1313281D01*
X4447692Y1309319D01*
X4443476Y1304442D01*
X4440275Y1298600D01*
X4438142Y1291844D01*
X4439970Y1288135D01*
X4442307Y1285697D01*
X4445203Y1284376D01*
X4448556Y1283970D01*
X4453178Y1284782D01*
X4456582Y1287272D01*
X4459071Y1291488D01*
X4464812Y1310386D01*
X4470501Y1311402D01*
X4475480Y1311656D01*
X4481677Y1311198D01*
X4487214Y1309776D01*
X4491939Y1307439D01*
X4495901Y1304239D01*
X4499051Y1300175D01*
X4501286Y1295247D01*
X4502708Y1289507D01*
X4503166Y1282954D01*
X4502556Y1275943D01*
X4500880Y1269746D01*
X4498086Y1264462D01*
X4494326Y1260043D01*
X4489653Y1256538D01*
X4484116Y1253998D01*
X4477715Y1252474D01*
X4470654Y1251966D01*
X4461764Y1251966D01*
X4461764Y1242060D01*
X4472432Y1242060D01*
X4480458Y1241450D01*
X4487468Y1239672D01*
X4493412Y1236776D01*
X4498289Y1232865D01*
X4502048Y1227988D01*
X4504791Y1222248D01*
X4506417Y1215644D01*
X4506976Y1208278D01*
X4506417Y1201064D01*
X4504740Y1194460D01*
X4501997Y1188618D01*
X4498238Y1183589D01*
X4493412Y1179525D01*
X4487672Y1176528D01*
X4481017Y1174648D01*
X4473448Y1173988D01*
X4467199Y1174394D01*
X4460748Y1175766D01*
X4454906Y1195527D01*
X4452467Y1200048D01*
X4449165Y1202639D01*
X4444746Y1203452D01*
X4441494Y1203045D01*
X4438548Y1201826D01*
X4436059Y1199591D01*
X4434078Y1196340D01*
X4436160Y1188872D01*
X4439361Y1182522D01*
X4443526Y1177239D01*
X4448657Y1172972D01*
X4454601Y1169720D01*
X4461306Y1167384D01*
X4468723Y1166063D01*
X4476750Y1165606D01*
X4483963Y1165961D01*
X4490770Y1167028D01*
X4497070Y1168755D01*
X4502861Y1171143D01*
X4508093Y1174038D01*
X4512767Y1177544D01*
X4516831Y1181557D01*
X4520234Y1185976D01*
X4522927Y1190904D01*
X4524908Y1196187D01*
X4526127Y1201826D01*
X4526534Y1207770D01*
X4526280Y1212697D01*
X4525568Y1217320D01*
X4524349Y1221740D01*
X4522673Y1225854D01*
X4520438Y1229715D01*
X4517694Y1233271D01*
X4514443Y1236472D01*
X4510684Y1239367D01*
X4506366Y1241856D01*
X4501540Y1244041D01*
X4496155Y1245768D01*
X4490212Y1247140D01*
X4497374Y1249781D01*
X4503724Y1253083D01*
X4509109Y1256995D01*
X4513580Y1261465D01*
X4517085Y1266444D01*
X4519625Y1271879D01*
X4521200Y1277772D01*
X4521708Y1283970D01*
X4521352Y1289253D01*
X4520387Y1294231D01*
X4518761Y1298854D01*
X4516526Y1303070D01*
X4513732Y1306931D01*
X4510379Y1310335D01*
X4506468Y1313281D01*
X4502048Y1315720D01*
X4497171Y1317701D01*
X4491786Y1319123D01*
X4485995Y1319987D01*
G37*
G36*
X4124706Y1317244D02*
G01*
X4124706Y1309624D01*
X4145534Y1307338D01*
X4145787Y1236980D01*
X4166108Y1236980D01*
X4166209Y1286154D01*
X4166615Y1308608D01*
X4180840Y1308608D01*
X4187190Y1308354D01*
X4192981Y1307541D01*
X4198112Y1306271D01*
X4202684Y1304493D01*
X4206697Y1302207D01*
X4210151Y1299413D01*
X4213047Y1296212D01*
X4215384Y1292504D01*
X4217162Y1288338D01*
X4218432Y1283766D01*
X4219194Y1278737D01*
X4219448Y1273302D01*
X4219194Y1268069D01*
X4218482Y1263091D01*
X4217263Y1258519D01*
X4215536Y1254302D01*
X4213199Y1250442D01*
X4210354Y1247038D01*
X4206951Y1244092D01*
X4202887Y1241602D01*
X4198213Y1239621D01*
X4192930Y1238148D01*
X4186986Y1237284D01*
X4180332Y1236980D01*
X4145787Y1236980D01*
X4145534Y1178306D01*
X4124706Y1176020D01*
X4124706Y1168400D01*
X4187698Y1168400D01*
X4187698Y1176020D01*
X4166615Y1178560D01*
X4166209Y1197254D01*
X4166108Y1227836D01*
X4178046Y1227836D01*
X4186174Y1228090D01*
X4193641Y1228750D01*
X4200499Y1229918D01*
X4206748Y1231442D01*
X4212386Y1233373D01*
X4217517Y1235659D01*
X4222038Y1238300D01*
X4226001Y1241247D01*
X4229506Y1244447D01*
X4232452Y1247952D01*
X4234891Y1251712D01*
X4236872Y1255674D01*
X4238396Y1259840D01*
X4239463Y1264208D01*
X4240072Y1268679D01*
X4240276Y1273302D01*
X4240072Y1278128D01*
X4239412Y1282750D01*
X4238345Y1287170D01*
X4236821Y1291336D01*
X4234891Y1295196D01*
X4232503Y1298803D01*
X4229709Y1302156D01*
X4226407Y1305204D01*
X4222750Y1307896D01*
X4218584Y1310284D01*
X4214012Y1312367D01*
X4208983Y1314094D01*
X4203496Y1315466D01*
X4197604Y1316431D01*
X4191203Y1317040D01*
X4184396Y1317244D01*
G37*
G36*
X4390644Y1195832D02*
G01*
X4384852Y1194612D01*
X4380077Y1191310D01*
X4376877Y1186383D01*
X4375658Y1180338D01*
X4376877Y1174699D01*
X4380077Y1170025D01*
X4384852Y1166825D01*
X4390644Y1165606D01*
X4396689Y1166825D01*
X4401515Y1170025D01*
X4404715Y1174699D01*
X4405884Y1180338D01*
X4404715Y1186383D01*
X4401515Y1191310D01*
X4396689Y1194612D01*
G37*
G36*
X5406136Y1307592D02*
G01*
X5398668Y1307185D01*
X5391607Y1305864D01*
X5385104Y1303680D01*
X5379212Y1300581D01*
X5374081Y1296619D01*
X5369864Y1291742D01*
X5366613Y1285900D01*
X5364480Y1279144D01*
X5366308Y1275435D01*
X5368747Y1272997D01*
X5371642Y1271676D01*
X5374894Y1271270D01*
X5379516Y1272082D01*
X5382971Y1274572D01*
X5385562Y1278788D01*
X5387594Y1284732D01*
X5391150Y1297686D01*
X5396992Y1298702D01*
X5402072Y1298956D01*
X5408218Y1298498D01*
X5413654Y1297076D01*
X5418328Y1294739D01*
X5422290Y1291539D01*
X5425389Y1287475D01*
X5427624Y1282547D01*
X5429046Y1276807D01*
X5429504Y1270254D01*
X5428945Y1263243D01*
X5427268Y1257046D01*
X5424525Y1251762D01*
X5420766Y1247343D01*
X5416092Y1243838D01*
X5410555Y1241298D01*
X5404154Y1239774D01*
X5396992Y1239266D01*
X5388356Y1239266D01*
X5388356Y1229360D01*
X5399024Y1229360D01*
X5407050Y1228750D01*
X5414060Y1226972D01*
X5420004Y1224076D01*
X5424881Y1220165D01*
X5428640Y1215288D01*
X5431383Y1209548D01*
X5433009Y1202944D01*
X5433568Y1195578D01*
X5433009Y1188364D01*
X5431332Y1181760D01*
X5428589Y1175918D01*
X5424779Y1170889D01*
X5420004Y1166825D01*
X5414264Y1163828D01*
X5407609Y1161948D01*
X5400040Y1161288D01*
X5393740Y1161694D01*
X5387086Y1163066D01*
X5383530Y1176274D01*
X5381396Y1182827D01*
X5378958Y1187348D01*
X5375757Y1189939D01*
X5371338Y1190752D01*
X5367934Y1190345D01*
X5365038Y1189126D01*
X5362498Y1186891D01*
X5360416Y1183640D01*
X5362498Y1176172D01*
X5365699Y1169822D01*
X5369864Y1164539D01*
X5374995Y1160272D01*
X5380939Y1157020D01*
X5387644Y1154684D01*
X5395061Y1153363D01*
X5403088Y1152906D01*
X5410301Y1153261D01*
X5417108Y1154328D01*
X5423408Y1156055D01*
X5429199Y1158443D01*
X5434431Y1161338D01*
X5439105Y1164844D01*
X5443169Y1168857D01*
X5446572Y1173276D01*
X5449265Y1178204D01*
X5451246Y1183487D01*
X5452465Y1189126D01*
X5452872Y1195070D01*
X5452618Y1199997D01*
X5451906Y1204620D01*
X5450738Y1209040D01*
X5449062Y1213154D01*
X5446877Y1217015D01*
X5444185Y1220571D01*
X5440934Y1223772D01*
X5437225Y1226667D01*
X5432958Y1229156D01*
X5428132Y1231341D01*
X5422747Y1233068D01*
X5416804Y1234440D01*
X5423966Y1237081D01*
X5430316Y1240383D01*
X5435701Y1244295D01*
X5440172Y1248765D01*
X5443677Y1253744D01*
X5446217Y1259179D01*
X5447792Y1265072D01*
X5448300Y1271270D01*
X5447944Y1276553D01*
X5446979Y1281531D01*
X5445353Y1286154D01*
X5443118Y1290370D01*
X5440324Y1294231D01*
X5436920Y1297635D01*
X5433009Y1300581D01*
X5428589Y1303020D01*
X5423662Y1305001D01*
X5418277Y1306423D01*
X5412384Y1307287D01*
G37*
G36*
X5583936Y1307592D02*
G01*
X5578398Y1307338D01*
X5573064Y1306677D01*
X5567934Y1305509D01*
X5563108Y1303883D01*
X5558536Y1301750D01*
X5554370Y1299210D01*
X5550560Y1296162D01*
X5547207Y1292707D01*
X5544362Y1288745D01*
X5542026Y1284325D01*
X5540349Y1279398D01*
X5539232Y1274064D01*
X5541111Y1271270D01*
X5543600Y1269136D01*
X5546598Y1267714D01*
X5549900Y1267206D01*
X5553811Y1267968D01*
X5557113Y1270355D01*
X5559907Y1274724D01*
X5562092Y1281176D01*
X5566664Y1297432D01*
X5573115Y1298600D01*
X5578602Y1298956D01*
X5584494Y1298397D01*
X5589828Y1296670D01*
X5594451Y1293926D01*
X5598363Y1290218D01*
X5601512Y1285646D01*
X5603849Y1280210D01*
X5605272Y1274064D01*
X5605780Y1267206D01*
X5605576Y1262786D01*
X5604916Y1258316D01*
X5603849Y1253896D01*
X5602325Y1249375D01*
X5600395Y1244752D01*
X5597956Y1240078D01*
X5595112Y1235202D01*
X5588000Y1224940D01*
X5579008Y1213764D01*
X5540248Y1169416D01*
X5540248Y1155700D01*
X5631688Y1155700D01*
X5631688Y1172972D01*
X5554472Y1172972D01*
X5580634Y1199896D01*
X5595518Y1215694D01*
X5606999Y1228801D01*
X5611622Y1234541D01*
X5615482Y1239875D01*
X5618632Y1244904D01*
X5621121Y1249680D01*
X5623052Y1254302D01*
X5624322Y1258874D01*
X5625084Y1263497D01*
X5625338Y1268222D01*
X5625084Y1273860D01*
X5624271Y1279144D01*
X5622848Y1284122D01*
X5620918Y1288694D01*
X5618429Y1292860D01*
X5615330Y1296568D01*
X5611622Y1299819D01*
X5607304Y1302512D01*
X5602427Y1304696D01*
X5596890Y1306271D01*
X5590743Y1307236D01*
G37*
G36*
X5229606Y1304544D02*
G01*
X5229606Y1296924D01*
X5250434Y1294638D01*
X5250688Y1224280D01*
X5271008Y1224280D01*
X5271109Y1273454D01*
X5271516Y1295908D01*
X5285740Y1295908D01*
X5292090Y1295654D01*
X5297881Y1294841D01*
X5303012Y1293571D01*
X5307584Y1291793D01*
X5311597Y1289507D01*
X5315051Y1286713D01*
X5317947Y1283512D01*
X5320284Y1279804D01*
X5322062Y1275638D01*
X5323332Y1271066D01*
X5324094Y1266037D01*
X5324348Y1260602D01*
X5324094Y1255369D01*
X5323382Y1250391D01*
X5322163Y1245819D01*
X5320436Y1241602D01*
X5318099Y1237742D01*
X5315254Y1234338D01*
X5311851Y1231392D01*
X5307787Y1228902D01*
X5303113Y1226921D01*
X5297830Y1225448D01*
X5291886Y1224584D01*
X5285232Y1224280D01*
X5250688Y1224280D01*
X5250434Y1165606D01*
X5229606Y1163320D01*
X5229606Y1155700D01*
X5292598Y1155700D01*
X5292598Y1163320D01*
X5271516Y1165860D01*
X5271109Y1184554D01*
X5271008Y1215136D01*
X5282946Y1215136D01*
X5291074Y1215390D01*
X5298541Y1216050D01*
X5305399Y1217218D01*
X5311648Y1218742D01*
X5317286Y1220673D01*
X5322417Y1222959D01*
X5326938Y1225600D01*
X5330901Y1228547D01*
X5334406Y1231747D01*
X5337352Y1235252D01*
X5339791Y1239012D01*
X5341772Y1242974D01*
X5343296Y1247140D01*
X5344363Y1251508D01*
X5344972Y1255979D01*
X5345176Y1260602D01*
X5344972Y1265428D01*
X5344312Y1270050D01*
X5343245Y1274470D01*
X5341721Y1278636D01*
X5339791Y1282496D01*
X5337403Y1286103D01*
X5334609Y1289456D01*
X5331307Y1292504D01*
X5327650Y1295196D01*
X5323484Y1297584D01*
X5318912Y1299667D01*
X5313883Y1301394D01*
X5308396Y1302766D01*
X5302504Y1303731D01*
X5296103Y1304340D01*
X5289296Y1304544D01*
G37*
G36*
X5495544Y1183132D02*
G01*
X5489752Y1181912D01*
X5484977Y1178610D01*
X5481777Y1173683D01*
X5480558Y1167638D01*
X5481777Y1161999D01*
X5484977Y1157325D01*
X5489752Y1154125D01*
X5495544Y1152906D01*
X5501589Y1154125D01*
X5506415Y1157325D01*
X5509615Y1161999D01*
X5510784Y1167638D01*
X5509615Y1173683D01*
X5506415Y1178610D01*
X5501589Y1181912D01*
G37*
G36*
X3221482Y1433830D02*
G01*
X3157296Y1342136D01*
X3166872Y1342136D01*
X3216148Y1413002D01*
X3216148Y1342136D01*
X3157296Y1342136D01*
X3155696Y1339850D01*
X3155696Y1328928D01*
X3216148Y1328928D01*
X3216148Y1282700D01*
X3233928Y1282700D01*
X3233928Y1328928D01*
X3257550Y1328928D01*
X3257550Y1342136D01*
X3233928Y1342136D01*
X3233928Y1433830D01*
G37*
G36*
X3892042Y1447292D02*
G01*
X3885285Y1446326D01*
X3878783Y1445056D01*
X3872534Y1443431D01*
X3866540Y1441551D01*
X3860850Y1439367D01*
X3855364Y1436878D01*
X3850182Y1434134D01*
X3845306Y1431086D01*
X3840632Y1427835D01*
X3836314Y1424330D01*
X3832250Y1420622D01*
X3828440Y1416710D01*
X3824935Y1412544D01*
X3821734Y1408176D01*
X3818839Y1403654D01*
X3816197Y1398981D01*
X3813860Y1394104D01*
X3811828Y1389075D01*
X3810152Y1383893D01*
X3808729Y1378610D01*
X3807612Y1373225D01*
X3806850Y1367688D01*
X3806264Y1359154D01*
X3825748Y1359154D01*
X3825748Y1363726D01*
X3832504Y1368704D01*
X3839718Y1372006D01*
X3847084Y1373835D01*
X3854450Y1374394D01*
X3860088Y1373886D01*
X3865219Y1372260D01*
X3869740Y1369568D01*
X3873550Y1365707D01*
X3876649Y1360728D01*
X3878935Y1354582D01*
X3880358Y1347216D01*
X3880865Y1338580D01*
X3880358Y1329740D01*
X3878986Y1322120D01*
X3876700Y1315618D01*
X3873652Y1310335D01*
X3869842Y1306271D01*
X3865422Y1303324D01*
X3860444Y1301546D01*
X3854958Y1300988D01*
X3850538Y1301394D01*
X3846423Y1302613D01*
X3842664Y1304645D01*
X3839260Y1307490D01*
X3836212Y1311148D01*
X3833520Y1315618D01*
X3831183Y1320850D01*
X3829253Y1326896D01*
X3827729Y1333754D01*
X3826662Y1341424D01*
X3825951Y1349908D01*
X3825748Y1359154D01*
X3806264Y1359154D01*
X3806393Y1349044D01*
X3807053Y1342085D01*
X3808120Y1335582D01*
X3809542Y1329486D01*
X3811422Y1323797D01*
X3813606Y1318564D01*
X3816197Y1313738D01*
X3819194Y1309420D01*
X3822496Y1305560D01*
X3826103Y1302207D01*
X3830065Y1299311D01*
X3834384Y1296924D01*
X3838956Y1295044D01*
X3843832Y1293723D01*
X3849014Y1292860D01*
X3854450Y1292606D01*
X3860952Y1292961D01*
X3867099Y1294079D01*
X3872788Y1295857D01*
X3878072Y1298397D01*
X3882898Y1301546D01*
X3887165Y1305407D01*
X3890924Y1309878D01*
X3894074Y1315008D01*
X3896563Y1320800D01*
X3898392Y1327150D01*
X3899509Y1334109D01*
X3899915Y1341628D01*
X3899560Y1348282D01*
X3898595Y1354480D01*
X3897020Y1360170D01*
X3894785Y1365402D01*
X3892042Y1370126D01*
X3888790Y1374292D01*
X3884980Y1377848D01*
X3880713Y1380845D01*
X3876040Y1383182D01*
X3870909Y1384909D01*
X3865372Y1385976D01*
X3859529Y1386332D01*
X3855008Y1386078D01*
X3850487Y1385366D01*
X3846118Y1384249D01*
X3841851Y1382623D01*
X3837686Y1380540D01*
X3833723Y1378102D01*
X3829862Y1375156D01*
X3826256Y1371854D01*
X3827221Y1378508D01*
X3828542Y1384858D01*
X3830320Y1390904D01*
X3832453Y1396644D01*
X3834993Y1402080D01*
X3837990Y1407210D01*
X3841445Y1412036D01*
X3845306Y1416558D01*
X3849624Y1420774D01*
X3854399Y1424635D01*
X3859682Y1428242D01*
X3865422Y1431493D01*
X3871620Y1434439D01*
X3878326Y1437081D01*
X3885590Y1439418D01*
X3893312Y1441450D01*
G37*
G36*
X1676146Y6727444D02*
G01*
X1671574Y6658102D01*
X1677162Y6656324D01*
X1682546Y6657644D01*
X1687931Y6658609D01*
X1693265Y6659168D01*
X1698498Y6659372D01*
X1703679Y6659118D01*
X1708505Y6658305D01*
X1712975Y6656933D01*
X1717090Y6655104D01*
X1720748Y6652717D01*
X1724050Y6649821D01*
X1726844Y6646468D01*
X1729181Y6642658D01*
X1731060Y6638391D01*
X1732432Y6633616D01*
X1733245Y6628434D01*
X1733550Y6622796D01*
X1733296Y6617106D01*
X1732584Y6611823D01*
X1731365Y6606895D01*
X1729638Y6602425D01*
X1727454Y6598310D01*
X1724863Y6594754D01*
X1721764Y6591604D01*
X1718259Y6589014D01*
X1714246Y6586931D01*
X1709877Y6585407D01*
X1705000Y6584492D01*
X1699768Y6584188D01*
X1696212Y6584340D01*
X1689252Y6585356D01*
X1685798Y6586220D01*
X1679956Y6606489D01*
X1677568Y6610756D01*
X1674368Y6612991D01*
X1670050Y6613652D01*
X1666646Y6613194D01*
X1663700Y6611924D01*
X1661312Y6609689D01*
X1659636Y6606540D01*
X1661718Y6599377D01*
X1664766Y6593179D01*
X1668678Y6587896D01*
X1673504Y6583578D01*
X1679143Y6580174D01*
X1685645Y6577736D01*
X1692960Y6576314D01*
X1701038Y6575806D01*
X1706829Y6576009D01*
X1712315Y6576720D01*
X1717548Y6577787D01*
X1722475Y6579311D01*
X1727047Y6581241D01*
X1731365Y6583527D01*
X1735277Y6586220D01*
X1738884Y6589217D01*
X1742084Y6592620D01*
X1744929Y6596329D01*
X1747367Y6600342D01*
X1749399Y6604609D01*
X1751025Y6609232D01*
X1752142Y6614109D01*
X1752854Y6619189D01*
X1753107Y6624574D01*
X1752701Y6631736D01*
X1751482Y6638340D01*
X1749552Y6644436D01*
X1746910Y6649923D01*
X1743557Y6654800D01*
X1739595Y6659067D01*
X1735023Y6662775D01*
X1729841Y6665772D01*
X1724152Y6668211D01*
X1718005Y6669887D01*
X1711401Y6670954D01*
X1704339Y6671309D01*
X1698396Y6671106D01*
X1692808Y6670497D01*
X1687322Y6669481D01*
X1681988Y6668008D01*
X1684782Y6710172D01*
X1749043Y6710172D01*
X1749043Y6727444D01*
G37*
G36*
X1765300Y6727444D02*
G01*
X1765300Y6719824D01*
X1782318Y6718046D01*
X1834388Y6577075D01*
X1843532Y6577075D01*
X1890268Y6717284D01*
X1909572Y6720078D01*
X1909572Y6727444D01*
X1858772Y6727444D01*
X1858772Y6719062D01*
X1879092Y6717030D01*
X1843024Y6605270D01*
X1803907Y6717284D01*
X1825752Y6719062D01*
X1825752Y6727444D01*
G37*
G36*
X1973834Y6727444D02*
G01*
X1973834Y6719824D01*
X1994662Y6717538D01*
X1994916Y6656578D01*
X2015236Y6656578D01*
X2015337Y6696506D01*
X2015743Y6718808D01*
X2035048Y6718808D01*
X2043226Y6718300D01*
X2050237Y6716826D01*
X2056079Y6714337D01*
X2060854Y6710984D01*
X2064461Y6706666D01*
X2067052Y6701536D01*
X2068575Y6695592D01*
X2069084Y6688836D01*
X2068525Y6682130D01*
X2066848Y6675983D01*
X2064054Y6670497D01*
X2060143Y6665772D01*
X2055164Y6661912D01*
X2049068Y6659016D01*
X2041855Y6657187D01*
X2033524Y6656578D01*
X1994916Y6656578D01*
X1994662Y6588506D01*
X1973834Y6586220D01*
X1973834Y6578600D01*
X2036572Y6578600D01*
X2036572Y6586220D01*
X2015743Y6588759D01*
X2015286Y6617817D01*
X2015236Y6648196D01*
X2027174Y6648196D01*
X2033625Y6647992D01*
X2039061Y6647281D01*
X2043684Y6645960D01*
X2047544Y6643878D01*
X2050694Y6640931D01*
X2053336Y6637070D01*
X2055571Y6632041D01*
X2057400Y6625844D01*
X2066543Y6590538D01*
X2069185Y6583934D01*
X2073554Y6579514D01*
X2080056Y6577075D01*
X2089150Y6576314D01*
X2094077Y6576466D01*
X2098497Y6576872D01*
X2102459Y6577584D01*
X2105914Y6578600D01*
X2105914Y6586220D01*
X2088642Y6587998D01*
X2078228Y6622796D01*
X2076196Y6628841D01*
X2073910Y6634073D01*
X2071319Y6638493D01*
X2068372Y6642252D01*
X2064969Y6645300D01*
X2061108Y6647738D01*
X2056739Y6649618D01*
X2051812Y6650990D01*
X2057907Y6652310D01*
X2063445Y6654038D01*
X2068474Y6656222D01*
X2072995Y6658762D01*
X2076957Y6661658D01*
X2080361Y6664858D01*
X2083307Y6668312D01*
X2085695Y6672021D01*
X2087524Y6675932D01*
X2088845Y6679996D01*
X2089657Y6684264D01*
X2089912Y6688581D01*
X2089505Y6694525D01*
X2088286Y6700012D01*
X2086305Y6705041D01*
X2083511Y6709613D01*
X2080006Y6713677D01*
X2075789Y6717233D01*
X2070862Y6720331D01*
X2065223Y6722821D01*
X2058924Y6724853D01*
X2052015Y6726275D01*
X2044446Y6727139D01*
X2036318Y6727444D01*
G37*
G36*
X2115058Y6727444D02*
G01*
X2115058Y6719824D01*
X2134616Y6717792D01*
X2173986Y6650736D01*
X2134616Y6589268D01*
X2113788Y6586220D01*
X2113788Y6578600D01*
X2164080Y6578600D01*
X2164080Y6586220D01*
X2145538Y6589268D01*
X2178812Y6643116D01*
X2210562Y6588506D01*
X2189988Y6586220D01*
X2189988Y6578600D01*
X2251964Y6578600D01*
X2251964Y6586220D01*
X2232914Y6588506D01*
X2191004Y6659880D01*
X2227580Y6717284D01*
X2247900Y6719824D01*
X2247900Y6727444D01*
X2197100Y6727444D01*
X2197100Y6719824D01*
X2216658Y6717030D01*
X2186432Y6667500D01*
X2156968Y6717538D01*
X2177796Y6719824D01*
X2177796Y6727444D01*
G37*
G36*
X2702814Y6731000D02*
G01*
X2696210Y6730746D01*
X2689809Y6730034D01*
X2683662Y6728866D01*
X2677769Y6727240D01*
X2672080Y6725158D01*
X2666695Y6722719D01*
X2661564Y6719824D01*
X2656789Y6716572D01*
X2652268Y6712966D01*
X2648102Y6709003D01*
X2644241Y6704685D01*
X2640736Y6700062D01*
X2637586Y6695135D01*
X2634843Y6689902D01*
X2632456Y6684365D01*
X2630474Y6678625D01*
X2628900Y6672630D01*
X2627782Y6666382D01*
X2627122Y6659930D01*
X2626868Y6653275D01*
X2627071Y6646519D01*
X2627782Y6639966D01*
X2628849Y6633667D01*
X2630373Y6627622D01*
X2632354Y6621780D01*
X2634640Y6616293D01*
X2637383Y6611010D01*
X2640482Y6606082D01*
X2643886Y6601459D01*
X2647696Y6597142D01*
X2651810Y6593179D01*
X2656281Y6589572D01*
X2661056Y6586321D01*
X2666085Y6583476D01*
X2671470Y6581038D01*
X2677058Y6579006D01*
X2682951Y6577431D01*
X2689098Y6576263D01*
X2695448Y6575552D01*
X2702052Y6575298D01*
X2708757Y6575501D01*
X2715158Y6576161D01*
X2721356Y6577228D01*
X2727350Y6578752D01*
X2733243Y6580581D01*
X2739034Y6582816D01*
X2744774Y6585356D01*
X2750566Y6588252D01*
X2750718Y6619798D01*
X2751074Y6640575D01*
X2764536Y6641846D01*
X2764536Y6649466D01*
X2706624Y6649466D01*
X2706624Y6641846D01*
X2730246Y6640068D01*
X2730500Y6589522D01*
X2724454Y6587540D01*
X2718358Y6586220D01*
X2712110Y6585458D01*
X2705608Y6585203D01*
X2699359Y6585508D01*
X2693466Y6586372D01*
X2687828Y6587845D01*
X2682544Y6589826D01*
X2677617Y6592417D01*
X2673045Y6595465D01*
X2668828Y6599123D01*
X2665018Y6603238D01*
X2661615Y6607860D01*
X2658618Y6612991D01*
X2656027Y6618579D01*
X2653893Y6624624D01*
X2652217Y6631127D01*
X2650998Y6638086D01*
X2650236Y6645503D01*
X2649982Y6653275D01*
X2650236Y6661150D01*
X2651048Y6668617D01*
X2652318Y6675577D01*
X2654096Y6682130D01*
X2656332Y6688175D01*
X2658973Y6693814D01*
X2662072Y6698894D01*
X2665526Y6703517D01*
X2669387Y6707631D01*
X2673604Y6711188D01*
X2678125Y6714236D01*
X2683002Y6716775D01*
X2688132Y6718757D01*
X2693568Y6720179D01*
X2699207Y6721043D01*
X2705100Y6721348D01*
X2711754Y6720941D01*
X2718155Y6719773D01*
X2724302Y6717690D01*
X2730246Y6714744D01*
X2735580Y6687058D01*
X2747772Y6687058D01*
X2747264Y6720078D01*
X2742590Y6722668D01*
X2737764Y6724903D01*
X2732735Y6726783D01*
X2727401Y6728307D01*
X2721813Y6729475D01*
X2715869Y6730339D01*
X2709570Y6730847D01*
G37*
G36*
X2292350Y6727444D02*
G01*
X2290572Y6687820D01*
X2301748Y6687820D01*
X2307844Y6717792D01*
X2342642Y6717792D01*
X2343048Y6695694D01*
X2343150Y6632600D01*
X2342946Y6603288D01*
X2342642Y6588759D01*
X2319782Y6586220D01*
X2319782Y6578600D01*
X2386838Y6578600D01*
X2386838Y6586220D01*
X2363724Y6588759D01*
X2363520Y6618071D01*
X2363520Y6695694D01*
X2363724Y6717792D01*
X2398776Y6717792D01*
X2405126Y6687820D01*
X2415794Y6687820D01*
X2414524Y6727444D01*
G37*
G36*
X2424684Y6727444D02*
G01*
X2424684Y6719824D01*
X2444242Y6717792D01*
X2483612Y6650736D01*
X2444242Y6589268D01*
X2423414Y6586220D01*
X2423414Y6578600D01*
X2473706Y6578600D01*
X2473706Y6586220D01*
X2455164Y6589268D01*
X2488438Y6643116D01*
X2520188Y6588506D01*
X2499614Y6586220D01*
X2499614Y6578600D01*
X2561844Y6578600D01*
X2561844Y6586220D01*
X2542540Y6588506D01*
X2500630Y6659880D01*
X2537460Y6717284D01*
X2557526Y6719824D01*
X2557526Y6727444D01*
X2506726Y6727444D01*
X2506726Y6719824D01*
X2526284Y6717030D01*
X2496058Y6667500D01*
X2466594Y6717538D01*
X2487676Y6719824D01*
X2487676Y6727444D01*
G37*
G36*
X2777490Y6727444D02*
G01*
X2777490Y6719824D01*
X2793492Y6717792D01*
X2795524Y6714998D01*
X2795270Y6589014D01*
X2776474Y6586220D01*
X2776474Y6578600D01*
X2829052Y6578600D01*
X2829052Y6586220D01*
X2805430Y6589268D01*
X2804922Y6702044D01*
X2895854Y6577075D01*
X2903728Y6577075D01*
X2903982Y6717284D01*
X2922524Y6719824D01*
X2922524Y6727444D01*
X2869946Y6727444D01*
X2869946Y6719824D01*
X2893822Y6717030D01*
X2894076Y6613652D01*
X2811780Y6727444D01*
G37*
G36*
X2939542Y6727444D02*
G01*
X2939542Y6719824D01*
X2960116Y6717538D01*
X2960522Y6695440D01*
X2960624Y6634022D01*
X2980944Y6633921D01*
X2981045Y6696354D01*
X2981452Y6718808D01*
X3000756Y6718808D01*
X3006852Y6718553D01*
X3012643Y6717741D01*
X3018078Y6716420D01*
X3023158Y6714540D01*
X3027883Y6712203D01*
X3032201Y6709308D01*
X3036163Y6705904D01*
X3039770Y6701993D01*
X3042920Y6697624D01*
X3045714Y6692696D01*
X3048101Y6687312D01*
X3050032Y6681419D01*
X3051606Y6675018D01*
X3052673Y6668160D01*
X3053384Y6660845D01*
X3053588Y6653022D01*
X3053384Y6645452D01*
X3052673Y6638340D01*
X3051556Y6631584D01*
X3050032Y6625336D01*
X3048050Y6619494D01*
X3045612Y6614109D01*
X3042767Y6609181D01*
X3039465Y6604711D01*
X3035808Y6600748D01*
X3031693Y6597294D01*
X3027222Y6594348D01*
X3022295Y6591909D01*
X3017012Y6589979D01*
X3011271Y6588607D01*
X3005175Y6587794D01*
X2998724Y6587490D01*
X2981452Y6587490D01*
X2980944Y6633921D01*
X2960623Y6633921D01*
X2960420Y6603238D01*
X2960116Y6588506D01*
X2939542Y6586220D01*
X2939542Y6578600D01*
X3000248Y6578600D01*
X3006801Y6578803D01*
X3013151Y6579412D01*
X3019247Y6580378D01*
X3025190Y6581749D01*
X3030829Y6583527D01*
X3036265Y6585661D01*
X3041396Y6588150D01*
X3046272Y6591046D01*
X3050794Y6594297D01*
X3055061Y6597903D01*
X3058972Y6601866D01*
X3062528Y6606184D01*
X3065729Y6610858D01*
X3068523Y6615887D01*
X3070961Y6621272D01*
X3072993Y6626961D01*
X3074568Y6632956D01*
X3075736Y6639356D01*
X3076448Y6646011D01*
X3076702Y6653022D01*
X3076498Y6660083D01*
X3075838Y6666788D01*
X3074771Y6673138D01*
X3073298Y6679184D01*
X3071469Y6684924D01*
X3069234Y6690258D01*
X3066643Y6695287D01*
X3063646Y6699961D01*
X3060344Y6704279D01*
X3056686Y6708241D01*
X3052724Y6711848D01*
X3048457Y6715048D01*
X3043885Y6717944D01*
X3039008Y6720433D01*
X3033826Y6722567D01*
X3028442Y6724294D01*
X3022752Y6725666D01*
X3016808Y6726631D01*
X3010662Y6727240D01*
X3004312Y6727444D01*
G37*
G36*
X6200648Y3413760D02*
G01*
X6200648Y3306318D01*
X6022594Y3387851D01*
X6019800Y3385058D01*
X6019800Y3361690D01*
X6209538Y3289300D01*
X6224524Y3289300D01*
X6224524Y3413760D01*
G37*
G36*
X6083554Y3267202D02*
G01*
X6083554Y3251962D01*
X6101334Y3251962D01*
X6198870Y3184144D01*
X6101334Y3184144D01*
X6101334Y3251962D01*
X6083554Y3251962D01*
X6083554Y3184144D01*
X6019800Y3184144D01*
X6019800Y3159760D01*
X6083554Y3159760D01*
X6083554Y3127248D01*
X6101334Y3127248D01*
X6101334Y3159760D01*
X6227572Y3159760D01*
X6227572Y3176778D01*
X6098286Y3267202D01*
G37*
G36*
X6019800Y3108452D02*
G01*
X6019800Y2956814D01*
X6077458Y2954528D01*
X6077458Y2970530D01*
X6033008Y2980690D01*
X6033008Y3051048D01*
X6078982Y3051505D01*
X6170472Y3051505D01*
X6210808Y3051048D01*
X6214110Y3022092D01*
X6224524Y3022092D01*
X6224524Y3108452D01*
X6214110Y3108452D01*
X6210808Y3080004D01*
X6177330Y3079597D01*
X6087364Y3079496D01*
X6033516Y3080004D01*
X6030468Y3108452D01*
G37*
G36*
X6031484Y2932684D02*
G01*
X6028232Y2927045D01*
X6025184Y2920746D01*
X6022441Y2913837D01*
X6020003Y2906369D01*
X6018022Y2898546D01*
X6016498Y2890316D01*
X6015583Y2881884D01*
X6015228Y2873248D01*
X6015380Y2866999D01*
X6015888Y2860903D01*
X6016701Y2855061D01*
X6017768Y2849473D01*
X6019190Y2844088D01*
X6020917Y2838958D01*
X6022949Y2834081D01*
X6025235Y2829509D01*
X6027826Y2825242D01*
X6030671Y2821279D01*
X6033820Y2817622D01*
X6037224Y2814269D01*
X6040882Y2811322D01*
X6044793Y2808681D01*
X6048959Y2806395D01*
X6053378Y2804566D01*
X6058052Y2803042D01*
X6062929Y2801975D01*
X6068060Y2801315D01*
X6073394Y2801112D01*
X6078626Y2801315D01*
X6083655Y2801823D01*
X6088380Y2802788D01*
X6092952Y2804109D01*
X6097270Y2805887D01*
X6101384Y2808071D01*
X6105347Y2810713D01*
X6109157Y2813812D01*
X6112764Y2817368D01*
X6116320Y2821432D01*
X6119672Y2826004D01*
X6122974Y2831134D01*
X6126175Y2836722D01*
X6132372Y2849676D01*
X6140196Y2869438D01*
X6143599Y2877261D01*
X6147308Y2884170D01*
X6151473Y2890062D01*
X6156045Y2894990D01*
X6161125Y2898902D01*
X6166815Y2901696D01*
X6173114Y2903423D01*
X6180074Y2903982D01*
X6185763Y2903626D01*
X6190945Y2902508D01*
X6195618Y2900781D01*
X6199835Y2898394D01*
X6203594Y2895396D01*
X6206845Y2891891D01*
X6209588Y2887827D01*
X6211874Y2883306D01*
X6213602Y2878378D01*
X6214872Y2873044D01*
X6215634Y2867304D01*
X6215888Y2861310D01*
X6215583Y2854452D01*
X6214567Y2848203D01*
X6212687Y2842260D01*
X6209792Y2836418D01*
X6173216Y2828544D01*
X6173216Y2812542D01*
X6213094Y2810764D01*
X6216650Y2815945D01*
X6219799Y2821381D01*
X6222593Y2827121D01*
X6224930Y2833166D01*
X6226810Y2839516D01*
X6228181Y2846324D01*
X6229045Y2853486D01*
X6229350Y2861056D01*
X6229096Y2868168D01*
X6228384Y2875076D01*
X6227216Y2881680D01*
X6225590Y2887980D01*
X6223508Y2893974D01*
X6220968Y2899562D01*
X6218021Y2904794D01*
X6214618Y2909570D01*
X6210808Y2913888D01*
X6206591Y2917748D01*
X6201968Y2921101D01*
X6196990Y2923895D01*
X6191605Y2926130D01*
X6185814Y2927807D01*
X6179718Y2928772D01*
X6173216Y2929128D01*
X6167628Y2928874D01*
X6162294Y2928162D01*
X6157264Y2926994D01*
X6152489Y2925368D01*
X6148019Y2923336D01*
X6143752Y2920847D01*
X6139738Y2917952D01*
X6135928Y2914700D01*
X6132372Y2911094D01*
X6128969Y2907080D01*
X6125768Y2902712D01*
X6122720Y2898038D01*
X6119825Y2893060D01*
X6117082Y2887776D01*
X6112002Y2876296D01*
X6104483Y2858363D01*
X6101791Y2852470D01*
X6099098Y2847238D01*
X6096304Y2842666D01*
X6093460Y2838653D01*
X6090462Y2835300D01*
X6087262Y2832455D01*
X6083808Y2830169D01*
X6080150Y2828442D01*
X6076137Y2827223D01*
X6071768Y2826512D01*
X6067044Y2826258D01*
X6061049Y2826664D01*
X6055563Y2827832D01*
X6050534Y2829763D01*
X6046012Y2832354D01*
X6042050Y2835656D01*
X6038545Y2839618D01*
X6035548Y2844190D01*
X6033109Y2849372D01*
X6031179Y2855061D01*
X6029807Y2861310D01*
X6028944Y2868066D01*
X6028690Y2875280D01*
X6029147Y2884474D01*
X6030518Y2892602D01*
X6032855Y2900070D01*
X6036310Y2907284D01*
X6074664Y2915158D01*
X6074664Y2930906D01*
G37*
G36*
X6019800Y2765806D02*
G01*
X6019800Y2652776D01*
X6029198Y2652776D01*
X6035548Y2695956D01*
X6065977Y2696362D01*
X6180328Y2696464D01*
X6224524Y2695194D01*
X6227572Y2699512D01*
X6211062Y2762250D01*
X6200648Y2762250D01*
X6204458Y2721610D01*
X6059830Y2721762D01*
X6035548Y2722118D01*
X6029198Y2765806D01*
G37*
G36*
X6200648Y2619756D02*
G01*
X6200648Y2512568D01*
X6022594Y2594102D01*
X6019800Y2591308D01*
X6019800Y2567940D01*
X6209538Y2495550D01*
X6224524Y2495550D01*
X6224524Y2619756D01*
G37*
G36*
X6083554Y2473452D02*
G01*
X6083554Y2458212D01*
X6101334Y2458212D01*
X6198870Y2390394D01*
X6101334Y2390394D01*
X6101334Y2458212D01*
X6083554Y2458212D01*
X6083554Y2390394D01*
X6019800Y2390394D01*
X6019800Y2366010D01*
X6083554Y2366010D01*
X6083554Y2333498D01*
X6101334Y2333498D01*
X6101334Y2366010D01*
X6227572Y2366010D01*
X6227572Y2383028D01*
X6098286Y2473452D01*
G37*
G36*
X7407148Y3413760D02*
G01*
X7407148Y3306318D01*
X7229094Y3387851D01*
X7226300Y3385058D01*
X7226300Y3361690D01*
X7416038Y3289300D01*
X7431024Y3289300D01*
X7431024Y3413760D01*
G37*
G36*
X7290053Y3267202D02*
G01*
X7290053Y3251962D01*
X7307834Y3251962D01*
X7405370Y3184144D01*
X7307834Y3184144D01*
X7307834Y3251962D01*
X7290053Y3251962D01*
X7290053Y3184144D01*
X7226300Y3184144D01*
X7226300Y3159760D01*
X7290053Y3159760D01*
X7290053Y3127248D01*
X7307834Y3127248D01*
X7307834Y3159760D01*
X7434072Y3159760D01*
X7434072Y3176778D01*
X7304786Y3267202D01*
G37*
G36*
X7226300Y3108452D02*
G01*
X7226300Y2956814D01*
X7283958Y2954528D01*
X7283958Y2970530D01*
X7239508Y2980690D01*
X7239508Y3051048D01*
X7285481Y3051505D01*
X7376972Y3051505D01*
X7417308Y3051048D01*
X7420609Y3022092D01*
X7431024Y3022092D01*
X7431024Y3108452D01*
X7420609Y3108452D01*
X7417308Y3080004D01*
X7383830Y3079597D01*
X7293864Y3079496D01*
X7240016Y3080004D01*
X7236968Y3108452D01*
G37*
G36*
X7237984Y2932684D02*
G01*
X7234732Y2927045D01*
X7231684Y2920746D01*
X7228941Y2913837D01*
X7226503Y2906369D01*
X7224522Y2898546D01*
X7222998Y2890316D01*
X7222083Y2881884D01*
X7221728Y2873248D01*
X7221880Y2866999D01*
X7222388Y2860903D01*
X7223201Y2855061D01*
X7224268Y2849473D01*
X7225690Y2844088D01*
X7227417Y2838958D01*
X7229449Y2834081D01*
X7231735Y2829509D01*
X7234326Y2825242D01*
X7237171Y2821279D01*
X7240320Y2817622D01*
X7243724Y2814269D01*
X7247381Y2811322D01*
X7251293Y2808681D01*
X7255459Y2806395D01*
X7259878Y2804566D01*
X7264552Y2803042D01*
X7269429Y2801975D01*
X7274559Y2801315D01*
X7279894Y2801112D01*
X7285126Y2801315D01*
X7290155Y2801823D01*
X7294880Y2802788D01*
X7299452Y2804109D01*
X7303770Y2805887D01*
X7307884Y2808071D01*
X7311847Y2810713D01*
X7315657Y2813812D01*
X7319264Y2817368D01*
X7322820Y2821432D01*
X7326172Y2826004D01*
X7329474Y2831134D01*
X7332675Y2836722D01*
X7338872Y2849676D01*
X7346696Y2869438D01*
X7350099Y2877261D01*
X7353808Y2884170D01*
X7357973Y2890062D01*
X7362545Y2894990D01*
X7367625Y2898902D01*
X7373315Y2901696D01*
X7379614Y2903423D01*
X7386574Y2903982D01*
X7392263Y2903626D01*
X7397445Y2902508D01*
X7402118Y2900781D01*
X7406335Y2898394D01*
X7410094Y2895396D01*
X7413345Y2891891D01*
X7416088Y2887827D01*
X7418374Y2883306D01*
X7420102Y2878378D01*
X7421372Y2873044D01*
X7422134Y2867304D01*
X7422388Y2861310D01*
X7422083Y2854452D01*
X7421067Y2848203D01*
X7419187Y2842260D01*
X7416292Y2836418D01*
X7379716Y2828544D01*
X7379716Y2812542D01*
X7419594Y2810764D01*
X7423150Y2815945D01*
X7426299Y2821381D01*
X7429093Y2827121D01*
X7431430Y2833166D01*
X7433309Y2839516D01*
X7434681Y2846324D01*
X7435545Y2853486D01*
X7435850Y2861056D01*
X7435596Y2868168D01*
X7434884Y2875076D01*
X7433716Y2881680D01*
X7432090Y2887980D01*
X7430008Y2893974D01*
X7427468Y2899562D01*
X7424521Y2904794D01*
X7421118Y2909570D01*
X7417308Y2913888D01*
X7413091Y2917748D01*
X7408468Y2921101D01*
X7403490Y2923895D01*
X7398105Y2926130D01*
X7392314Y2927807D01*
X7386218Y2928772D01*
X7379716Y2929128D01*
X7374128Y2928874D01*
X7368794Y2928162D01*
X7363764Y2926994D01*
X7358989Y2925368D01*
X7354519Y2923336D01*
X7350252Y2920847D01*
X7346238Y2917952D01*
X7342428Y2914700D01*
X7338872Y2911094D01*
X7335469Y2907080D01*
X7332268Y2902712D01*
X7329220Y2898038D01*
X7326325Y2893060D01*
X7323581Y2887776D01*
X7318502Y2876296D01*
X7310983Y2858363D01*
X7308291Y2852470D01*
X7305598Y2847238D01*
X7302804Y2842666D01*
X7299959Y2838653D01*
X7296962Y2835300D01*
X7293762Y2832455D01*
X7290308Y2830169D01*
X7286650Y2828442D01*
X7282637Y2827223D01*
X7278268Y2826512D01*
X7273544Y2826258D01*
X7267549Y2826664D01*
X7262063Y2827832D01*
X7257034Y2829763D01*
X7252512Y2832354D01*
X7248550Y2835656D01*
X7245045Y2839618D01*
X7242048Y2844190D01*
X7239609Y2849372D01*
X7237679Y2855061D01*
X7236307Y2861310D01*
X7235444Y2868066D01*
X7235190Y2875280D01*
X7235647Y2884474D01*
X7237018Y2892602D01*
X7239355Y2900070D01*
X7242809Y2907284D01*
X7281164Y2915158D01*
X7281164Y2930906D01*
G37*
G36*
X7226300Y2765806D02*
G01*
X7226300Y2652776D01*
X7235698Y2652776D01*
X7242048Y2695956D01*
X7272477Y2696362D01*
X7386828Y2696464D01*
X7431024Y2695194D01*
X7434072Y2699512D01*
X7417562Y2762250D01*
X7407148Y2762250D01*
X7410958Y2721610D01*
X7266330Y2721762D01*
X7242048Y2722118D01*
X7235698Y2765806D01*
G37*
G36*
X7407148Y2619756D02*
G01*
X7407148Y2512568D01*
X7229094Y2594102D01*
X7226300Y2591308D01*
X7226300Y2567940D01*
X7416038Y2495550D01*
X7431024Y2495550D01*
X7431024Y2619756D01*
G37*
G36*
X7290053Y2473452D02*
G01*
X7290053Y2458212D01*
X7307834Y2458212D01*
X7405370Y2390394D01*
X7307834Y2390394D01*
X7307834Y2458212D01*
X7290053Y2458212D01*
X7290053Y2390394D01*
X7226300Y2390394D01*
X7226300Y2366010D01*
X7290053Y2366010D01*
X7290053Y2333498D01*
X7307834Y2333498D01*
X7307834Y2366010D01*
X7434072Y2366010D01*
X7434072Y2383028D01*
X7304786Y2473452D01*
G37*
G36*
X6518148Y6055360D02*
G01*
X6518148Y5947918D01*
X6340094Y6029452D01*
X6337300Y6026658D01*
X6337300Y6003290D01*
X6527038Y5930900D01*
X6542024Y5930900D01*
X6542024Y6055360D01*
G37*
G36*
X6401054Y5908802D02*
G01*
X6401054Y5893562D01*
X6418834Y5893562D01*
X6516370Y5825744D01*
X6418834Y5825744D01*
X6418834Y5893562D01*
X6401054Y5893562D01*
X6401054Y5825744D01*
X6337300Y5825744D01*
X6337300Y5801360D01*
X6401054Y5801360D01*
X6401054Y5768848D01*
X6418834Y5768848D01*
X6418834Y5801360D01*
X6545072Y5801360D01*
X6545072Y5818378D01*
X6415786Y5908802D01*
G37*
G36*
X6337300Y5750052D02*
G01*
X6337300Y5598414D01*
X6394958Y5596128D01*
X6394958Y5612130D01*
X6350508Y5622290D01*
X6350508Y5692648D01*
X6396482Y5693105D01*
X6487972Y5693105D01*
X6528307Y5692648D01*
X6531609Y5663692D01*
X6542024Y5663692D01*
X6542024Y5750052D01*
X6531609Y5750052D01*
X6528307Y5721604D01*
X6494830Y5721197D01*
X6404864Y5721096D01*
X6351016Y5721604D01*
X6347968Y5750052D01*
G37*
G36*
X6348984Y5574284D02*
G01*
X6345732Y5568645D01*
X6342684Y5562346D01*
X6339941Y5555437D01*
X6337503Y5547969D01*
X6335522Y5540146D01*
X6333998Y5531916D01*
X6333083Y5523484D01*
X6332728Y5514848D01*
X6332880Y5508599D01*
X6333388Y5502503D01*
X6334201Y5496661D01*
X6335268Y5491073D01*
X6336690Y5485688D01*
X6338417Y5480558D01*
X6340449Y5475681D01*
X6342735Y5471109D01*
X6345326Y5466842D01*
X6348171Y5462879D01*
X6351320Y5459222D01*
X6354724Y5455869D01*
X6358382Y5452922D01*
X6362293Y5450281D01*
X6366459Y5447995D01*
X6370878Y5446166D01*
X6375552Y5444642D01*
X6380429Y5443575D01*
X6385560Y5442915D01*
X6390894Y5442712D01*
X6396126Y5442915D01*
X6401155Y5443423D01*
X6405880Y5444388D01*
X6410452Y5445709D01*
X6414770Y5447487D01*
X6418884Y5449671D01*
X6422847Y5452313D01*
X6426657Y5455412D01*
X6430264Y5458968D01*
X6433820Y5463032D01*
X6437172Y5467604D01*
X6440474Y5472734D01*
X6443675Y5478322D01*
X6449872Y5491276D01*
X6457696Y5511038D01*
X6461099Y5518861D01*
X6464808Y5525770D01*
X6468973Y5531662D01*
X6473545Y5536590D01*
X6478625Y5540502D01*
X6484315Y5543296D01*
X6490614Y5545023D01*
X6497574Y5545582D01*
X6503263Y5545226D01*
X6508445Y5544108D01*
X6513118Y5542381D01*
X6517335Y5539994D01*
X6521094Y5536996D01*
X6524345Y5533491D01*
X6527088Y5529427D01*
X6529374Y5524906D01*
X6531102Y5519978D01*
X6532372Y5514644D01*
X6533134Y5508904D01*
X6533388Y5502910D01*
X6533083Y5496052D01*
X6532067Y5489803D01*
X6530187Y5483860D01*
X6527292Y5478018D01*
X6490716Y5470144D01*
X6490716Y5454142D01*
X6530594Y5452364D01*
X6534150Y5457545D01*
X6537299Y5462981D01*
X6540093Y5468721D01*
X6542430Y5474766D01*
X6544309Y5481116D01*
X6545681Y5487924D01*
X6546545Y5495086D01*
X6546850Y5502656D01*
X6546596Y5509768D01*
X6545884Y5516676D01*
X6544716Y5523280D01*
X6543090Y5529580D01*
X6541007Y5535574D01*
X6538468Y5541162D01*
X6535521Y5546394D01*
X6532118Y5551170D01*
X6528307Y5555488D01*
X6524091Y5559348D01*
X6519468Y5562701D01*
X6514490Y5565495D01*
X6509105Y5567730D01*
X6503314Y5569407D01*
X6497218Y5570372D01*
X6490716Y5570728D01*
X6485128Y5570474D01*
X6479794Y5569762D01*
X6474764Y5568594D01*
X6469989Y5566968D01*
X6465519Y5564936D01*
X6461252Y5562447D01*
X6457238Y5559552D01*
X6453428Y5556300D01*
X6449872Y5552694D01*
X6446469Y5548680D01*
X6443268Y5544312D01*
X6440220Y5539638D01*
X6437325Y5534660D01*
X6434582Y5529376D01*
X6429502Y5517896D01*
X6421983Y5499963D01*
X6419291Y5494070D01*
X6416598Y5488838D01*
X6413804Y5484266D01*
X6410960Y5480253D01*
X6407962Y5476900D01*
X6404762Y5474055D01*
X6401308Y5471769D01*
X6397650Y5470042D01*
X6393637Y5468823D01*
X6389268Y5468112D01*
X6384544Y5467858D01*
X6378549Y5468264D01*
X6373063Y5469432D01*
X6368034Y5471363D01*
X6363512Y5473954D01*
X6359550Y5477256D01*
X6356045Y5481218D01*
X6353048Y5485790D01*
X6350609Y5490972D01*
X6348679Y5496661D01*
X6347307Y5502910D01*
X6346444Y5509666D01*
X6346190Y5516880D01*
X6346647Y5526074D01*
X6348018Y5534202D01*
X6350355Y5541670D01*
X6353810Y5548884D01*
X6392164Y5556758D01*
X6392164Y5572506D01*
G37*
G36*
X6401054Y5421884D02*
G01*
X6401054Y5406390D01*
X6418834Y5406390D01*
X6516370Y5338826D01*
X6418834Y5338826D01*
X6418834Y5406390D01*
X6401054Y5406390D01*
X6401054Y5338826D01*
X6337300Y5338826D01*
X6337300Y5314188D01*
X6401054Y5314188D01*
X6401054Y5281930D01*
X6418834Y5281930D01*
X6418834Y5314188D01*
X6545072Y5314188D01*
X6545072Y5331206D01*
X6415786Y5421884D01*
G37*
G36*
X6383782Y5263134D02*
G01*
X6377838Y5262829D01*
X6372301Y5261965D01*
X6367068Y5260543D01*
X6362192Y5258562D01*
X6357721Y5256123D01*
X6353606Y5253126D01*
X6349847Y5249672D01*
X6346444Y5245760D01*
X6343446Y5241442D01*
X6340805Y5236667D01*
X6338620Y5231485D01*
X6336792Y5225948D01*
X6335369Y5220055D01*
X6334302Y5213807D01*
X6333693Y5207254D01*
X6333528Y5199380D01*
X6344920Y5199380D01*
X6345275Y5205120D01*
X6346291Y5210505D01*
X6347917Y5215483D01*
X6350203Y5220106D01*
X6353048Y5224221D01*
X6356400Y5227929D01*
X6360312Y5231130D01*
X6364732Y5233771D01*
X6369558Y5235905D01*
X6374841Y5237480D01*
X6380530Y5238445D01*
X6386576Y5238750D01*
X6394196Y5238292D01*
X6401104Y5236972D01*
X6407353Y5234736D01*
X6413144Y5231536D01*
X6418529Y5227421D01*
X6423558Y5222341D01*
X6428384Y5216296D01*
X6433058Y5209286D01*
X6428943Y5200802D01*
X6424879Y5193284D01*
X6451600Y5193284D01*
X6455511Y5200853D01*
X6459423Y5207457D01*
X6463436Y5213146D01*
X6467449Y5218023D01*
X6471513Y5222087D01*
X6475577Y5225440D01*
X6479743Y5228132D01*
X6483959Y5230164D01*
X6488176Y5231688D01*
X6492443Y5232704D01*
X6496761Y5233263D01*
X6501130Y5233416D01*
X6508394Y5232704D01*
X6514896Y5230723D01*
X6520586Y5227574D01*
X6525412Y5223408D01*
X6529222Y5218430D01*
X6532067Y5212740D01*
X6533794Y5206492D01*
X6534404Y5199888D01*
X6533642Y5192877D01*
X6531457Y5186629D01*
X6528054Y5181295D01*
X6523634Y5176824D01*
X6518300Y5173319D01*
X6512306Y5170728D01*
X6505854Y5169154D01*
X6499098Y5168646D01*
X6491782Y5168950D01*
X6485077Y5169966D01*
X6478828Y5171694D01*
X6472986Y5174183D01*
X6467398Y5177586D01*
X6462064Y5181803D01*
X6456832Y5187035D01*
X6451600Y5193284D01*
X6424879Y5193284D01*
X6420866Y5186730D01*
X6416954Y5181092D01*
X6412992Y5176266D01*
X6409029Y5172252D01*
X6405067Y5169001D01*
X6401003Y5166461D01*
X6396837Y5164582D01*
X6392570Y5163261D01*
X6388150Y5162550D01*
X6383528Y5162296D01*
X6377889Y5162600D01*
X6372656Y5163515D01*
X6367729Y5164937D01*
X6363258Y5166918D01*
X6359194Y5169458D01*
X6355537Y5172456D01*
X6352438Y5175910D01*
X6349796Y5179822D01*
X6347714Y5184140D01*
X6346190Y5188864D01*
X6345224Y5193944D01*
X6344920Y5199380D01*
X6333528Y5199380D01*
X6333744Y5193741D01*
X6334506Y5187340D01*
X6335725Y5181193D01*
X6337452Y5175351D01*
X6339586Y5169865D01*
X6342176Y5164683D01*
X6345174Y5159908D01*
X6348526Y5155488D01*
X6352286Y5151526D01*
X6356400Y5148021D01*
X6360871Y5144922D01*
X6365646Y5142382D01*
X6370726Y5140350D01*
X6376060Y5138877D01*
X6381699Y5137962D01*
X6387592Y5137658D01*
X6394246Y5137962D01*
X6400444Y5138877D01*
X6406286Y5140401D01*
X6411823Y5142585D01*
X6417005Y5145379D01*
X6421882Y5148884D01*
X6426504Y5152999D01*
X6430924Y5157774D01*
X6435191Y5163261D01*
X6439255Y5169458D01*
X6443167Y5176316D01*
X6447028Y5183886D01*
X6451142Y5177129D01*
X6455359Y5171186D01*
X6459677Y5166004D01*
X6463995Y5161534D01*
X6468414Y5157724D01*
X6472834Y5154574D01*
X6477203Y5152034D01*
X6481622Y5150053D01*
X6485940Y5148580D01*
X6490258Y5147564D01*
X6494475Y5147005D01*
X6498590Y5146802D01*
X6505346Y5147208D01*
X6511747Y5148478D01*
X6517741Y5150459D01*
X6523278Y5153253D01*
X6528307Y5156758D01*
X6532829Y5160975D01*
X6536791Y5165902D01*
X6540093Y5171389D01*
X6542785Y5177536D01*
X6544716Y5184292D01*
X6545935Y5191556D01*
X6546342Y5199380D01*
X6546138Y5205323D01*
X6545427Y5211013D01*
X6544309Y5216550D01*
X6542785Y5221833D01*
X6540855Y5226862D01*
X6538518Y5231587D01*
X6535775Y5236006D01*
X6532676Y5240070D01*
X6529171Y5243779D01*
X6525361Y5247081D01*
X6521145Y5249926D01*
X6516674Y5252313D01*
X6511848Y5254244D01*
X6506718Y5255615D01*
X6501282Y5256479D01*
X6495542Y5256784D01*
X6489649Y5256530D01*
X6484010Y5255818D01*
X6478524Y5254599D01*
X6473240Y5252872D01*
X6468160Y5250637D01*
X6463284Y5247843D01*
X6458559Y5244490D01*
X6454089Y5240528D01*
X6449771Y5236006D01*
X6445605Y5230876D01*
X6441643Y5225084D01*
X6437884Y5218684D01*
X6434328Y5225745D01*
X6430670Y5232196D01*
X6426809Y5238038D01*
X6422847Y5243322D01*
X6418681Y5247944D01*
X6414363Y5251958D01*
X6409842Y5255361D01*
X6405067Y5258155D01*
X6400139Y5260340D01*
X6394958Y5261864D01*
X6389471Y5262829D01*
G37*
G36*
X4273296Y6838950D02*
G01*
X4267454Y6838746D01*
X4261866Y6838137D01*
X4256430Y6837172D01*
X4251299Y6835851D01*
X4246372Y6834124D01*
X4241749Y6832041D01*
X4237482Y6829602D01*
X4233519Y6826808D01*
X4229963Y6823709D01*
X4226814Y6820255D01*
X4224020Y6816445D01*
X4221734Y6812381D01*
X4219854Y6807962D01*
X4218533Y6803288D01*
X4217720Y6798259D01*
X4217416Y6792975D01*
X4217771Y6786930D01*
X4218838Y6781241D01*
X4220514Y6776008D01*
X4222851Y6771131D01*
X4225798Y6766610D01*
X4229303Y6762445D01*
X4233316Y6758533D01*
X4237888Y6754926D01*
X4242917Y6751624D01*
X4248404Y6748525D01*
X4254296Y6745630D01*
X4277766Y6735825D01*
X4284319Y6732524D01*
X4289806Y6729069D01*
X4294124Y6725361D01*
X4297426Y6721348D01*
X4299712Y6716877D01*
X4301032Y6711848D01*
X4301490Y6706108D01*
X4301185Y6701231D01*
X4300220Y6696760D01*
X4298645Y6692646D01*
X4296511Y6688988D01*
X4293819Y6685737D01*
X4290618Y6682892D01*
X4286859Y6680453D01*
X4282694Y6678472D01*
X4278020Y6676898D01*
X4272940Y6675780D01*
X4267454Y6675069D01*
X4261612Y6674866D01*
X4254144Y6675221D01*
X4247438Y6676288D01*
X4241241Y6678168D01*
X4235196Y6680962D01*
X4228846Y6712203D01*
X4216146Y6712203D01*
X4214368Y6677152D01*
X4218940Y6674459D01*
X4224121Y6671970D01*
X4229811Y6669735D01*
X4235907Y6667804D01*
X4242358Y6666179D01*
X4249064Y6664959D01*
X4256024Y6664198D01*
X4263136Y6663944D01*
X4269536Y6664147D01*
X4275683Y6664756D01*
X4281474Y6665772D01*
X4287012Y6667195D01*
X4292244Y6668973D01*
X4297070Y6671157D01*
X4301540Y6673646D01*
X4305655Y6676542D01*
X4309313Y6679793D01*
X4312615Y6683349D01*
X4315409Y6687261D01*
X4317746Y6691477D01*
X4319625Y6695998D01*
X4320946Y6700875D01*
X4321759Y6706006D01*
X4322064Y6711442D01*
X4321810Y6717131D01*
X4320997Y6722465D01*
X4319625Y6727444D01*
X4317644Y6732117D01*
X4315053Y6736486D01*
X4311802Y6740652D01*
X4307789Y6744563D01*
X4303115Y6748322D01*
X4297629Y6751929D01*
X4291380Y6755434D01*
X4284268Y6758889D01*
X4276344Y6762242D01*
X4266438Y6766052D01*
X4260037Y6768846D01*
X4254398Y6771944D01*
X4249521Y6775348D01*
X4245457Y6779107D01*
X4242257Y6783273D01*
X4239920Y6787946D01*
X4238498Y6793128D01*
X4237990Y6798818D01*
X4238650Y6805523D01*
X4240631Y6811416D01*
X4243781Y6816445D01*
X4247997Y6820560D01*
X4253128Y6823811D01*
X4259122Y6826148D01*
X4265777Y6827570D01*
X4273042Y6828028D01*
X4278528Y6827723D01*
X4283659Y6826808D01*
X4288586Y6825234D01*
X4293362Y6822948D01*
X4299712Y6792975D01*
X4312666Y6792975D01*
X4314444Y6825742D01*
X4310227Y6828586D01*
X4305757Y6831126D01*
X4301032Y6833362D01*
X4296054Y6835292D01*
X4290822Y6836867D01*
X4285284Y6837984D01*
X4279442Y6838696D01*
G37*
G36*
X4036060Y6835140D02*
G01*
X4036060Y6826503D01*
X4056887Y6823964D01*
X4057142Y6785356D01*
X4057142Y6731253D01*
X4057345Y6724294D01*
X4057853Y6717741D01*
X4058767Y6711645D01*
X4059986Y6705904D01*
X4061561Y6700570D01*
X4063441Y6695643D01*
X4065676Y6691122D01*
X4068165Y6686956D01*
X4070959Y6683146D01*
X4074007Y6679692D01*
X4077411Y6676593D01*
X4081018Y6673900D01*
X4084878Y6671513D01*
X4088993Y6669481D01*
X4093362Y6667753D01*
X4097934Y6666382D01*
X4102760Y6665315D01*
X4107738Y6664553D01*
X4112971Y6664096D01*
X4118356Y6663944D01*
X4123436Y6664096D01*
X4128312Y6664553D01*
X4133087Y6665315D01*
X4137609Y6666433D01*
X4141978Y6667906D01*
X4146143Y6669684D01*
X4150106Y6671818D01*
X4153814Y6674307D01*
X4157319Y6677152D01*
X4160570Y6680403D01*
X4163517Y6684009D01*
X4166260Y6688023D01*
X4168698Y6692442D01*
X4170832Y6697268D01*
X4172661Y6702501D01*
X4174236Y6708190D01*
X4175455Y6714286D01*
X4176318Y6720840D01*
X4176826Y6727850D01*
X4177029Y6735318D01*
X4177284Y6823456D01*
X4199636Y6826503D01*
X4199636Y6835140D01*
X4139692Y6835140D01*
X4139692Y6826503D01*
X4166108Y6822948D01*
X4166362Y6741414D01*
X4166209Y6733336D01*
X4165650Y6725869D01*
X4164787Y6719062D01*
X4163618Y6712864D01*
X4162044Y6707225D01*
X4160164Y6702196D01*
X4157929Y6697725D01*
X4155338Y6693814D01*
X4152442Y6690410D01*
X4149140Y6687566D01*
X4145534Y6685127D01*
X4141622Y6683248D01*
X4137304Y6681774D01*
X4132681Y6680758D01*
X4127703Y6680149D01*
X4122420Y6679946D01*
X4117695Y6680098D01*
X4113174Y6680606D01*
X4108907Y6681520D01*
X4104843Y6682790D01*
X4101084Y6684518D01*
X4097629Y6686651D01*
X4094429Y6689242D01*
X4091482Y6692341D01*
X4088892Y6695897D01*
X4086606Y6700062D01*
X4084624Y6704685D01*
X4082999Y6709968D01*
X4081678Y6715810D01*
X4080764Y6722262D01*
X4080205Y6729323D01*
X4080001Y6737096D01*
X4080154Y6801866D01*
X4080510Y6823709D01*
X4105910Y6826503D01*
X4105910Y6835140D01*
G37*
G36*
X4341876Y6835140D02*
G01*
X4341876Y6826503D01*
X4365244Y6823964D01*
X4365498Y6759448D01*
X4388358Y6759448D01*
X4388561Y6808978D01*
X4388866Y6825234D01*
X4406392Y6825234D01*
X4412691Y6825030D01*
X4418482Y6824421D01*
X4423664Y6823405D01*
X4428286Y6821982D01*
X4432350Y6820103D01*
X4435856Y6817715D01*
X4438802Y6814921D01*
X4441240Y6811670D01*
X4443120Y6807860D01*
X4444441Y6803593D01*
X4445254Y6798818D01*
X4445508Y6793484D01*
X4445203Y6787896D01*
X4444339Y6782866D01*
X4442917Y6778294D01*
X4440834Y6774281D01*
X4438192Y6770725D01*
X4434890Y6767677D01*
X4430979Y6765137D01*
X4426458Y6763054D01*
X4421276Y6761480D01*
X4415485Y6760362D01*
X4408982Y6759651D01*
X4401820Y6759448D01*
X4365498Y6759448D01*
X4365498Y6749034D01*
X4402836Y6749034D01*
X4411116Y6748780D01*
X4418584Y6748018D01*
X4425289Y6746798D01*
X4431233Y6745020D01*
X4436364Y6742785D01*
X4440783Y6740042D01*
X4444441Y6736791D01*
X4447438Y6733031D01*
X4449724Y6728764D01*
X4451350Y6724040D01*
X4452315Y6718757D01*
X4452620Y6712966D01*
X4452264Y6707479D01*
X4451299Y6702399D01*
X4449622Y6697827D01*
X4447336Y6693662D01*
X4444339Y6689953D01*
X4440732Y6686753D01*
X4436414Y6684009D01*
X4431487Y6681724D01*
X4425950Y6679946D01*
X4419701Y6678675D01*
X4412843Y6677914D01*
X4405376Y6677659D01*
X4388866Y6677659D01*
X4388358Y6724040D01*
X4388358Y6749034D01*
X4365498Y6749034D01*
X4365244Y6678675D01*
X4341876Y6676136D01*
X4341876Y6667500D01*
X4410202Y6667500D01*
X4418838Y6667753D01*
X4426762Y6668516D01*
X4434027Y6669735D01*
X4440682Y6671411D01*
X4446727Y6673494D01*
X4452162Y6675932D01*
X4456988Y6678726D01*
X4461256Y6681774D01*
X4464964Y6685127D01*
X4468114Y6688683D01*
X4470755Y6692493D01*
X4472838Y6696456D01*
X4474464Y6700520D01*
X4475581Y6704685D01*
X4476292Y6708952D01*
X4476496Y6713220D01*
X4476191Y6718249D01*
X4475276Y6723125D01*
X4473752Y6727748D01*
X4471568Y6732168D01*
X4468672Y6736283D01*
X4465116Y6740093D01*
X4460849Y6743547D01*
X4455871Y6746697D01*
X4450130Y6749440D01*
X4443628Y6751777D01*
X4436313Y6753707D01*
X4428236Y6755130D01*
X4434992Y6756755D01*
X4441088Y6758787D01*
X4446473Y6761175D01*
X4451197Y6763918D01*
X4455312Y6766966D01*
X4458868Y6770319D01*
X4461764Y6773875D01*
X4464100Y6777685D01*
X4465878Y6781647D01*
X4467148Y6785762D01*
X4467860Y6789978D01*
X4468114Y6794246D01*
X4467707Y6800088D01*
X4466539Y6805574D01*
X4464558Y6810705D01*
X4461865Y6815480D01*
X4458360Y6819798D01*
X4454093Y6823659D01*
X4449114Y6827012D01*
X4443374Y6829856D01*
X4436922Y6832092D01*
X4429760Y6833768D01*
X4421835Y6834784D01*
X4413250Y6835140D01*
G37*
G36*
X4262120Y6508750D02*
G01*
X4257192Y6508597D01*
X4252315Y6508089D01*
X4247540Y6507226D01*
X4242765Y6506057D01*
X4238091Y6504584D01*
X4233519Y6502755D01*
X4229049Y6500672D01*
X4224731Y6498234D01*
X4220565Y6495491D01*
X4216501Y6492443D01*
X4212640Y6489141D01*
X4208983Y6485534D01*
X4205528Y6481622D01*
X4202328Y6477406D01*
X4199280Y6472936D01*
X4196537Y6468211D01*
X4194048Y6463233D01*
X4191863Y6457950D01*
X4189933Y6452412D01*
X4188358Y6446672D01*
X4187088Y6440627D01*
X4186174Y6434378D01*
X4185615Y6427876D01*
X4185412Y6421120D01*
X4211320Y6421120D01*
X4211421Y6427012D01*
X4211777Y6432854D01*
X4212386Y6438595D01*
X4214317Y6449720D01*
X4217263Y6460185D01*
X4219092Y6465112D01*
X4221226Y6469837D01*
X4223562Y6474256D01*
X4226204Y6478371D01*
X4229100Y6482181D01*
X4232249Y6485636D01*
X4235704Y6488684D01*
X4239412Y6491376D01*
X4243374Y6493611D01*
X4247642Y6495440D01*
X4252163Y6496761D01*
X4256989Y6497574D01*
X4262120Y6497828D01*
X4267149Y6497574D01*
X4271924Y6496761D01*
X4276394Y6495440D01*
X4280611Y6493611D01*
X4284522Y6491376D01*
X4288180Y6488684D01*
X4291533Y6485636D01*
X4294632Y6482181D01*
X4297527Y6478371D01*
X4300118Y6474256D01*
X4302404Y6469837D01*
X4304487Y6465112D01*
X4306316Y6460185D01*
X4307890Y6455054D01*
X4309211Y6449720D01*
X4310278Y6444234D01*
X4311700Y6432854D01*
X4312056Y6427012D01*
X4312056Y6415227D01*
X4311700Y6409385D01*
X4310278Y6398006D01*
X4309211Y6392519D01*
X4307890Y6387185D01*
X4306316Y6382054D01*
X4304487Y6377127D01*
X4302404Y6372402D01*
X4300118Y6367983D01*
X4297527Y6363868D01*
X4294632Y6360058D01*
X4291533Y6356604D01*
X4288180Y6353556D01*
X4284522Y6350863D01*
X4280611Y6348628D01*
X4276394Y6346799D01*
X4271924Y6345478D01*
X4267149Y6344666D01*
X4262120Y6344412D01*
X4256989Y6344666D01*
X4252163Y6345478D01*
X4247642Y6346799D01*
X4243374Y6348628D01*
X4239412Y6350863D01*
X4235704Y6353556D01*
X4232249Y6356604D01*
X4229100Y6360058D01*
X4226204Y6363868D01*
X4223562Y6367983D01*
X4221226Y6372402D01*
X4219092Y6377127D01*
X4217263Y6382054D01*
X4214317Y6392519D01*
X4212386Y6403644D01*
X4211777Y6409385D01*
X4211421Y6415227D01*
X4211320Y6421120D01*
X4185412Y6421120D01*
X4185615Y6414160D01*
X4186174Y6407454D01*
X4187088Y6401054D01*
X4188358Y6394907D01*
X4189933Y6389014D01*
X4191812Y6383477D01*
X4193997Y6378194D01*
X4196486Y6373164D01*
X4199229Y6368491D01*
X4202226Y6364071D01*
X4205478Y6359906D01*
X4208881Y6356096D01*
X4212539Y6352540D01*
X4216400Y6349339D01*
X4220413Y6346393D01*
X4224629Y6343751D01*
X4228947Y6341414D01*
X4233418Y6339382D01*
X4237990Y6337655D01*
X4242663Y6336284D01*
X4247438Y6335166D01*
X4252264Y6334353D01*
X4257192Y6333896D01*
X4262120Y6333744D01*
X4267047Y6333896D01*
X4271873Y6334404D01*
X4276699Y6335217D01*
X4281424Y6336385D01*
X4286046Y6337858D01*
X4290618Y6339636D01*
X4295038Y6341719D01*
X4299305Y6344158D01*
X4303471Y6346850D01*
X4307433Y6349847D01*
X4311243Y6353149D01*
X4314850Y6356756D01*
X4318254Y6360668D01*
X4321454Y6364833D01*
X4324400Y6369253D01*
X4327144Y6373977D01*
X4329582Y6378956D01*
X4331716Y6384239D01*
X4333595Y6389725D01*
X4335170Y6395516D01*
X4336440Y6401562D01*
X4337304Y6407810D01*
X4337862Y6414363D01*
X4338066Y6421120D01*
X4337862Y6428079D01*
X4337304Y6434734D01*
X4336389Y6441135D01*
X4335119Y6447282D01*
X4333544Y6453124D01*
X4331665Y6458712D01*
X4329480Y6463995D01*
X4326991Y6469024D01*
X4324299Y6473748D01*
X4321302Y6478168D01*
X4318101Y6482334D01*
X4314647Y6486194D01*
X4311040Y6489750D01*
X4307230Y6493002D01*
X4303217Y6495948D01*
X4299102Y6498640D01*
X4294784Y6500977D01*
X4290364Y6503009D01*
X4285843Y6504787D01*
X4281220Y6506209D01*
X4276547Y6507327D01*
X4271772Y6508089D01*
X4266946Y6508597D01*
G37*
G36*
X4037076Y6504940D02*
G01*
X4037076Y6496304D01*
X4060444Y6493764D01*
X4060901Y6455054D01*
X4060951Y6414262D01*
X4083812Y6414262D01*
X4083913Y6467094D01*
X4084320Y6495034D01*
X4100322Y6495034D01*
X4107434Y6494729D01*
X4113834Y6493865D01*
X4119626Y6492392D01*
X4124807Y6490360D01*
X4129278Y6487769D01*
X4133189Y6484620D01*
X4136440Y6480962D01*
X4139082Y6476796D01*
X4141165Y6472123D01*
X4142587Y6466941D01*
X4143451Y6461252D01*
X4143756Y6455156D01*
X4143501Y6449263D01*
X4142689Y6443726D01*
X4141266Y6438595D01*
X4139285Y6433820D01*
X4136694Y6429502D01*
X4133494Y6425641D01*
X4129633Y6422288D01*
X4125112Y6419494D01*
X4119879Y6417259D01*
X4113936Y6415633D01*
X4107230Y6414617D01*
X4099814Y6414262D01*
X4060951Y6414262D01*
X4060850Y6375908D01*
X4060444Y6348476D01*
X4037076Y6345936D01*
X4037076Y6337300D01*
X4107942Y6337300D01*
X4107942Y6345936D01*
X4084320Y6348730D01*
X4083862Y6376720D01*
X4083812Y6404356D01*
X4097020Y6404356D01*
X4106113Y6404610D01*
X4114546Y6405422D01*
X4122267Y6406692D01*
X4129278Y6408420D01*
X4135678Y6410553D01*
X4141419Y6413144D01*
X4146550Y6416090D01*
X4151020Y6419392D01*
X4154932Y6422999D01*
X4158284Y6426911D01*
X4161028Y6431127D01*
X4163263Y6435547D01*
X4164990Y6440170D01*
X4166209Y6445046D01*
X4166870Y6450025D01*
X4167124Y6455156D01*
X4166870Y6460591D01*
X4166158Y6465824D01*
X4164939Y6470802D01*
X4163212Y6475476D01*
X4161028Y6479895D01*
X4158335Y6483959D01*
X4155135Y6487769D01*
X4151477Y6491173D01*
X4147312Y6494272D01*
X4142638Y6497015D01*
X4137507Y6499402D01*
X4131868Y6501333D01*
X4125722Y6502907D01*
X4119118Y6504025D01*
X4112006Y6504685D01*
X4104386Y6504940D01*
G37*
G36*
X4355592Y6504940D02*
G01*
X4355592Y6496304D01*
X4378960Y6493764D01*
X4379214Y6425184D01*
X4402074Y6425184D01*
X4402175Y6467144D01*
X4402582Y6495034D01*
X4424426Y6495034D01*
X4430674Y6494780D01*
X4436313Y6494018D01*
X4441393Y6492748D01*
X4445914Y6491020D01*
X4449876Y6488785D01*
X4453280Y6486144D01*
X4456125Y6483045D01*
X4458462Y6479489D01*
X4460240Y6475526D01*
X4461510Y6471158D01*
X4462272Y6466382D01*
X4462526Y6461252D01*
X4462272Y6456172D01*
X4461408Y6451346D01*
X4460036Y6446824D01*
X4458106Y6442659D01*
X4455617Y6438849D01*
X4452569Y6435394D01*
X4449013Y6432448D01*
X4444847Y6429908D01*
X4440123Y6427876D01*
X4434840Y6426403D01*
X4429048Y6425488D01*
X4422648Y6425184D01*
X4379214Y6425184D01*
X4378960Y6348476D01*
X4355592Y6345936D01*
X4355592Y6337300D01*
X4425950Y6337300D01*
X4425950Y6345936D01*
X4402582Y6348730D01*
X4402124Y6387033D01*
X4402074Y6415532D01*
X4415536Y6415532D01*
X4422749Y6415278D01*
X4428947Y6414516D01*
X4434128Y6412992D01*
X4438446Y6410706D01*
X4442053Y6407454D01*
X4445050Y6403086D01*
X4447489Y6397548D01*
X4449572Y6390640D01*
X4459732Y6350762D01*
X4462678Y6343345D01*
X4467656Y6338366D01*
X4475022Y6335623D01*
X4485132Y6334760D01*
X4490770Y6334963D01*
X4495800Y6335471D01*
X4500270Y6336284D01*
X4504182Y6337300D01*
X4504182Y6345936D01*
X4484624Y6347714D01*
X4472940Y6387084D01*
X4470704Y6393840D01*
X4468164Y6399682D01*
X4465218Y6404660D01*
X4461865Y6408826D01*
X4458055Y6412230D01*
X4453737Y6414973D01*
X4448810Y6417056D01*
X4443222Y6418580D01*
X4450029Y6420104D01*
X4456277Y6422085D01*
X4461916Y6424574D01*
X4466996Y6427419D01*
X4471466Y6430670D01*
X4475378Y6434277D01*
X4478629Y6438138D01*
X4481322Y6442303D01*
X4483455Y6446723D01*
X4484928Y6451346D01*
X4485843Y6456121D01*
X4486148Y6460998D01*
X4485894Y6466078D01*
X4485132Y6470853D01*
X4483811Y6475323D01*
X4482084Y6479540D01*
X4479798Y6483451D01*
X4477054Y6487058D01*
X4473854Y6490360D01*
X4470196Y6493357D01*
X4466082Y6495999D01*
X4461560Y6498336D01*
X4456582Y6500317D01*
X4451197Y6501942D01*
X4445406Y6503263D01*
X4439208Y6504178D01*
X4432655Y6504736D01*
X4425696Y6504940D01*
G37*
G36*
X4507230Y6504940D02*
G01*
X4504944Y6460236D01*
X4517644Y6460236D01*
X4524502Y6493764D01*
X4563872Y6493764D01*
X4564380Y6449568D01*
X4564227Y6370472D01*
X4563872Y6348730D01*
X4537964Y6345936D01*
X4537964Y6337300D01*
X4613402Y6337300D01*
X4613402Y6345936D01*
X4587494Y6348730D01*
X4587240Y6387287D01*
X4587494Y6493764D01*
X4626864Y6493764D01*
X4633976Y6460236D01*
X4646168Y6460236D01*
X4644390Y6504940D01*
G37*
G36*
X4393946Y2100580D02*
G01*
X4321804Y1997202D01*
X4332478Y1997202D01*
X4387850Y2076957D01*
X4387850Y1997202D01*
X4321804Y1997202D01*
X4320032Y1994662D01*
X4320032Y1982470D01*
X4387850Y1982470D01*
X4387850Y1930400D01*
X4407916Y1930400D01*
X4407916Y1982470D01*
X4434332Y1982470D01*
X4434332Y1997202D01*
X4407916Y1997202D01*
X4407916Y2100580D01*
G37*
G36*
X4176776Y2098040D02*
G01*
X4176776Y2089404D01*
X4200144Y2086864D01*
X4200601Y2048154D01*
X4200652Y2007362D01*
X4223512Y2007362D01*
X4223613Y2060193D01*
X4224020Y2088134D01*
X4240022Y2088134D01*
X4247134Y2087829D01*
X4253534Y2086965D01*
X4259326Y2085492D01*
X4264507Y2083460D01*
X4268978Y2080869D01*
X4272889Y2077720D01*
X4276140Y2074062D01*
X4278782Y2069896D01*
X4280865Y2065223D01*
X4282287Y2060041D01*
X4283151Y2054352D01*
X4283456Y2048256D01*
X4283202Y2042363D01*
X4282389Y2036825D01*
X4280966Y2031695D01*
X4278985Y2026920D01*
X4276394Y2022602D01*
X4273194Y2018741D01*
X4269333Y2015388D01*
X4264812Y2012594D01*
X4259580Y2010359D01*
X4253636Y2008733D01*
X4246930Y2007717D01*
X4239514Y2007362D01*
X4200652Y2007362D01*
X4200550Y1969007D01*
X4200144Y1941575D01*
X4176776Y1939036D01*
X4176776Y1930400D01*
X4247642Y1930400D01*
X4247642Y1939036D01*
X4224020Y1941830D01*
X4223562Y1969820D01*
X4223512Y1997456D01*
X4236720Y1997456D01*
X4245813Y1997710D01*
X4254246Y1998522D01*
X4261967Y1999792D01*
X4268978Y2001520D01*
X4275378Y2003653D01*
X4281119Y2006244D01*
X4286250Y2009190D01*
X4290720Y2012492D01*
X4294632Y2016099D01*
X4297984Y2020011D01*
X4300728Y2024227D01*
X4302963Y2028647D01*
X4304690Y2033270D01*
X4305909Y2038146D01*
X4306570Y2043125D01*
X4306824Y2048256D01*
X4306570Y2053691D01*
X4305858Y2058924D01*
X4304639Y2063902D01*
X4302912Y2068575D01*
X4300728Y2072995D01*
X4298035Y2077059D01*
X4294835Y2080869D01*
X4291177Y2084273D01*
X4287012Y2087372D01*
X4282338Y2090115D01*
X4277207Y2092502D01*
X4271568Y2094433D01*
X4265422Y2096007D01*
X4258818Y2097125D01*
X4251706Y2097786D01*
X4244086Y2098040D01*
G37*
G36*
X4401820Y1771650D02*
G01*
X4396892Y1771497D01*
X4392015Y1770989D01*
X4387240Y1770125D01*
X4382465Y1768957D01*
X4377791Y1767484D01*
X4373219Y1765655D01*
X4368749Y1763572D01*
X4364431Y1761134D01*
X4360265Y1758391D01*
X4356201Y1755343D01*
X4352340Y1752041D01*
X4348683Y1748434D01*
X4345228Y1744522D01*
X4342028Y1740306D01*
X4338980Y1735836D01*
X4336237Y1731111D01*
X4333748Y1726133D01*
X4331563Y1720850D01*
X4329633Y1715312D01*
X4328058Y1709572D01*
X4326788Y1703527D01*
X4325874Y1697278D01*
X4325315Y1690776D01*
X4325112Y1684020D01*
X4351020Y1684020D01*
X4351121Y1689912D01*
X4351477Y1695754D01*
X4352086Y1701495D01*
X4354017Y1712620D01*
X4356963Y1723085D01*
X4358792Y1728012D01*
X4360926Y1732737D01*
X4363262Y1737156D01*
X4365904Y1741271D01*
X4368800Y1745081D01*
X4371949Y1748536D01*
X4375404Y1751584D01*
X4379112Y1754276D01*
X4383074Y1756511D01*
X4387342Y1758340D01*
X4391863Y1759661D01*
X4396689Y1760474D01*
X4401820Y1760728D01*
X4406849Y1760474D01*
X4411624Y1759661D01*
X4416094Y1758340D01*
X4420311Y1756511D01*
X4424222Y1754276D01*
X4427880Y1751584D01*
X4431233Y1748536D01*
X4434332Y1745081D01*
X4437227Y1741271D01*
X4439818Y1737156D01*
X4442104Y1732737D01*
X4444187Y1728012D01*
X4446016Y1723085D01*
X4447590Y1717954D01*
X4448911Y1712620D01*
X4449978Y1707134D01*
X4451400Y1695754D01*
X4451756Y1689912D01*
X4451756Y1678127D01*
X4451400Y1672285D01*
X4449978Y1660906D01*
X4448911Y1655419D01*
X4447590Y1650085D01*
X4446016Y1644954D01*
X4444187Y1640027D01*
X4442104Y1635302D01*
X4439818Y1630883D01*
X4437227Y1626768D01*
X4434332Y1622958D01*
X4431233Y1619504D01*
X4427880Y1616456D01*
X4424222Y1613763D01*
X4420311Y1611528D01*
X4416094Y1609699D01*
X4411624Y1608378D01*
X4406849Y1607566D01*
X4401820Y1607312D01*
X4396689Y1607566D01*
X4391863Y1608378D01*
X4387342Y1609699D01*
X4383074Y1611528D01*
X4379112Y1613763D01*
X4375404Y1616456D01*
X4371949Y1619504D01*
X4368800Y1622958D01*
X4365904Y1626768D01*
X4363262Y1630883D01*
X4360926Y1635302D01*
X4358792Y1640027D01*
X4356963Y1644954D01*
X4354017Y1655419D01*
X4352086Y1666544D01*
X4351477Y1672285D01*
X4351121Y1678127D01*
X4351020Y1684020D01*
X4325112Y1684020D01*
X4325315Y1677060D01*
X4325874Y1670354D01*
X4326788Y1663954D01*
X4328058Y1657807D01*
X4329633Y1651914D01*
X4331512Y1646377D01*
X4333697Y1641093D01*
X4336186Y1636064D01*
X4338929Y1631391D01*
X4341926Y1626971D01*
X4345178Y1622806D01*
X4348581Y1618996D01*
X4352239Y1615440D01*
X4356100Y1612239D01*
X4360113Y1609293D01*
X4364329Y1606651D01*
X4368647Y1604314D01*
X4373118Y1602282D01*
X4377690Y1600555D01*
X4382363Y1599184D01*
X4387138Y1598066D01*
X4391964Y1597253D01*
X4396892Y1596796D01*
X4401820Y1596644D01*
X4406747Y1596796D01*
X4411573Y1597304D01*
X4416399Y1598117D01*
X4421124Y1599285D01*
X4425746Y1600758D01*
X4430318Y1602536D01*
X4434738Y1604619D01*
X4439005Y1607058D01*
X4443171Y1609750D01*
X4447133Y1612747D01*
X4450943Y1616049D01*
X4454550Y1619656D01*
X4457954Y1623568D01*
X4461154Y1627733D01*
X4464100Y1632153D01*
X4466844Y1636877D01*
X4469282Y1641856D01*
X4471416Y1647139D01*
X4473295Y1652625D01*
X4474870Y1658416D01*
X4476140Y1664462D01*
X4477004Y1670710D01*
X4477562Y1677263D01*
X4477766Y1684020D01*
X4477562Y1690979D01*
X4477004Y1697634D01*
X4476089Y1704035D01*
X4474819Y1710182D01*
X4473244Y1716024D01*
X4471365Y1721612D01*
X4469180Y1726895D01*
X4466691Y1731924D01*
X4463999Y1736648D01*
X4461002Y1741068D01*
X4457801Y1745234D01*
X4454347Y1749094D01*
X4450740Y1752650D01*
X4446930Y1755902D01*
X4442917Y1758848D01*
X4438802Y1761540D01*
X4434484Y1763877D01*
X4430064Y1765909D01*
X4425543Y1767687D01*
X4420920Y1769110D01*
X4416247Y1770227D01*
X4411472Y1770989D01*
X4406646Y1771497D01*
G37*
G36*
X4176776Y1767839D02*
G01*
X4176776Y1759204D01*
X4200144Y1756664D01*
X4200601Y1717954D01*
X4200652Y1677162D01*
X4223512Y1677162D01*
X4223613Y1729993D01*
X4224020Y1757934D01*
X4240022Y1757934D01*
X4247134Y1757629D01*
X4253534Y1756765D01*
X4259326Y1755292D01*
X4264507Y1753260D01*
X4268978Y1750669D01*
X4272889Y1747520D01*
X4276140Y1743862D01*
X4278782Y1739696D01*
X4280865Y1735023D01*
X4282287Y1729841D01*
X4283151Y1724152D01*
X4283456Y1718056D01*
X4283202Y1712163D01*
X4282389Y1706625D01*
X4280966Y1701495D01*
X4278985Y1696720D01*
X4276394Y1692402D01*
X4273194Y1688541D01*
X4269333Y1685188D01*
X4264812Y1682394D01*
X4259580Y1680159D01*
X4253636Y1678533D01*
X4246930Y1677517D01*
X4239514Y1677162D01*
X4200652Y1677162D01*
X4200550Y1638807D01*
X4200144Y1611376D01*
X4176776Y1608836D01*
X4176776Y1600200D01*
X4247642Y1600200D01*
X4247642Y1608836D01*
X4224020Y1611630D01*
X4223562Y1639620D01*
X4223512Y1667256D01*
X4236720Y1667256D01*
X4245813Y1667510D01*
X4254246Y1668322D01*
X4261967Y1669592D01*
X4268978Y1671320D01*
X4275378Y1673453D01*
X4281119Y1676044D01*
X4286250Y1678990D01*
X4290720Y1682292D01*
X4294632Y1685899D01*
X4297984Y1689811D01*
X4300728Y1694027D01*
X4302963Y1698447D01*
X4304690Y1703070D01*
X4305909Y1707946D01*
X4306570Y1712925D01*
X4306824Y1718056D01*
X4306570Y1723491D01*
X4305858Y1728724D01*
X4304639Y1733702D01*
X4302912Y1738375D01*
X4300728Y1742795D01*
X4298035Y1746859D01*
X4294835Y1750669D01*
X4291177Y1754073D01*
X4287012Y1757172D01*
X4282338Y1759915D01*
X4277207Y1762302D01*
X4271568Y1764233D01*
X4265422Y1765807D01*
X4258818Y1766925D01*
X4251706Y1767586D01*
X4244086Y1767839D01*
G37*
G36*
X4495292Y1767839D02*
G01*
X4495292Y1759204D01*
X4518660Y1756664D01*
X4518914Y1688084D01*
X4541774Y1688084D01*
X4541875Y1730044D01*
X4542282Y1757934D01*
X4564126Y1757934D01*
X4570374Y1757680D01*
X4576013Y1756918D01*
X4581093Y1755648D01*
X4585614Y1753920D01*
X4589576Y1751685D01*
X4592980Y1749043D01*
X4595825Y1745945D01*
X4598162Y1742389D01*
X4599940Y1738426D01*
X4601210Y1734057D01*
X4601972Y1729282D01*
X4602226Y1724152D01*
X4601972Y1719072D01*
X4601108Y1714246D01*
X4599736Y1709724D01*
X4597806Y1705559D01*
X4595317Y1701749D01*
X4592269Y1698294D01*
X4588713Y1695348D01*
X4584547Y1692808D01*
X4579823Y1690776D01*
X4574540Y1689303D01*
X4568748Y1688388D01*
X4562348Y1688084D01*
X4518914Y1688084D01*
X4518660Y1611376D01*
X4495292Y1608836D01*
X4495292Y1600200D01*
X4565650Y1600200D01*
X4565650Y1608836D01*
X4542282Y1611630D01*
X4541824Y1649933D01*
X4541774Y1678432D01*
X4555236Y1678432D01*
X4562449Y1678178D01*
X4568647Y1677416D01*
X4573828Y1675892D01*
X4578146Y1673606D01*
X4581753Y1670354D01*
X4584750Y1665986D01*
X4587189Y1660448D01*
X4589272Y1653539D01*
X4599432Y1613662D01*
X4602378Y1606245D01*
X4607356Y1601266D01*
X4614722Y1598523D01*
X4624832Y1597660D01*
X4630470Y1597863D01*
X4635500Y1598371D01*
X4639970Y1599184D01*
X4643882Y1600200D01*
X4643882Y1608836D01*
X4624324Y1610614D01*
X4612640Y1649984D01*
X4610404Y1656740D01*
X4607864Y1662582D01*
X4604918Y1667560D01*
X4601565Y1671726D01*
X4597755Y1675130D01*
X4593437Y1677873D01*
X4588510Y1679956D01*
X4582922Y1681480D01*
X4589729Y1683004D01*
X4595977Y1684985D01*
X4601616Y1687474D01*
X4606696Y1690319D01*
X4611166Y1693570D01*
X4615078Y1697177D01*
X4618329Y1701038D01*
X4621022Y1705203D01*
X4623155Y1709623D01*
X4624628Y1714246D01*
X4625543Y1719021D01*
X4625848Y1723898D01*
X4625594Y1728978D01*
X4624832Y1733753D01*
X4623511Y1738223D01*
X4621784Y1742439D01*
X4619498Y1746351D01*
X4616754Y1749958D01*
X4613554Y1753260D01*
X4609896Y1756257D01*
X4605782Y1758899D01*
X4601260Y1761236D01*
X4596282Y1763217D01*
X4590897Y1764842D01*
X4585106Y1766163D01*
X4578908Y1767078D01*
X4572355Y1767636D01*
X4565396Y1767839D01*
G37*
G36*
X4646930Y1767839D02*
G01*
X4644644Y1723136D01*
X4657344Y1723136D01*
X4664202Y1756664D01*
X4703572Y1756664D01*
X4704080Y1712468D01*
X4703927Y1633372D01*
X4703572Y1611630D01*
X4677664Y1608836D01*
X4677664Y1600200D01*
X4753102Y1600200D01*
X4753102Y1608836D01*
X4727194Y1611630D01*
X4726940Y1650187D01*
X4727194Y1756664D01*
X4766564Y1756664D01*
X4773676Y1723136D01*
X4785868Y1723136D01*
X4784090Y1767839D01*
G37*
D10*
X8245347Y4026915D02*
G01*
X8245347Y3917950D01*
X8245347Y4026915D02*
G01*
X8281670Y4026915D01*
X8297418Y4021836D01*
X8307577Y4011421D01*
X8312911Y4001007D01*
X8317991Y3985260D01*
X8317991Y3959352D01*
X8312911Y3943857D01*
X8307577Y3933444D01*
X8297418Y3923029D01*
X8281670Y3917950D01*
X8245347Y3917950D01*
X8352281Y4006087D02*
G01*
X8362695Y4011421D01*
X8378443Y4026915D01*
X8378443Y3917950D01*
X8245347Y3385565D02*
G01*
X8245347Y3276600D01*
X8245347Y3385565D02*
G01*
X8281670Y3385565D01*
X8297418Y3380486D01*
X8307577Y3370071D01*
X8312911Y3359657D01*
X8317991Y3343910D01*
X8317991Y3318002D01*
X8312911Y3302507D01*
X8307577Y3292094D01*
X8297418Y3281679D01*
X8281670Y3276600D01*
X8245347Y3276600D01*
X8357615Y3359657D02*
G01*
X8357615Y3364737D01*
X8362695Y3375152D01*
X8368029Y3380486D01*
X8378443Y3385565D01*
X8399018Y3385565D01*
X8409431Y3380486D01*
X8414765Y3375152D01*
X8419845Y3364737D01*
X8419845Y3354323D01*
X8414765Y3343910D01*
X8404352Y3328415D01*
X8352281Y3276600D01*
X8425179Y3276600D01*
X8245347Y2744215D02*
G01*
X8245347Y2635250D01*
X8245347Y2744215D02*
G01*
X8281670Y2744215D01*
X8297418Y2739136D01*
X8307577Y2728721D01*
X8312911Y2718307D01*
X8317991Y2702560D01*
X8317991Y2676652D01*
X8312911Y2661157D01*
X8307577Y2650744D01*
X8297418Y2640329D01*
X8281670Y2635250D01*
X8245347Y2635250D01*
X8362695Y2744215D02*
G01*
X8419845Y2744215D01*
X8388858Y2702560D01*
X8404352Y2702560D01*
X8414765Y2697479D01*
X8419845Y2692400D01*
X8425179Y2676652D01*
X8425179Y2666237D01*
X8419845Y2650744D01*
X8409431Y2640329D01*
X8393938Y2635250D01*
X8378443Y2635250D01*
X8362695Y2640329D01*
X8357615Y2645410D01*
X8352281Y2655823D01*
X9299447Y4020565D02*
G01*
X9299447Y3911600D01*
X9299447Y4020565D02*
G01*
X9335770Y4020565D01*
X9351518Y4015486D01*
X9361677Y4005071D01*
X9367011Y3994657D01*
X9372091Y3978910D01*
X9372091Y3953002D01*
X9367011Y3937507D01*
X9361677Y3927094D01*
X9351518Y3916679D01*
X9335770Y3911600D01*
X9299447Y3911600D01*
X9458452Y4020565D02*
G01*
X9406381Y3947921D01*
X9484359Y3947921D01*
X9458452Y4020565D02*
G01*
X9458452Y3911600D01*
X9299447Y3385565D02*
G01*
X9299447Y3276600D01*
X9299447Y3385565D02*
G01*
X9335770Y3385565D01*
X9351518Y3380486D01*
X9361677Y3370071D01*
X9367011Y3359657D01*
X9372091Y3343910D01*
X9372091Y3318002D01*
X9367011Y3302507D01*
X9361677Y3292094D01*
X9351518Y3281679D01*
X9335770Y3276600D01*
X9299447Y3276600D01*
X9468865Y3385565D02*
G01*
X9416795Y3385565D01*
X9411715Y3338829D01*
X9416795Y3343910D01*
X9432543Y3349244D01*
X9448038Y3349244D01*
X9463531Y3343910D01*
X9473945Y3333750D01*
X9479279Y3318002D01*
X9479279Y3307587D01*
X9473945Y3292094D01*
X9463531Y3281679D01*
X9448038Y3276600D01*
X9432543Y3276600D01*
X9416795Y3281679D01*
X9411715Y3286760D01*
X9406381Y3297173D01*
X9299447Y2750565D02*
G01*
X9299447Y2641600D01*
X9299447Y2750565D02*
G01*
X9335770Y2750565D01*
X9351518Y2745486D01*
X9361677Y2735071D01*
X9367011Y2724657D01*
X9372091Y2708910D01*
X9372091Y2683002D01*
X9367011Y2667507D01*
X9361677Y2657094D01*
X9351518Y2646679D01*
X9335770Y2641600D01*
X9299447Y2641600D01*
X9468865Y2735071D02*
G01*
X9463531Y2745486D01*
X9448038Y2750565D01*
X9437624Y2750565D01*
X9422129Y2745486D01*
X9411715Y2729737D01*
X9406381Y2703829D01*
X9406381Y2677921D01*
X9411715Y2657094D01*
X9422129Y2646679D01*
X9437624Y2641600D01*
X9442958Y2641600D01*
X9458452Y2646679D01*
X9468865Y2657094D01*
X9473945Y2672587D01*
X9473945Y2677921D01*
X9468865Y2693415D01*
X9458452Y2703829D01*
X9442958Y2708910D01*
X9437624Y2708910D01*
X9422129Y2703829D01*
X9411715Y2693415D01*
X9406381Y2677921D01*
X2299970Y7201915D02*
G01*
X2299970Y7118858D01*
X2294636Y7103110D01*
X2289556Y7098029D01*
X2279141Y7092950D01*
X2268727Y7092950D01*
X2258313Y7098029D01*
X2252979Y7103110D01*
X2247900Y7118858D01*
X2247900Y7129271D01*
X2344420Y7201915D02*
G01*
X2401570Y7201915D01*
X2370581Y7160260D01*
X2386075Y7160260D01*
X2396490Y7155179D01*
X2401570Y7150100D01*
X2406904Y7134352D01*
X2406904Y7123937D01*
X2401570Y7108444D01*
X2391409Y7098029D01*
X2375661Y7092950D01*
X2360168Y7092950D01*
X2344420Y7098029D01*
X2339340Y7103110D01*
X2334259Y7113523D01*
X6516865Y7163308D02*
G01*
X6511531Y7173721D01*
X6501117Y7184136D01*
X6490957Y7189215D01*
X6470129Y7189215D01*
X6459715Y7184136D01*
X6449301Y7173721D01*
X6443967Y7163308D01*
X6438887Y7147560D01*
X6438887Y7121652D01*
X6443967Y7106158D01*
X6449301Y7095744D01*
X6459715Y7085329D01*
X6470129Y7080250D01*
X6490957Y7080250D01*
X6501117Y7085329D01*
X6511531Y7095744D01*
X6516865Y7106158D01*
X6551155Y7168387D02*
G01*
X6561569Y7173721D01*
X6577063Y7189215D01*
X6577063Y7080250D01*
X6501891Y1868665D02*
G01*
X6491477Y1863331D01*
X6481063Y1852917D01*
X6475984Y1842757D01*
X6475984Y1821929D01*
X6481063Y1811515D01*
X6491477Y1801101D01*
X6501891Y1795767D01*
X6517640Y1790687D01*
X6543547Y1790687D01*
X6559041Y1795767D01*
X6569456Y1801101D01*
X6579870Y1811515D01*
X6584950Y1821929D01*
X6584950Y1842757D01*
X6579870Y1852917D01*
X6569456Y1863331D01*
X6559041Y1868665D01*
X6501891Y1908035D02*
G01*
X6496811Y1908035D01*
X6486397Y1913369D01*
X6481063Y1918449D01*
X6475984Y1928863D01*
X6475984Y1949691D01*
X6481063Y1960105D01*
X6486397Y1965185D01*
X6496811Y1970519D01*
X6507225Y1970519D01*
X6517640Y1965185D01*
X6533134Y1954771D01*
X6584950Y1902955D01*
X6584950Y1975599D01*
X5320791Y1957565D02*
G01*
X5310377Y1952231D01*
X5299963Y1941817D01*
X5294884Y1931657D01*
X5294884Y1910829D01*
X5299963Y1900415D01*
X5310377Y1890001D01*
X5320791Y1884667D01*
X5336540Y1879587D01*
X5362447Y1879587D01*
X5377941Y1884667D01*
X5388356Y1890001D01*
X5398770Y1900415D01*
X5403850Y1910829D01*
X5403850Y1931657D01*
X5398770Y1941817D01*
X5388356Y1952231D01*
X5377941Y1957565D01*
X5294884Y2002269D02*
G01*
X5294884Y2059419D01*
X5336540Y2028177D01*
X5336540Y2043671D01*
X5341620Y2054085D01*
X5346700Y2059419D01*
X5362447Y2064499D01*
X5372861Y2064499D01*
X5388356Y2059419D01*
X5398770Y2049005D01*
X5403850Y2033257D01*
X5403850Y2017763D01*
X5398770Y2002269D01*
X5393690Y1996935D01*
X5383275Y1991855D01*
X4699000Y1245615D02*
G01*
X4699000Y1136650D01*
X4771643Y1245615D02*
G01*
X4699000Y1172971D01*
X4724908Y1198879D02*
G01*
X4771643Y1136650D01*
X4811268Y1219707D02*
G01*
X4811268Y1224787D01*
X4816347Y1235202D01*
X4821681Y1240536D01*
X4832095Y1245615D01*
X4852670Y1245615D01*
X4863084Y1240536D01*
X4868418Y1235202D01*
X4873497Y1224787D01*
X4873497Y1214373D01*
X4868418Y1203960D01*
X4858004Y1188465D01*
X4805934Y1136650D01*
X4878831Y1136650D01*
X2743200Y801115D02*
G01*
X2743200Y692150D01*
X2815843Y801115D02*
G01*
X2743200Y728471D01*
X2769108Y754379D02*
G01*
X2815843Y692150D01*
X2860547Y801115D02*
G01*
X2917697Y801115D01*
X2886709Y759460D01*
X2902204Y759460D01*
X2912618Y754379D01*
X2917697Y749300D01*
X2923031Y733552D01*
X2923031Y723137D01*
X2917697Y707644D01*
X2907284Y697229D01*
X2891790Y692150D01*
X2876295Y692150D01*
X2860547Y697229D01*
X2855468Y702310D01*
X2850134Y712723D01*
X7150100Y1715515D02*
G01*
X7150100Y1606550D01*
X7150100Y1715515D02*
G01*
X7196836Y1715515D01*
X7212329Y1710436D01*
X7217663Y1705102D01*
X7222743Y1694687D01*
X7222743Y1684273D01*
X7217663Y1673860D01*
X7212329Y1668779D01*
X7196836Y1663700D01*
X7150100Y1663700D01*
X7186422Y1663700D02*
G01*
X7222743Y1606550D01*
X7329931Y1715515D02*
G01*
X7277861Y1606550D01*
X7257034Y1715515D02*
G01*
X7329931Y1715515D01*
X3505200Y509015D02*
G01*
X3505200Y400050D01*
X3505200Y509015D02*
G01*
X3551936Y509015D01*
X3567429Y503936D01*
X3572763Y498602D01*
X3577843Y488187D01*
X3577843Y477773D01*
X3572763Y467360D01*
X3567429Y462279D01*
X3551936Y457200D01*
X3505200Y457200D01*
X3541522Y457200D02*
G01*
X3577843Y400050D01*
X3638295Y509015D02*
G01*
X3622547Y503936D01*
X3617468Y493521D01*
X3617468Y483107D01*
X3622547Y472694D01*
X3632961Y467360D01*
X3653790Y462279D01*
X3669284Y457200D01*
X3679697Y446786D01*
X3685031Y436371D01*
X3685031Y420623D01*
X3679697Y410210D01*
X3674618Y405129D01*
X3658870Y400050D01*
X3638295Y400050D01*
X3622547Y405129D01*
X3617468Y410210D01*
X3612134Y420623D01*
X3612134Y436371D01*
X3617468Y446786D01*
X3627881Y457200D01*
X3643375Y462279D01*
X3664204Y467360D01*
X3674618Y472694D01*
X3679697Y483107D01*
X3679697Y493521D01*
X3674618Y503936D01*
X3658870Y509015D01*
X3638295Y509015D01*
X1256284Y990600D02*
G01*
X1365250Y990600D01*
X1256284Y990600D02*
G01*
X1256284Y1037336D01*
X1261363Y1052829D01*
X1266697Y1058163D01*
X1277112Y1063244D01*
X1287526Y1063244D01*
X1297939Y1058163D01*
X1303020Y1052829D01*
X1308100Y1037336D01*
X1308100Y990600D01*
X1308100Y1026921D02*
G01*
X1365250Y1063244D01*
X1292605Y1165097D02*
G01*
X1308100Y1160018D01*
X1318513Y1149604D01*
X1323847Y1134110D01*
X1323847Y1128776D01*
X1318513Y1113281D01*
X1308100Y1102868D01*
X1292605Y1097534D01*
X1287526Y1097534D01*
X1271778Y1102868D01*
X1261363Y1113281D01*
X1256284Y1128776D01*
X1256284Y1134110D01*
X1261363Y1149604D01*
X1271778Y1160018D01*
X1292605Y1165097D01*
X1318513Y1165097D01*
X1344676Y1160018D01*
X1360170Y1149604D01*
X1365250Y1134110D01*
X1365250Y1123695D01*
X1360170Y1107947D01*
X1349755Y1102868D01*
X2934715Y4876800D02*
G01*
X2825750Y4876800D01*
X2934715Y4876800D02*
G01*
X2934715Y4830063D01*
X2929636Y4814570D01*
X2924302Y4809236D01*
X2913888Y4804155D01*
X2898393Y4804155D01*
X2887979Y4809236D01*
X2882900Y4814570D01*
X2877565Y4830063D01*
X2877565Y4876800D01*
X2934715Y4738623D02*
G01*
X2929636Y4754118D01*
X2913888Y4764531D01*
X2887979Y4769865D01*
X2872486Y4769865D01*
X2846324Y4764531D01*
X2830829Y4754118D01*
X2825750Y4738623D01*
X2825750Y4728210D01*
X2830829Y4712715D01*
X2846324Y4702302D01*
X2872486Y4696968D01*
X2887979Y4696968D01*
X2913888Y4702302D01*
X2929636Y4712715D01*
X2934715Y4728210D01*
X2934715Y4738623D01*
X2198115Y4876800D02*
G01*
X2089150Y4876800D01*
X2198115Y4876800D02*
G01*
X2198115Y4830063D01*
X2193036Y4814570D01*
X2187702Y4809236D01*
X2177288Y4804155D01*
X2161793Y4804155D01*
X2151379Y4809236D01*
X2146300Y4814570D01*
X2140965Y4830063D01*
X2140965Y4876800D01*
X2177288Y4769865D02*
G01*
X2182622Y4759452D01*
X2198115Y4743704D01*
X2089150Y4743704D01*
X2947415Y2425700D02*
G01*
X2838450Y2425700D01*
X2947415Y2425700D02*
G01*
X2947415Y2378963D01*
X2942336Y2363470D01*
X2937002Y2358136D01*
X2926588Y2353055D01*
X2911093Y2353055D01*
X2900679Y2358136D01*
X2895600Y2363470D01*
X2890265Y2378963D01*
X2890265Y2425700D01*
X2921508Y2313431D02*
G01*
X2926588Y2313431D01*
X2937002Y2308352D01*
X2942336Y2303018D01*
X2947415Y2292604D01*
X2947415Y2272029D01*
X2942336Y2261615D01*
X2937002Y2256281D01*
X2926588Y2251202D01*
X2916174Y2251202D01*
X2905759Y2256281D01*
X2890265Y2266695D01*
X2838450Y2318765D01*
X2838450Y2245868D01*
X2198115Y2425700D02*
G01*
X2089150Y2425700D01*
X2198115Y2425700D02*
G01*
X2198115Y2378963D01*
X2193036Y2363470D01*
X2187702Y2358136D01*
X2177288Y2353055D01*
X2161793Y2353055D01*
X2151379Y2358136D01*
X2146300Y2363470D01*
X2140965Y2378963D01*
X2140965Y2425700D01*
X2198115Y2308352D02*
G01*
X2198115Y2251202D01*
X2156459Y2282189D01*
X2156459Y2266695D01*
X2151379Y2256281D01*
X2146300Y2251202D01*
X2130552Y2245868D01*
X2120138Y2245868D01*
X2104643Y2251202D01*
X2094229Y2261615D01*
X2089150Y2277110D01*
X2089150Y2292604D01*
X2094229Y2308352D01*
X2099309Y2313431D01*
X2109724Y2318765D01*
X3467100Y1347215D02*
G01*
X3467100Y1238250D01*
X3467100Y1347215D02*
G01*
X3513836Y1347215D01*
X3529329Y1342136D01*
X3534663Y1336802D01*
X3539743Y1326387D01*
X3539743Y1310894D01*
X3534663Y1300479D01*
X3529329Y1295400D01*
X3513836Y1290065D01*
X3467100Y1290065D01*
X3626104Y1347215D02*
G01*
X3574034Y1274571D01*
X3652011Y1274571D01*
X3626104Y1347215D02*
G01*
X3626104Y1238250D01*
X5791200Y1245615D02*
G01*
X5791200Y1136650D01*
X5863843Y1245615D02*
G01*
X5791200Y1172971D01*
X5817108Y1198879D02*
G01*
X5863843Y1136650D01*
X5898134Y1224787D02*
G01*
X5908547Y1230121D01*
X5924295Y1245615D01*
X5924295Y1136650D01*
X8352030Y1715515D02*
G01*
X8352030Y1606550D01*
X8352030Y1715515D02*
G01*
X8398766Y1715515D01*
X8414260Y1710436D01*
X8419594Y1705102D01*
X8424674Y1694687D01*
X8424674Y1684273D01*
X8419594Y1673860D01*
X8414260Y1668779D01*
X8398766Y1663700D01*
X8352030Y1663700D01*
X8388352Y1663700D02*
G01*
X8424674Y1606550D01*
X8458964Y1694687D02*
G01*
X8469378Y1700021D01*
X8485126Y1715515D01*
X8485126Y1606550D01*
X7964096Y1715515D02*
G01*
X7964096Y1606550D01*
X7964096Y1715515D02*
G01*
X8010832Y1715515D01*
X8026326Y1710436D01*
X8031660Y1705102D01*
X8036740Y1694687D01*
X8036740Y1684273D01*
X8031660Y1673860D01*
X8026326Y1668779D01*
X8010832Y1663700D01*
X7964096Y1663700D01*
X8000418Y1663700D02*
G01*
X8036740Y1606550D01*
X8076364Y1689607D02*
G01*
X8076364Y1694687D01*
X8081444Y1705102D01*
X8086778Y1710436D01*
X8097192Y1715515D01*
X8117766Y1715515D01*
X8128180Y1710436D01*
X8133514Y1705102D01*
X8138594Y1694687D01*
X8138594Y1684273D01*
X8133514Y1673860D01*
X8123100Y1658365D01*
X8071030Y1606550D01*
X8143928Y1606550D01*
X7576146Y1715515D02*
G01*
X7576146Y1606550D01*
X7576146Y1715515D02*
G01*
X7622882Y1715515D01*
X7638376Y1710436D01*
X7643710Y1705102D01*
X7648790Y1694687D01*
X7648790Y1684273D01*
X7643710Y1673860D01*
X7638376Y1668779D01*
X7622882Y1663700D01*
X7576146Y1663700D01*
X7612468Y1663700D02*
G01*
X7648790Y1606550D01*
X7693494Y1715515D02*
G01*
X7750644Y1715515D01*
X7719656Y1673860D01*
X7735150Y1673860D01*
X7745564Y1668779D01*
X7750644Y1663700D01*
X7755978Y1647952D01*
X7755978Y1637537D01*
X7750644Y1622044D01*
X7740230Y1611629D01*
X7724736Y1606550D01*
X7709242Y1606550D01*
X7693494Y1611629D01*
X7688414Y1616710D01*
X7683080Y1627123D01*
X8693231Y1715515D02*
G01*
X8693231Y1606550D01*
X8693231Y1715515D02*
G01*
X8739967Y1715515D01*
X8755461Y1710436D01*
X8760795Y1705102D01*
X8765875Y1694687D01*
X8765875Y1684273D01*
X8760795Y1673860D01*
X8755461Y1668779D01*
X8739967Y1663700D01*
X8693231Y1663700D01*
X8729553Y1663700D02*
G01*
X8765875Y1606550D01*
X8852235Y1715515D02*
G01*
X8800165Y1642871D01*
X8878143Y1642871D01*
X8852235Y1715515D02*
G01*
X8852235Y1606550D01*
X9086253Y1715515D02*
G01*
X9086253Y1606550D01*
X9086253Y1715515D02*
G01*
X9132989Y1715515D01*
X9148483Y1710436D01*
X9153817Y1705102D01*
X9158897Y1694687D01*
X9158897Y1684273D01*
X9153817Y1673860D01*
X9148483Y1668779D01*
X9132989Y1663700D01*
X9086253Y1663700D01*
X9122575Y1663700D02*
G01*
X9158897Y1606550D01*
X9255671Y1715515D02*
G01*
X9203601Y1715515D01*
X9198521Y1668779D01*
X9203601Y1673860D01*
X9219349Y1679194D01*
X9234843Y1679194D01*
X9250337Y1673860D01*
X9260751Y1663700D01*
X9266085Y1647952D01*
X9266085Y1637537D01*
X9260751Y1622044D01*
X9250337Y1611629D01*
X9234843Y1606550D01*
X9219349Y1606550D01*
X9203601Y1611629D01*
X9198521Y1616710D01*
X9193187Y1627123D01*
X9474200Y1715515D02*
G01*
X9474200Y1606550D01*
X9474200Y1715515D02*
G01*
X9520936Y1715515D01*
X9536429Y1710436D01*
X9541763Y1705102D01*
X9546843Y1694687D01*
X9546843Y1684273D01*
X9541763Y1673860D01*
X9536429Y1668779D01*
X9520936Y1663700D01*
X9474200Y1663700D01*
X9510522Y1663700D02*
G01*
X9546843Y1606550D01*
X9643618Y1700021D02*
G01*
X9638284Y1710436D01*
X9622790Y1715515D01*
X9612375Y1715515D01*
X9596881Y1710436D01*
X9586468Y1694687D01*
X9581134Y1668779D01*
X9581134Y1642871D01*
X9586468Y1622044D01*
X9596881Y1611629D01*
X9612375Y1606550D01*
X9617709Y1606550D01*
X9633204Y1611629D01*
X9643618Y1622044D01*
X9648697Y1637537D01*
X9648697Y1642871D01*
X9643618Y1658365D01*
X9633204Y1668779D01*
X9617709Y1673860D01*
X9612375Y1673860D01*
X9596881Y1668779D01*
X9586468Y1658365D01*
X9581134Y1642871D01*
X926084Y2426970D02*
G01*
X1009142Y2426970D01*
X1024889Y2421636D01*
X1029970Y2416555D01*
X1035050Y2406142D01*
X1035050Y2395728D01*
X1029970Y2385313D01*
X1024889Y2379979D01*
X1009142Y2374900D01*
X998728Y2374900D01*
X926084Y2513076D02*
G01*
X998728Y2461260D01*
X998728Y2538984D01*
X926084Y2513076D02*
G01*
X1035050Y2513076D01*
X926084Y5779770D02*
G01*
X1009142Y5779770D01*
X1024889Y5774436D01*
X1029970Y5769355D01*
X1035050Y5758942D01*
X1035050Y5748528D01*
X1029970Y5738113D01*
X1024889Y5732779D01*
X1009142Y5727700D01*
X998728Y5727700D01*
X926084Y5876289D02*
G01*
X926084Y5824220D01*
X972820Y5819139D01*
X967739Y5824220D01*
X962405Y5839968D01*
X962405Y5855462D01*
X967739Y5871210D01*
X977900Y5881370D01*
X993647Y5886704D01*
X1004062Y5886704D01*
X1019555Y5881370D01*
X1029970Y5871210D01*
X1035050Y5855462D01*
X1035050Y5839968D01*
X1029970Y5824220D01*
X1024889Y5819139D01*
X1014476Y5814060D01*
X3823715Y4189729D02*
G01*
X3740658Y4189729D01*
X3724909Y4195063D01*
X3719829Y4200144D01*
X3714750Y4210557D01*
X3714750Y4220971D01*
X3719829Y4231386D01*
X3724909Y4236720D01*
X3740658Y4241800D01*
X3751072Y4241800D01*
X3802888Y4155439D02*
G01*
X3808222Y4145279D01*
X3823715Y4129531D01*
X3714750Y4129531D01*
X5322315Y4189729D02*
G01*
X5239258Y4189729D01*
X5223509Y4195063D01*
X5218429Y4200144D01*
X5213350Y4210557D01*
X5213350Y4220971D01*
X5218429Y4231386D01*
X5223509Y4236720D01*
X5239258Y4241800D01*
X5249672Y4241800D01*
X5296408Y4150360D02*
G01*
X5301488Y4150360D01*
X5311902Y4145279D01*
X5317236Y4139945D01*
X5322315Y4129531D01*
X5322315Y4108704D01*
X5317236Y4098289D01*
X5311902Y4093210D01*
X5301488Y4088129D01*
X5291074Y4088129D01*
X5280659Y4093210D01*
X5265165Y4103623D01*
X5213350Y4155439D01*
X5213350Y4082795D01*
X7250684Y5562600D02*
G01*
X7359650Y5562600D01*
X7359650Y5562600D02*
G01*
X7359650Y5624829D01*
X7250684Y5659120D02*
G01*
X7359650Y5659120D01*
X7250684Y5659120D02*
G01*
X7250684Y5726684D01*
X7302500Y5659120D02*
G01*
X7302500Y5700776D01*
X7359650Y5659120D02*
G01*
X7359650Y5726684D01*
X7250684Y5760973D02*
G01*
X7359650Y5760973D01*
X7250684Y5760973D02*
G01*
X7250684Y5797550D01*
X7255763Y5813044D01*
X7266177Y5823457D01*
X7276591Y5828537D01*
X7292340Y5833871D01*
X7318247Y5833871D01*
X7333741Y5828537D01*
X7344156Y5823457D01*
X7354570Y5813044D01*
X7359650Y5797550D01*
X7359650Y5760973D01*
X7271511Y5868162D02*
G01*
X7266177Y5878576D01*
X7250684Y5894070D01*
X7359650Y5894070D01*
X7960537Y2932836D02*
G01*
X7882559Y2932836D01*
X7867065Y2927756D01*
X7856651Y2917342D01*
X7851571Y2901594D01*
X7851571Y2891180D01*
X7856651Y2875686D01*
X7867065Y2865272D01*
X7882559Y2860192D01*
X7960537Y2860192D01*
X7939709Y2825902D02*
G01*
X7945043Y2815488D01*
X7960537Y2799740D01*
X7851571Y2799740D01*
X6754037Y2932836D02*
G01*
X6676059Y2932836D01*
X6660565Y2927756D01*
X6650151Y2917342D01*
X6645071Y2901594D01*
X6645071Y2891180D01*
X6650151Y2875686D01*
X6660565Y2865272D01*
X6676059Y2860192D01*
X6754037Y2860192D01*
X6728129Y2820568D02*
G01*
X6733209Y2820568D01*
X6743623Y2815488D01*
X6748957Y2810154D01*
X6754037Y2799740D01*
X6754037Y2779166D01*
X6748957Y2768752D01*
X6743623Y2763418D01*
X6733209Y2758338D01*
X6722795Y2758338D01*
X6712381Y2763418D01*
X6696887Y2773832D01*
X6645071Y2825902D01*
X6645071Y2753004D01*
X7036815Y5689600D02*
G01*
X6958838Y5689600D01*
X6943343Y5684520D01*
X6932929Y5674105D01*
X6927850Y5658357D01*
X6927850Y5647944D01*
X6932929Y5632450D01*
X6943343Y5622036D01*
X6958838Y5616955D01*
X7036815Y5616955D01*
X7036815Y5572252D02*
G01*
X7036815Y5515102D01*
X6995159Y5546089D01*
X6995159Y5530595D01*
X6990079Y5520181D01*
X6985000Y5515102D01*
X6969252Y5509768D01*
X6958838Y5509768D01*
X6943343Y5515102D01*
X6932929Y5525515D01*
X6927850Y5541010D01*
X6927850Y5556504D01*
X6932929Y5572252D01*
X6938009Y5577331D01*
X6948424Y5582665D01*
D11*
X8302335Y3832999D02*
G01*
X8302335Y3772999D01*
X8274999Y3802999D02*
G01*
X8332335Y3802999D01*
X8105002Y3815288D02*
G01*
X8105002Y3788062D01*
X8105002Y3577932D02*
G01*
X8105002Y3550706D01*
X8302335Y3191649D02*
G01*
X8302335Y3131649D01*
X8274999Y3161649D02*
G01*
X8332335Y3161649D01*
X8105002Y3173938D02*
G01*
X8105002Y3146712D01*
X8105002Y2936582D02*
G01*
X8105002Y2909356D01*
X8302335Y2550299D02*
G01*
X8302335Y2490299D01*
X8274999Y2520299D02*
G01*
X8332335Y2520299D01*
X8105002Y2532588D02*
G01*
X8105002Y2505362D01*
X8105002Y2295232D02*
G01*
X8105002Y2268006D01*
X9356435Y3826649D02*
G01*
X9356435Y3766649D01*
X9329099Y3796649D02*
G01*
X9386435Y3796649D01*
X9159102Y3808938D02*
G01*
X9159102Y3781712D01*
X9159102Y3571582D02*
G01*
X9159102Y3544356D01*
X9356435Y3191649D02*
G01*
X9356435Y3131649D01*
X9329099Y3161649D02*
G01*
X9386435Y3161649D01*
X9159102Y3173938D02*
G01*
X9159102Y3146712D01*
X9159102Y2936582D02*
G01*
X9159102Y2909356D01*
X9356435Y2556649D02*
G01*
X9356435Y2496649D01*
X9329099Y2526649D02*
G01*
X9386435Y2526649D01*
X9159102Y2538938D02*
G01*
X9159102Y2511712D01*
X9159102Y2301582D02*
G01*
X9159102Y2274356D01*
D12*
X2781300Y7061200D02*
G01*
X2781300Y6807200D01*
X1765300Y6807200D01*
X1765300Y7061200D01*
X1955800Y7061200D01*
D13*
X2781300Y7061200D02*
G01*
X1955800Y7061200D01*
D14*
X6468899Y6921568D02*
G01*
X6553200Y6921568D01*
X6408900Y6921431D02*
G01*
X6324600Y6921431D01*
X6468899Y6846498D02*
G01*
X6468899Y6996496D01*
X6408900Y6996501D02*
G01*
X6408900Y6846503D01*
X6238887Y7046503D02*
G01*
X6638886Y7046501D01*
X6638886Y6796496D02*
G01*
X6238887Y6796498D01*
X6238887Y7046503D02*
G01*
X6238887Y7011644D01*
X6238887Y6831355D02*
G01*
X6238887Y6796498D01*
X6638886Y7046501D02*
G01*
X6638886Y7011644D01*
X6638886Y6831355D02*
G01*
X6638886Y6796496D01*
X6743631Y1820699D02*
G01*
X6743631Y1905000D01*
X6743768Y1760700D02*
G01*
X6743768Y1676400D01*
X6818701Y1820699D02*
G01*
X6668703Y1820699D01*
X6668698Y1760700D02*
G01*
X6818696Y1760700D01*
X6618696Y1590687D02*
G01*
X6618698Y1990686D01*
X6868703Y1990686D02*
G01*
X6868701Y1590687D01*
X6618696Y1590687D02*
G01*
X6653555Y1590687D01*
X6833844Y1590687D02*
G01*
X6868701Y1590687D01*
X6618698Y1990686D02*
G01*
X6653555Y1990686D01*
X6833844Y1990686D02*
G01*
X6868703Y1990686D01*
X5562531Y1909599D02*
G01*
X5562531Y1993900D01*
X5562668Y1849600D02*
G01*
X5562668Y1765300D01*
X5637601Y1909599D02*
G01*
X5487603Y1909599D01*
X5487598Y1849600D02*
G01*
X5637596Y1849600D01*
X5437596Y1679587D02*
G01*
X5437598Y2079586D01*
X5687603Y2079586D02*
G01*
X5687601Y1679587D01*
X5437596Y1679587D02*
G01*
X5472455Y1679587D01*
X5652744Y1679587D02*
G01*
X5687601Y1679587D01*
X5437598Y2079586D02*
G01*
X5472455Y2079586D01*
X5652744Y2079586D02*
G01*
X5687603Y2079586D01*
D11*
X4471568Y474700D02*
G01*
X4926431Y474700D01*
X4399000Y884699D02*
G01*
X4399000Y674700D01*
X5008999Y877498D02*
G01*
X5008999Y664700D01*
X4499000Y1074699D02*
G01*
X4926431Y1074699D01*
X2147468Y449300D02*
G01*
X2602331Y449300D01*
X2074900Y859299D02*
G01*
X2074900Y649300D01*
X2684899Y852098D02*
G01*
X2684899Y639300D01*
X2174900Y1049299D02*
G01*
X2602331Y1049299D01*
X7373998Y1287899D02*
G01*
X7374000Y667900D01*
X7104001Y1287899D02*
G01*
X7103999Y667900D01*
X7104001Y667900D02*
G01*
X7374000Y667900D01*
X7103999Y1287899D02*
G01*
X7373998Y1287899D01*
X3916799Y563501D02*
G01*
X3296800Y563498D01*
X3916799Y833498D02*
G01*
X3296800Y833501D01*
X3296800Y833498D02*
G01*
X3296800Y563498D01*
X3916799Y833501D02*
G01*
X3916799Y563501D01*
X1414401Y680600D02*
G01*
X1414398Y1300599D01*
X1684398Y680600D02*
G01*
X1684401Y1300599D01*
X1684398Y1300599D02*
G01*
X1414398Y1300599D01*
X1684401Y680600D02*
G01*
X1414401Y680600D01*
D12*
X2794000Y3835400D02*
G01*
X2540000Y3835400D01*
X2540000Y5867400D01*
X2794000Y5867400D01*
X2794000Y5676900D01*
D13*
X2794000Y3835400D02*
G01*
X2794000Y5676900D01*
D12*
X2057400Y3835400D02*
G01*
X1803400Y3835400D01*
X1803400Y5867400D01*
X2057400Y5867400D01*
X2057400Y5676900D01*
D13*
X2057400Y3835400D02*
G01*
X2057400Y5676900D01*
D12*
X2540000Y3416300D02*
G01*
X2794000Y3416300D01*
X2794000Y1384300D01*
X2540000Y1384300D01*
X2540000Y1574800D01*
D13*
X2540000Y3416300D02*
G01*
X2540000Y1574800D01*
D12*
X2057400Y1384300D02*
G01*
X1803400Y1384300D01*
X1803400Y3416300D01*
X2057400Y3416300D01*
X2057400Y3225800D01*
D13*
X2057400Y1384300D02*
G01*
X2057400Y3225800D01*
D12*
X3670300Y1206500D02*
G01*
X3924300Y1206500D01*
X3924300Y955039D01*
X3162300Y955039D01*
X3162300Y1206500D01*
X3670300Y1206500D01*
D11*
X5563768Y474700D02*
G01*
X6018631Y474700D01*
X5491200Y884699D02*
G01*
X5491200Y674700D01*
X6101199Y877498D02*
G01*
X6101199Y664700D01*
X5591200Y1074699D02*
G01*
X6018631Y1074699D01*
X8259696Y667900D02*
G01*
X8259693Y1287899D01*
X8529693Y667900D02*
G01*
X8529695Y1287899D01*
X8529693Y1287899D02*
G01*
X8259693Y1287899D01*
X8529695Y667900D02*
G01*
X8259696Y667900D01*
X7874464Y667900D02*
G01*
X7874462Y1287899D01*
X8144461Y667900D02*
G01*
X8144464Y1287899D01*
X8144461Y1287899D02*
G01*
X7874462Y1287899D01*
X8144464Y667900D02*
G01*
X7874464Y667900D01*
X7489233Y667900D02*
G01*
X7489230Y1287899D01*
X7759230Y667900D02*
G01*
X7759232Y1287899D01*
X7759230Y1287899D02*
G01*
X7489230Y1287899D01*
X7759232Y667900D02*
G01*
X7489233Y667900D01*
X8644925Y667900D02*
G01*
X8644923Y1287899D01*
X8914922Y667900D02*
G01*
X8914925Y1287899D01*
X8914922Y1287899D02*
G01*
X8644923Y1287899D01*
X8914925Y667900D02*
G01*
X8644925Y667900D01*
X9030164Y667900D02*
G01*
X9030162Y1287899D01*
X9300161Y667900D02*
G01*
X9300164Y1287899D01*
X9300161Y1287899D02*
G01*
X9030162Y1287899D01*
X9300164Y667900D02*
G01*
X9030164Y667900D01*
X9415401Y667900D02*
G01*
X9415399Y1287899D01*
X9685398Y667900D02*
G01*
X9685400Y1287899D01*
X9685398Y1287899D02*
G01*
X9415399Y1287899D01*
X9685400Y667900D02*
G01*
X9415401Y667900D01*
D12*
X1066800Y3416300D02*
G01*
X1320800Y3416300D01*
X1320800Y1384300D01*
X1066800Y1384300D01*
X1066800Y1574800D01*
D13*
X1066800Y3416300D02*
G01*
X1066800Y1574800D01*
D12*
X1066800Y6769100D02*
G01*
X1320800Y6769100D01*
X1320800Y4737100D01*
X1066800Y4737100D01*
X1066800Y4927600D01*
D13*
X1066800Y6769100D02*
G01*
X1066800Y4927600D01*
D11*
X3430998Y1537401D02*
G01*
X3680995Y1537401D01*
X3430996Y6895398D02*
G01*
X3430996Y1537401D01*
X3680995Y6895398D02*
G01*
X3680995Y1537401D01*
X3680995Y6638594D02*
G01*
X3430998Y6638594D01*
X3430998Y6895398D02*
G01*
X3680995Y6895398D01*
X4929598Y1537401D02*
G01*
X5179595Y1537401D01*
X4929596Y6895398D02*
G01*
X4929596Y1537401D01*
X5179595Y6895398D02*
G01*
X5179595Y1537401D01*
X5179595Y6638594D02*
G01*
X4929598Y6638594D01*
X4929598Y6895398D02*
G01*
X5179595Y6895398D01*
D15*
X7394699Y6974339D02*
G01*
X7394699Y4204340D01*
X9394700Y4204340D01*
X9394700Y6974339D01*
X7394699Y6974339D01*
D16*
X8690828Y6233995D02*
G01*
X8325916Y6233995D01*
X8624305Y5065875D02*
G01*
X8692860Y5454383D01*
X8098967Y4948613D02*
G01*
X8464006Y4948913D01*
X8577579Y5591492D02*
G01*
X8212678Y5591492D01*
X8737498Y5708434D02*
G01*
X8805859Y6097272D01*
X8097367Y5728327D02*
G01*
X8165480Y6117033D01*
X7984017Y5086144D02*
G01*
X8052267Y5474474D01*
D11*
X7440422Y3921005D02*
G01*
X7660411Y3921005D01*
X7020613Y3921005D02*
G01*
X7240602Y3921005D01*
X7660589Y1921012D02*
G01*
X7660589Y3921005D01*
X7020613Y1921012D02*
G01*
X7020613Y3921005D01*
X7020613Y1921012D02*
G01*
X7660589Y1921012D01*
X6233922Y3921005D02*
G01*
X6453911Y3921005D01*
X5814113Y3921005D02*
G01*
X6034102Y3921005D01*
X6454089Y1921012D02*
G01*
X6454089Y3921005D01*
X5814113Y1921012D02*
G01*
X5814113Y3921005D01*
X5814113Y1921012D02*
G01*
X6454089Y1921012D01*
D10*
X6172009Y6624370D02*
G01*
X6705790Y6624370D01*
X6705790Y4678629D01*
X6172009Y4678629D01*
X6172009Y6624370D01*
D11*
G75*
G01*
X8430443Y3779020D02*
G03*
X8105003Y3815286I-175441J-96022D01*
G75*
G01*
X8105003Y3550709D02*
G03*
X8430443Y3586975I149999J132288D01*
G75*
G01*
X8430443Y3137670D02*
G03*
X8105003Y3173936I-175441J-96022D01*
G75*
G01*
X8105003Y2909359D02*
G03*
X8430443Y2945625I149999J132288D01*
G75*
G01*
X8430443Y2496320D02*
G03*
X8105003Y2532586I-175441J-96022D01*
G75*
G01*
X8105003Y2268009D02*
G03*
X8430443Y2304275I149999J132288D01*
G75*
G01*
X9484543Y3772670D02*
G03*
X9159103Y3808936I-175441J-96022D01*
G75*
G01*
X9159103Y3544359D02*
G03*
X9484543Y3580625I149999J132288D01*
G75*
G01*
X9484543Y3137670D02*
G03*
X9159103Y3173936I-175441J-96022D01*
G75*
G01*
X9159103Y2909359D02*
G03*
X9484543Y2945625I149999J132288D01*
G75*
G01*
X9484543Y2502670D02*
G03*
X9159103Y2538936I-175441J-96022D01*
G75*
G01*
X9159103Y2274359D02*
G03*
X9484543Y2310625I149999J132288D01*
D17*
G75*
G01*
X8879078Y4989576D02*
G03*
X8879586Y4989576I254J-29598D01*
D11*
G75*
G01*
X7440600Y3921006D02*
G02*
X7240603Y3916004I-99999J-2501D01*
G75*
G01*
X6234100Y3921006D02*
G02*
X6034103Y3916004I-99999J-2501D01*
D10*
G75*
G01*
X6518275Y6624371D02*
G02*
X6359525Y6624371I-79375J0D01*
D11*
G75*
G01
X4869002Y774700D02*
G03X4869002Y774700I-170002J0D01*
G75*
G01
X4931791Y624865D02*
G03X4931791Y624865I-43002J0D01*
G75*
G01
X4551807Y924865D02*
G03X4551807Y924865I-43002J0D01*
G75*
G01
X4552010Y624713D02*
G03X4552010Y624713I-43002J0D01*
G75*
G01
X4929175Y927608D02*
G03X4929175Y927608I-43002J0D01*
G75*
G01
X2544902Y749300D02*
G03X2544902Y749300I-170002J0D01*
G75*
G01
X2607691Y599465D02*
G03X2607691Y599465I-43002J0D01*
G75*
G01
X2227707Y899465D02*
G03X2227707Y899465I-43002J0D01*
G75*
G01
X2227910Y599313D02*
G03X2227910Y599313I-43002J0D01*
G75*
G01
X2605075Y902208D02*
G03X2605075Y902208I-43002J0D01*
G75*
G01
X5961202Y774700D02*
G03X5961202Y774700I-170002J0D01*
G75*
G01
X6023991Y624865D02*
G03X6023991Y624865I-43002J0D01*
G75*
G01
X5644007Y924865D02*
G03X5644007Y924865I-43002J0D01*
G75*
G01
X5644210Y624713D02*
G03X5644210Y624713I-43002J0D01*
G75*
G01
X6021375Y927608D02*
G03X6021375Y927608I-43002J0D01*
D18*
G75*
G01
X6072911Y6658737D02*
G03X6072911Y6658737I-15011J0D01*
M02*
